<?xml version="1.0" standalone="yes"?>

<svg version="1.1" viewBox="0.0 0.0 442.66141732283467 244.11548556430446" fill="none" stroke="none" stroke-linecap="square" stroke-miterlimit="10" xmlns="http://www.w3.org/2000/svg" xmlns:xlink="http://www.w3.org/1999/xlink"><clipPath id="p.0"><path d="m0 0l442.6614 0l0 244.11548l-442.6614 0l0 -244.11548z" clip-rule="nonzero"></path></clipPath><g clip-path="url(#p.0)"><path fill="#000000" fill-opacity="0.0" d="m0 0l442.6614 0l0 244.11548l-442.6614 0z" fill-rule="nonzero"></path><path fill="#000000" fill-opacity="0.0" d="m15.055116 139.55621l-1.7637796 96.59842" fill-rule="nonzero"></path><path stroke="#f7c797" stroke-width="8.0" stroke-linejoin="round" stroke-linecap="butt" d="m15.055116 139.55621l-1.7637796 96.59842" fill-rule="nonzero"></path><path fill="#000000" fill-opacity="0.0" d="m247.2001 139.55678l-1.7007751 96.59842" fill-rule="nonzero"></path><path stroke="#f7c797" stroke-width="8.0" stroke-linejoin="round" stroke-linecap="butt" d="m247.2001 139.55678l-1.7007751 96.59842" fill-rule="nonzero"></path><path fill="#000000" fill-opacity="0.0" d="m5.8687663 132.2336l252.34645 0" fill-rule="nonzero"></path><path stroke="#f7c797" stroke-width="16.0" stroke-linejoin="round" stroke-linecap="butt" d="m5.8687663 132.2336l252.34645 0" fill-rule="nonzero"></path><path fill="#c9e2ae" d="m82.13123 51.050636l83.55906 0l0 74.4252l-83.55906 0z" fill-rule="nonzero"></path><path stroke="#999999" stroke-width="3.0" stroke-linejoin="round" stroke-linecap="butt" d="m82.13123 51.050636l83.55906 0l0 74.4252l-83.55906 0z" fill-rule="nonzero"></path><path fill="#000000" fill-opacity="0.0" d="m92.698166 84.49869l62.4252 0l0 39.527557l-62.4252 0z" fill-rule="nonzero"></path><path fill="#000000" d="m130.01167 112.80247l0 -7.875q0 -2.390625 -2.140625 -2.390625q-0.90625 0 -1.765625 0.546875q-0.84375 0.53125 -1.3125 1.21875l0 8.5l-1.7968826 0l0 -7.875q0 -2.390625 -2.140625 -2.390625q-0.875 0 -1.71875 0.546875q-0.84375 0.546875 -1.328125 1.25l0 8.46875l-1.796875 0l0 -11.59375l1.796875 0l0 1.6875q0.421875 -0.703125 1.546875 -1.328125q1.125 -0.640625 2.203125 -0.640625q1.34375 0 2.09375 0.625q0.765625 0.625 1.03125 1.53125q0.5937576 -0.9375 1.6875076 -1.546875q1.109375 -0.609375 2.203125 -0.609375q3.234375 0 3.234375 3.5l0 8.375l-1.796875 0z" fill-rule="nonzero"></path><path fill="#000000" fill-opacity="0.0" d="m359.38058 97.65092l0 -69.16535" fill-rule="nonzero"></path><path stroke="#ff0000" stroke-width="3.0" stroke-linejoin="round" stroke-linecap="butt" d="m359.38058 97.65092l0 -51.16535" fill-rule="evenodd"></path><path fill="#ff0000" stroke="#ff0000" stroke-width="3.0" stroke-linecap="butt" d="m364.3358 46.485565l-4.9552 -13.614292l-4.9552 13.614292z" fill-rule="evenodd"></path><path fill="#000000" fill-opacity="0.0" d="m352.16797 17.650919l62.4252 0l0 39.527557l-62.4252 0z" fill-rule="nonzero"></path><path fill="#ff0000" d="m374.2476 45.954697l0 -16.015623l10.484375 0l0 1.78125l-8.5 0l0 5.156248l8.328125 0l0 1.78125l-8.328125 0l0 7.296875l-1.984375 0z" fill-rule="nonzero"></path><path fill="#ff0000" d="m391.99442 54.954697l0 -5.0625q0 -1.015625 -0.484375 -1.390625q-0.46875 -0.390625 -1.25 -0.390625q-0.671875 0 -1.328125 0.359375q-0.640625 0.359375 -0.953125 0.84375l0 5.640625l-1.203125 0l0 -7.734375l1.203125 0l0 1.125q0.484375 -0.578125 1.21875 -0.9375q0.734375 -0.375 1.53125 -0.375q2.453125 0 2.453125 2.5l0 5.421875l-1.1875 0z" fill-rule="nonzero"></path><path fill="#000000" fill-opacity="0.0" d="m359.38058 97.65092l0 69.16535" fill-rule="nonzero"></path><path stroke="#4a86e8" stroke-width="3.0" stroke-linejoin="round" stroke-linecap="butt" d="m359.38058 97.65092l0 51.16535" fill-rule="evenodd"></path><path fill="#4a86e8" stroke="#4a86e8" stroke-width="3.0" stroke-linecap="butt" d="m354.42538 148.81627l4.9552 13.614304l4.9552 -13.614304z" fill-rule="evenodd"></path><path fill="#000000" fill-opacity="0.0" d="m352.16797 113.65092l62.4252 0l0 39.527565l-62.4252 0z" fill-rule="nonzero"></path><path fill="#4a86e8" d="m374.0636 141.9547l0 -16.015625l10.484375 0l0 1.78125l-8.5 0l0 5.15625l8.328125 0l0 1.78125l-8.328125 0l0 7.296875l-1.984375 0z" fill-rule="nonzero"></path><path fill="#4a86e8" d="m389.68542 154.09532q-0.984375 0 -1.703125 -0.25q-0.71875 -0.234375 -1.40625 -0.90625l0.609375 -0.890625q0.46875 0.5625 1.0625 0.796875q0.609375 0.25 1.4375 0.25q1.1875 0 1.828125 -0.625q0.65625 -0.609375 0.65625 -1.6875l0 -1.109375q-0.40625 0.59375 -1.09375 0.984375q-0.671875 0.390625 -1.5 0.390625q-1.5625 0 -2.5 -1.09375q-0.9375 -1.109375 -0.9375 -2.90625q0 -1.859375 0.953125 -2.9375q0.953125 -1.078125 2.484375 -1.078125q1.609375 0 2.59375 1.359375l0 -1.171875l1.203125 0l0 7.515625q0 1.625 -0.96875 2.484375q-0.953125 0.875 -2.71875 0.875zm0.1875 -4.09375q0.65625 0 1.296875 -0.34375q0.65625 -0.359375 1.0 -0.921875l0 -3.375q-0.34375 -0.5625 -1.0 -0.90625q-0.65625 -0.34375 -1.296875 -0.34375q-1.140625 0 -1.8125 0.8125q-0.671875 0.8125 -0.671875 2.125q0 1.328125 0.6875 2.140625q0.6875 0.8125 1.796875 0.8125z" fill-rule="nonzero"></path><path fill="#000000" fill-opacity="0.0" d="m281.63254 0l156.28348 0l0 28.566929l-156.28348 0z" fill-rule="nonzero"></path><path fill="#000000" d="m297.71216 20.143463l0 -10.671875l6.984375 0l0 1.1875l-5.65625 0l0 3.4375l5.546875 0l0 1.1875l-5.546875 0l0 4.859375l-1.328125 0zm12.128143 0.1875q-1.6875 0 -2.765625 -1.140625q-1.0625 -1.140625 -1.0625 -2.921875q0 -1.78125 1.0625 -2.90625q1.078125 -1.140625 2.765625 -1.140625q1.671875 0 2.75 1.140625q1.078125 1.125 1.078125 2.90625q0 1.78125 -1.078125 2.921875q-1.078125 1.140625 -2.75 1.140625zm0 -1.0625q1.125 0 1.84375 -0.84375q0.71875 -0.84375 0.71875 -2.15625q0 -1.296875 -0.71875 -2.125q-0.71875 -0.84375 -1.84375 -0.84375q-1.125 0 -1.859375 0.828125q-0.71875 0.828125 -0.71875 2.140625q0 1.328125 0.71875 2.171875q0.71875 0.828125 1.859375 0.828125zm5.777008 0.875l0 -7.734375l1.203125 0l0 1.25q1.0625 -1.40625 2.5625 -1.40625l0 1.234375l-0.46875 -0.046875q-0.546875 0 -1.203125 0.390625q-0.65625 0.390625 -0.890625 0.84375l0 5.46875l-1.203125 0zm8.686279 0.1875q-1.703125 0 -2.78125 -1.140625q-1.078125 -1.15625 -1.078125 -2.921875q0 -1.734375 1.078125 -2.890625q1.078125 -1.15625 2.78125 -1.15625q1.796875 0 2.828125 1.34375l-0.796875 0.734375q-0.734375 -1.0 -1.96875 -1.0q-1.1875 0 -1.9375 0.828125q-0.734375 0.8125 -0.734375 2.140625q0 1.34375 0.734375 2.171875q0.734375 0.828125 1.9375 0.828125q1.21875 0 1.96875 -1.015625l0.796875 0.734375q-1.03125 1.34375 -2.828125 1.34375zm7.9981384 0q-1.75 0 -2.84375 -1.125q-1.09375 -1.140625 -1.09375 -2.9375q0 -1.703125 1.078125 -2.875q1.09375 -1.171875 2.734375 -1.171875q1.65625 0 2.671875 1.15625q1.03125 1.15625 1.03125 2.984375l0 0.3125l-6.25 0q0.0625 1.1875 0.84375 1.9375q0.796875 0.734375 1.9375 0.734375q1.40625 0 2.390625 -0.984375l0.578125 0.796875q-1.1875 1.171875 -3.078125 1.171875zm2.40625 -4.546875q0 -1.0625 -0.703125 -1.8125q-0.703125 -0.75 -1.84375 -0.75q-1.078125 0 -1.796875 0.75q-0.703125 0.75 -0.734375 1.8125l5.078125 0zm5.5548706 4.546875q-1.953125 0 -3.109375 -1.21875l0.625 -0.859375q0.375 0.453125 1.046875 0.78125q0.6875 0.328125 1.5 0.328125q0.890625 0 1.34375 -0.375q0.46875 -0.375 0.46875 -0.953125q0 -0.515625 -0.5 -0.8125q-0.5 -0.296875 -1.875 -0.609375q-1.171875 -0.25 -1.796875 -0.765625q-0.609375 -0.515625 -0.609375 -1.40625q0 -0.96875 0.78125 -1.59375q0.78125 -0.625 2.09375 -0.625q1.75 0 2.875 1.125l-0.5625 0.828125q-0.359375 -0.421875 -0.953125 -0.6875q-0.59375 -0.28125 -1.359375 -0.28125q-0.796875 0 -1.25 0.359375q-0.453125 0.34375 -0.453125 0.84375q0 0.46875 0.5 0.75q0.515625 0.265625 1.890625 0.546875q1.171875 0.28125 1.78125 0.828125q0.609375 0.546875 0.609375 1.46875q0 1.0625 -0.828125 1.703125q-0.828125 0.625 -2.21875 0.625zm12.505524 0q-1.6875 0 -2.765625 -1.140625q-1.0625 -1.140625 -1.0625 -2.921875q0 -1.78125 1.0625 -2.90625q1.078125 -1.140625 2.765625 -1.140625q1.671875 0 2.75 1.140625q1.078125 1.125 1.078125 2.90625q0 1.78125 -1.078125 2.921875q-1.078125 1.140625 -2.75 1.140625zm0 -1.0625q1.125 0 1.84375 -0.84375q0.71875 -0.84375 0.71875 -2.15625q0 -1.296875 -0.71875 -2.125q-0.71875 -0.84375 -1.84375 -0.84375q-1.125 0 -1.859375 0.828125q-0.71875 0.828125 -0.71875 2.140625q0 1.328125 0.71875 2.171875q0.71875 0.828125 1.859375 0.828125zm10.995789 0.875l0 -5.0625q0 -1.015625 -0.484375 -1.390625q-0.46875 -0.390625 -1.25 -0.390625q-0.671875 0 -1.328125 0.359375q-0.640625 0.359375 -0.953125 0.84375l0 5.640625l-1.203125 0l0 -7.734375l1.203125 0l0 1.125q0.484375 -0.578125 1.21875 -0.9375q0.734375 -0.375 1.53125 -0.375q2.453125 0 2.453125 2.5l0 5.421875l-1.1875 0zm9.678406 0.1875q-1.71875 0 -1.71875 -1.796875l0 -5.0625l-1.28125 0l0 -1.0625l1.28125 0l0 -2.109375l1.203125 0l0 2.109375l1.5625 0l0 1.0625l-1.5625 0l0 4.796875q0 0.4375 0.1875 0.71875q0.203125 0.28125 0.59375 0.28125q0.5 0 0.8125 -0.328125l0.359375 0.90625q-0.5 0.484375 -1.4375 0.484375zm7.98526 -0.1875l0 -5.09375q0 -0.859375 -0.421875 -1.296875q-0.40625 -0.453125 -1.328125 -0.453125q-0.65625 0 -1.28125 0.34375q-0.609375 0.328125 -1.0 0.859375l0 5.640625l-1.203125 0l0 -10.671875l1.203125 0l0 4.0625q0.5 -0.59375 1.234375 -0.953125q0.75 -0.359375 1.53125 -0.359375q2.453125 0 2.453125 2.46875l0 5.453125l-1.1875 0zm7.0820007 0.1875q-1.75 0 -2.84375 -1.125q-1.09375 -1.140625 -1.09375 -2.9375q0 -1.703125 1.078125 -2.875q1.09375 -1.171875 2.734375 -1.171875q1.65625 0 2.671875 1.15625q1.03125 1.15625 1.03125 2.984375l0 0.3125l-6.25 0q0.0625 1.1875 0.84375 1.9375q0.796875 0.734375 1.9375 0.734375q1.40625 0 2.390625 -0.984375l0.578125 0.796875q-1.1875 1.171875 -3.078125 1.171875zm2.40625 -4.546875q0 -1.0625 -0.703125 -1.8125q-0.703125 -0.75 -1.84375 -0.75q-1.078125 0 -1.796875 0.75q-0.703125 0.75 -0.734375 1.8125l5.078125 0zm8.448517 2.265625q0.3125 0.515625 0.9375 0.875q0.640625 0.34375 1.359375 0.34375q1.140625 0 1.8125 -0.828125q0.6875 -0.828125 0.6875 -2.15625q0 -1.34375 -0.671875 -2.15625q-0.671875 -0.828125 -1.828125 -0.828125q-0.71875 0 -1.359375 0.375q-0.625 0.359375 -0.9375 0.875l0 3.5zm-1.203125 2.09375l0 -10.671875l1.203125 0l0 4.109375q0.984375 -1.359375 2.609375 -1.359375q1.53125 0 2.484375 1.125q0.953125 1.109375 0.953125 2.9375q0 1.859375 -0.953125 2.953125q-0.953125 1.09375 -2.484375 1.09375q-0.828125 0 -1.515625 -0.375q-0.671875 -0.375 -1.09375 -0.96875l0 1.15625l-1.203125 0zm12.575012 0.1875q-1.6875 0 -2.765625 -1.140625q-1.0625 -1.140625 -1.0625 -2.921875q0 -1.78125 1.0625 -2.90625q1.078125 -1.140625 2.765625 -1.140625q1.671875 0 2.75 1.140625q1.078125 1.125 1.078125 2.90625q0 1.78125 -1.078125 2.921875q-1.078125 1.140625 -2.75 1.140625zm0 -1.0625q1.125 0 1.84375 -0.84375q0.71875 -0.84375 0.71875 -2.15625q0 -1.296875 -0.71875 -2.125q-0.71875 -0.84375 -1.84375 -0.84375q-1.125 0 -1.859375 0.828125q-0.71875 0.828125 -0.71875 2.140625q0 1.328125 0.71875 2.171875q0.71875 0.828125 1.859375 0.828125zm10.777039 0.875l-2.3125 -3.171875l-2.328125 3.171875l-1.375 0l2.96875 -3.96875l-2.796875 -3.765625l1.390625 0l2.140625 2.953125l2.140625 -2.953125l1.390625 0l-2.796875 3.765625l2.96875 3.96875l-1.390625 0z" fill-rule="nonzero"></path><path fill="#000000" fill-opacity="0.0" d="m51.658794 -0.27559054l156.28346 0l0 28.566929l-156.28346 0z" fill-rule="nonzero"></path><path fill="#000000" d="m70.55439 19.867872l0 -10.671875l4.75 0q1.359375 0 2.171875 0.75q0.8125 0.734375 0.8125 1.96875q0 0.9375 -0.515625 1.59375q-0.515625 0.65625 -1.34375 0.859375q0.84375 0.125 1.453125 0.890625q0.625 0.765625 0.625 1.734375q0 1.3125 -0.828125 2.09375q-0.828125 0.78125 -2.265625 0.78125l-4.859375 0zm4.53125 -6.046875q0.90625 0 1.359375 -0.484375q0.46875 -0.5 0.46875 -1.234375q0 -0.71875 -0.46875 -1.21875q-0.453125 -0.5 -1.359375 -0.5l-3.203125 0l0 3.4375l3.203125 0zm0.0625 4.859375q0.9375 0 1.453125 -0.484375q0.53125 -0.484375 0.53125 -1.359375q0 -0.8125 -0.546875 -1.3125q-0.546875 -0.515625 -1.4375 -0.515625l-3.265625 0l0 3.671875l3.265625 0zm8.798401 1.375q-1.6875 0 -2.765625 -1.140625q-1.0625 -1.140625 -1.0625 -2.921875q0 -1.78125 1.0625 -2.90625q1.078125 -1.140625 2.765625 -1.140625q1.671875 0 2.75 1.140625q1.078125 1.125 1.078125 2.90625q0 1.78125 -1.078125 2.921875q-1.078125 1.140625 -2.75 1.140625zm0 -1.0625q1.125 0 1.84375 -0.84375q0.71875 -0.84375 0.71875 -2.15625q0 -1.296875 -0.71875 -2.125q-0.71875 -0.84375 -1.84375 -0.84375q-1.125 0 -1.859375 0.828125q-0.71875 0.828125 -0.71875 2.140625q0 1.328125 0.71875 2.171875q0.71875 0.828125 1.859375 0.828125zm10.777023 0.875l-2.3125 -3.171875l-2.328125 3.171875l-1.375 0l2.96875 -3.96875l-2.796875 -3.765625l1.390625 0l2.140625 2.953125l2.140625 -2.953125l1.390625 0l-2.796875 3.765625l2.96875 3.96875l-1.390625 0zm9.341522 0.1875q-1.953125 0 -3.109375 -1.21875l0.625 -0.859375q0.375 0.453125 1.046875 0.78125q0.6875 0.328125 1.5 0.328125q0.890625 0 1.34375 -0.375q0.46875 -0.375 0.46875 -0.953125q0 -0.515625 -0.5 -0.8125q-0.5 -0.296875 -1.875 -0.609375q-1.171875 -0.25 -1.796875 -0.765625q-0.609375 -0.515625 -0.609375 -1.40625q0 -0.96875 0.78125 -1.59375q0.78125 -0.625 2.09375 -0.625q1.75 0 2.875 1.125l-0.5625 0.828125q-0.359375 -0.421875 -0.953125 -0.6875q-0.59375 -0.28125 -1.359375 -0.28125q-0.796875 0 -1.25 0.359375q-0.453125 0.34375 -0.453125 0.84375q0 0.46875 0.5 0.75q0.515625 0.265625 1.890625 0.546875q1.171875 0.28125 1.78125 0.828125q0.609375 0.546875 0.609375 1.46875q0 1.0625 -0.828125 1.703125q-0.828125 0.625 -2.21875 0.625zm5.5962677 -9.015625q-0.328125 0 -0.578125 -0.234375q-0.234375 -0.234375 -0.234375 -0.5625q0 -0.34375 0.234375 -0.578125q0.25 -0.25 0.578125 -0.25q0.328125 0 0.5625 0.25q0.25 0.234375 0.25 0.578125q0 0.328125 -0.25 0.5625q-0.234375 0.234375 -0.5625 0.234375zm-0.59375 8.828125l0 -7.734375l1.203125 0l0 7.734375l-1.203125 0zm5.553131 0.1875q-1.71875 0 -1.71875 -1.796875l0 -5.0625l-1.28125 0l0 -1.0625l1.28125 0l0 -2.109375l1.203125 0l0 2.109375l1.5625 0l0 1.0625l-1.5625 0l0 4.796875q0 0.4375 0.1875 0.71875q0.203125 0.28125 0.59375 0.28125q0.5 0 0.8125 -0.328125l0.359375 0.90625q-0.5 0.484375 -1.4375 0.484375zm4.70401 0q-1.71875 0 -1.71875 -1.796875l0 -5.0625l-1.28125 0l0 -1.0625l1.28125 0l0 -2.109375l1.203125 0l0 2.109375l1.5625 0l0 1.0625l-1.5625 0l0 4.796875q0 0.4375 0.1875 0.71875q0.203125 0.28125 0.59375 0.28125q0.5 0 0.8125 -0.328125l0.359375 0.90625q-0.5 0.484375 -1.4375 0.484375zm3.344635 -9.015625q-0.328125 0 -0.578125 -0.234375q-0.234375 -0.234375 -0.234375 -0.5625q0 -0.34375 0.234375 -0.578125q0.25 -0.25 0.578125 -0.25q0.328125 0 0.5625 0.25q0.25 0.234375 0.25 0.578125q0 0.328125 -0.25 0.5625q-0.234375 0.234375 -0.5625 0.234375zm-0.59375 8.828125l0 -7.734375l1.203125 0l0 7.734375l-1.203125 0zm8.818764 0l0 -5.0625q0 -1.015625 -0.484375 -1.390625q-0.46875 -0.390625 -1.25 -0.390625q-0.671875 0 -1.3281326 0.359375q-0.640625 0.359375 -0.953125 0.84375l0 5.640625l-1.203125 0l0 -7.734375l1.203125 0l0 1.125q0.484375 -0.578125 1.2187576 -0.9375q0.734375 -0.375 1.53125 -0.375q2.453125 0 2.453125 2.5l0 5.421875l-1.1875 0zm6.691025 3.140625q-0.984375 0 -1.703125 -0.25q-0.71875 -0.234375 -1.40625 -0.90625l0.609375 -0.890625q0.46875 0.5625 1.0625 0.796875q0.609375 0.25 1.4375 0.25q1.1875 0 1.828125 -0.625q0.65625 -0.609375 0.65625 -1.6875l0 -1.109375q-0.40625 0.59375 -1.09375 0.984375q-0.671875 0.390625 -1.5 0.390625q-1.5625 0 -2.5 -1.09375q-0.9375 -1.109375 -0.9375 -2.90625q0 -1.859375 0.953125 -2.9375q0.953125 -1.078125 2.484375 -1.078125q1.609375 0 2.59375 1.359375l0 -1.171875l1.203125 0l0 7.515625q0 1.625 -0.96875 2.484375q-0.953125 0.875 -2.71875 0.875zm0.1875 -4.09375q0.65625 0 1.296875 -0.34375q0.65625 -0.359375 1.0 -0.921875l0 -3.375q-0.34375 -0.5625 -1.0 -0.90625q-0.65625 -0.34375 -1.296875 -0.34375q-1.140625 0 -1.8125 0.8125q-0.671875 0.8125 -0.671875 2.125q0 1.328125 0.6875 2.140625q0.6875 0.8125 1.796875 0.8125zm14.858902 0.953125l0 -0.875q-0.96875 1.0625 -2.5625 1.0625q-1.171875 0 -1.9375 -0.734375q-0.765625 -0.734375 -0.765625 -1.828125q0 -1.109375 0.75 -1.8125q0.765625 -0.71875 1.953125 -0.71875q1.671875 0 2.5625 1.046875l0 -1.390625q0 -0.78125 -0.5625 -1.203125q-0.546875 -0.421875 -1.390625 -0.421875q-1.359375 0 -2.359375 1.0625l-0.5625 -0.828125q1.234375 -1.28125 3.078125 -1.28125q1.421875 0 2.203125 0.6875q0.796875 0.6875 0.796875 1.921875l0 5.3125l-1.203125 0zm-2.125 -0.671875q1.421875 0 2.125 -0.953125l0 -1.46875q-0.703125 -0.953125 -2.125 -0.953125q-0.84375 0 -1.375 0.46875q-0.53125 0.46875 -0.53125 1.21875q0 0.75 0.53125 1.21875q0.53125 0.46875 1.375 0.46875zm7.682022 0.859375q-1.71875 0 -1.71875 -1.796875l0 -5.0625l-1.28125 0l0 -1.0625l1.28125 0l0 -2.109375l1.203125 0l0 2.109375l1.5625 0l0 1.0625l-1.5625 0l0 4.796875q0 0.4375 0.1875 0.71875q0.203125 0.28125 0.59375 0.28125q0.5 0 0.8125 -0.328125l0.359375 0.90625q-0.5 0.484375 -1.4375 0.484375zm6.878891 -0.1875l0 -7.734375l1.203125 0l0 1.25q1.0625 -1.40625 2.5625 -1.40625l0 1.234375l-0.46875 -0.046875q-0.546875 0 -1.203125 0.390625q-0.65625 0.390625 -0.890625 0.84375l0 5.46875l-1.203125 0zm8.764389 0.1875q-1.75 0 -2.84375 -1.125q-1.09375 -1.140625 -1.09375 -2.9375q0 -1.703125 1.078125 -2.875q1.09375 -1.171875 2.734375 -1.171875q1.65625 0 2.671875 1.15625q1.03125 1.15625 1.03125 2.984375l0 0.3125l-6.25 0q0.0625 1.1875 0.84375 1.9375q0.796875 0.734375 1.9375 0.734375q1.40625 0 2.390625 -0.984375l0.578125 0.796875q-1.1875 1.171875 -3.078125 1.171875zm2.40625 -4.546875q0 -1.0625 -0.703125 -1.8125q-0.703125 -0.75 -1.84375 -0.75q-1.078125 0 -1.796875 0.75q-0.703125 0.75 -0.734375 1.8125l5.078125 0zm5.554886 4.546875q-1.953125 0 -3.109375 -1.21875l0.625 -0.859375q0.375 0.453125 1.046875 0.78125q0.6875 0.328125 1.5 0.328125q0.890625 0 1.34375 -0.375q0.46875 -0.375 0.46875 -0.953125q0 -0.515625 -0.5 -0.8125q-0.5 -0.296875 -1.875 -0.609375q-1.171875 -0.25 -1.796875 -0.765625q-0.609375 -0.515625 -0.609375 -1.40625q0 -0.96875 0.78125 -1.59375q0.78125 -0.625 2.09375 -0.625q1.75 0 2.875 1.125l-0.5625 0.828125q-0.359375 -0.421875 -0.953125 -0.6875q-0.59375 -0.28125 -1.359375 -0.28125q-0.796875 0 -1.25 0.359375q-0.453125 0.34375 -0.453125 0.84375q0 0.46875 0.5 0.75q0.515625 0.265625 1.890625 0.546875q1.171875 0.28125 1.78125 0.828125q0.609375 0.546875 0.609375 1.46875q0 1.0625 -0.828125 1.703125q-0.828125 0.625 -2.21875 0.625zm6.9556427 0q-1.71875 0 -1.71875 -1.796875l0 -5.0625l-1.28125 0l0 -1.0625l1.28125 0l0 -2.109375l1.203125 0l0 2.109375l1.5625 0l0 1.0625l-1.5625 0l0 4.796875q0 0.4375 0.1875 0.71875q0.203125 0.28125 0.59375 0.28125q0.5 0 0.8125 -0.328125l0.359375 0.90625q-0.5 0.484375 -1.4375 0.484375z" fill-rule="nonzero"></path></g></svg>

