<svg version="1.1" viewBox="0.0 0.0 367.68503937007875 265.9396325459318" fill="none" stroke="none" stroke-linecap="square" stroke-miterlimit="10" xmlns:xlink="http://www.w3.org/1999/xlink" xmlns="http://www.w3.org/2000/svg"><clipPath id="p.0"><path d="m0 0l367.68503 0l0 265.93964l-367.68503 0l0 -265.93964z" clip-rule="nonzero"/></clipPath><g clip-path="url(#p.0)"><path fill="#000000" fill-opacity="0.0" d="m0 0l367.68503 0l0 265.93964l-367.68503 0z" fill-rule="evenodd"/><defs><radialGradient id="p.1" gradientUnits="userSpaceOnUse" gradientTransform="matrix(13.45185973565622 0.0 0.0 13.45185973565622 0.0 0.0)" spreadMethod="pad" cx="9.673248373981266" cy="10.011609222712146" fx="9.673248373981266" fy="10.011609222712146" r="13.451859474182129"><stop offset="0.0" stop-color="#e69138"/><stop offset="0.54" stop-color="#fff2cc"/><stop offset="0.86" stop-color="#ffffff"/><stop offset="1.0" stop-color="#ffffff"/></radialGradient></defs><path fill="url(#p.1)" d="m2.1704245 134.67476l0 0c0 -70.66635 57.2864 -127.95275 127.95276 -127.95275l0 0c33.93518 0 66.48045 13.480698 90.47626 37.476494c23.995804 23.995796 37.476486 56.541084 37.476486 90.47626l0 0c0 70.66637 -57.286392 127.952774 -127.95274 127.952774l0 0c-70.66636 0 -127.95276 -57.286407 -127.95276 -127.952774z" fill-rule="evenodd"/><defs><radialGradient id="p.2" gradientUnits="userSpaceOnUse" gradientTransform="matrix(3.460379318145703 3.5173142611649957 -3.5173142611649957 3.460379318145703 0.0 0.0)" spreadMethod="pad" cx="37.16702103157411" cy="-3.404995591003108" fx="37.16702103157411" fy="-3.404995591003108" r="3.5173141956329346"><stop offset="0.0" stop-color="#bfbfbf"/><stop offset="1.0" stop-color="#737373"/></radialGradient></defs><path fill="url(#p.2)" d="m131.97426 110.18961l0 0c4.827057 -4.7487793 12.596848 -4.678276 17.354324 0.15747833l0 0c2.2846222 2.3222122 3.55484 5.4552155 3.5312195 8.709778c-0.023635864 3.25457 -1.3391571 6.364105 -3.657196 8.644554l0 0c-4.827057 4.7487717 -12.596863 4.678276 -17.35434 -0.15747833l0 0c-4.757469 -4.8357544 -4.701065 -12.605553 0.12599182 -17.354332z" fill-rule="evenodd"/><defs><radialGradient id="p.3" gradientUnits="userSpaceOnUse" gradientTransform="matrix(3.1016733141726984 0.0 0.0 3.1016733141726984 0.0 0.0)" spreadMethod="pad" cx="41.95283955036597" cy="23.868921837117867" fx="41.95283955036597" fy="23.868921837117867" r="3.1016733646392822"><stop offset="0.0" stop-color="#dbd4eb"/><stop offset="1.0" stop-color="#674ea7"/></radialGradient></defs><path fill="url(#p.3)" d="m123.32193 74.0336l0 0c0 -3.7573013 3.045395 -6.8032 6.8020782 -6.8032l0 0c1.8040161 0 3.5341492 0.71676636 4.809784 1.9926147c1.2756348 1.2758408 1.992279 3.0062637 1.992279 4.810585l0 0c0 3.7573013 -3.045395 6.803192 -6.802063 6.803192l0 0c-3.7566833 0 -6.8020782 -3.0458908 -6.8020782 -6.803192z" fill-rule="evenodd"/><defs><linearGradient id="p.4" gradientUnits="userSpaceOnUse" gradientTransform="matrix(0.9923272326275103 0.0 0.0 0.9923272326275103 0.0 0.0)" spreadMethod="pad" x1="127.5580891118196" y1="74.10985346948644" x2="127.5580891118196" y2="75.10218070211396"><stop offset="0.0" stop-color="#4d4d4d"/><stop offset="1.0" stop-color="#000000"/></linearGradient></defs><path fill="url(#p.4)" d="m126.57937 73.54125l7.0892715 0l0 0.9846878l-7.0892715 0z" fill-rule="evenodd"/><defs><radialGradient id="p.5" gradientUnits="userSpaceOnUse" gradientTransform="matrix(3.1016733141726984 0.0 0.0 3.1016733141726984 0.0 0.0)" spreadMethod="pad" cx="28.95637622833526" cy="54.35862390969565" fx="28.95637622833526" fy="54.35862390969565" r="3.1016733646392822"><stop offset="0.0" stop-color="#dbd4eb"/><stop offset="1.0" stop-color="#674ea7"/></radialGradient></defs><path fill="url(#p.5)" d="m83.01115 168.60269l0 0c0 -3.7572937 3.045395 -6.803192 6.8020706 -6.803192l0 0c1.8040237 0 3.5341568 0.71676636 4.8097916 1.9925995c1.2756348 1.2758484 1.992279 3.0062714 1.992279 4.8105927l0 0c0 3.757309 -3.0453873 6.803192 -6.8020706 6.803192l0 0c-3.7566757 0 -6.8020706 -3.0458832 -6.8020706 -6.803192z" fill-rule="evenodd"/><defs><linearGradient id="p.6" gradientUnits="userSpaceOnUse" gradientTransform="matrix(0.9923272326544037 0.0 0.0 0.9923272326544037 0.0 0.0)" spreadMethod="pad" x1="86.93562483190946" y1="169.41016300821136" x2="86.93561450001053" y2="170.40249024081197"><stop offset="0.0" stop-color="#4d4d4d"/><stop offset="1.0" stop-color="#000000"/></linearGradient></defs><path fill="url(#p.6)" d="m86.268585 168.11035l7.089264 0l0 0.9846802l-7.089264 0z" fill-rule="evenodd"/><defs><radialGradient id="p.7" gradientUnits="userSpaceOnUse" gradientTransform="matrix(3.1016733141726984 0.0 0.0 3.1016733141726984 0.0 0.0)" spreadMethod="pad" cx="59.27182911756896" cy="63.257077423290994" fx="59.27182911756896" fy="63.257077423290994" r="3.1016733646392822"><stop offset="0.0" stop-color="#dbd4eb"/><stop offset="1.0" stop-color="#674ea7"/></radialGradient></defs><path fill="url(#p.7)" d="m177.03978 196.20279l0 0c0 -3.757309 3.045395 -6.803192 6.8020782 -6.803192l0 0c1.8040161 0 3.5341492 0.7167511 4.809784 1.9925995c1.2756348 1.2758484 1.992279 3.0062714 1.992279 4.8105927l0 0c0 3.757309 -3.045395 6.803192 -6.802063 6.803192l0 0c-3.7566833 0 -6.8020782 -3.0458832 -6.8020782 -6.803192z" fill-rule="evenodd"/><defs><linearGradient id="p.8" gradientUnits="userSpaceOnUse" gradientTransform="matrix(0.9923220666645992 0.0 0.0 0.9923220666645992 0.0 0.0)" spreadMethod="pad" x1="181.6922238663964" y1="197.22470299042106" x2="181.6922238663964" y2="198.21702505708566"><stop offset="0.0" stop-color="#4d4d4d"/><stop offset="1.0" stop-color="#000000"/></linearGradient></defs><path fill="url(#p.8)" d="m180.29721 195.71045l7.089279 0l0 0.9846802l-7.089279 0z" fill-rule="evenodd"/><path fill="#000000" fill-opacity="0.0" d="m246.3727 -0.001312336l82.58269 0l0 44.692913l-82.58269 0z" fill-rule="evenodd"/><path fill="#000000" d="m256.7321 26.918686l0 -9.453125l0.984375 0q0.359375 0 0.453125 0.34375l0.125 1.03125q0.625 -0.6875 1.375 -1.09375q0.765625 -0.421875 1.765625 -0.421875q0.78125 0 1.359375 0.265625q0.59375 0.25 0.984375 0.71875q0.40625 0.46875 0.609375 1.140625q0.203125 0.65625 0.203125 1.453125l0 6.015625l-1.65625 0l0 -6.015625q0 -1.078125 -0.5 -1.671875q-0.484375 -0.59375 -1.484375 -0.59375q-0.734375 0 -1.375 0.359375q-0.640625 0.359375 -1.1875 0.96875l0 6.953125l-1.65625 0zm11.810364 -9.453125l0 6.03125q0 1.078125 0.484375 1.671875q0.5 0.578125 1.5 0.578125q0.734375 0 1.375 -0.34375q0.640625 -0.34375 1.1875 -0.96875l0 -6.96875l1.65625 0l0 9.453125l-0.984375 0q-0.359375 0 -0.453125 -0.34375l-0.125 -1.015625q-0.625 0.671875 -1.390625 1.09375q-0.765625 0.421875 -1.75 0.421875q-0.765625 0 -1.359375 -0.25q-0.59375 -0.265625 -1.0 -0.734375q-0.390625 -0.46875 -0.59375 -1.125q-0.203125 -0.671875 -0.203125 -1.46875l0 -6.03125l1.65625 0zm15.388519 1.6875q-0.078125 0.09375 -0.15625 0.15625q-0.078125 0.046875 -0.21875 0.046875q-0.140625 0 -0.296875 -0.109375q-0.15625 -0.109375 -0.421875 -0.25q-0.25 -0.140625 -0.609375 -0.25q-0.359375 -0.125 -0.875 -0.125q-0.6875 0 -1.21875 0.25q-0.53125 0.234375 -0.890625 0.703125q-0.359375 0.46875 -0.546875 1.140625q-0.1875 0.65625 -0.1875 1.46875q0 0.859375 0.203125 1.53125q0.203125 0.671875 0.546875 1.125q0.359375 0.453125 0.859375 0.6875q0.515625 0.234375 1.15625 0.234375q0.59375 0 0.984375 -0.140625q0.390625 -0.15625 0.65625 -0.328125q0.265625 -0.171875 0.421875 -0.3125q0.171875 -0.15625 0.34375 -0.15625q0.21875 0 0.3125 0.15625l0.46875 0.609375q-0.609375 0.765625 -1.53125 1.109375q-0.921875 0.34375 -1.953125 0.34375q-0.890625 0 -1.65625 -0.3125q-0.75 -0.328125 -1.3125 -0.953125q-0.5625 -0.625 -0.890625 -1.53125q-0.3125 -0.90625 -0.3125 -2.0625q0 -1.046875 0.296875 -1.9375q0.296875 -0.90625 0.859375 -1.546875q0.5625 -0.65625 1.390625 -1.015625q0.828125 -0.359375 1.90625 -0.359375q0.984375 0 1.75 0.328125q0.765625 0.3125 1.359375 0.890625l-0.4375 0.609375zm4.1030884 -5.96875l0 13.734375l-1.65625 0l0 -13.734375l1.65625 0zm6.682251 4.140625q0.84375 0 1.5625 0.28125q0.71875 0.28125 1.234375 0.828125q0.53125 0.53125 0.8125 1.328125q0.296875 0.78125 0.296875 1.78125q0 0.390625 -0.078125 0.53125q-0.078125 0.125 -0.3125 0.125l-6.296875 0q0.015625 0.890625 0.234375 1.5625q0.234375 0.65625 0.625 1.109375q0.390625 0.4375 0.9375 0.65625q0.546875 0.21875 1.203125 0.21875q0.625 0 1.078125 -0.140625q0.453125 -0.15625 0.78125 -0.3125q0.328125 -0.171875 0.546875 -0.3125q0.21875 -0.15625 0.375 -0.15625q0.21875 0 0.328125 0.15625l0.46875 0.609375q-0.3125 0.375 -0.75 0.65625q-0.421875 0.265625 -0.921875 0.453125q-0.484375 0.171875 -1.015625 0.25q-0.515625 0.09375 -1.015625 0.09375q-0.984375 0 -1.8125 -0.328125q-0.828125 -0.328125 -1.4375 -0.96875q-0.59375 -0.640625 -0.9375 -1.578125q-0.328125 -0.9375 -0.328125 -2.171875q0 -0.984375 0.296875 -1.84375q0.3125 -0.859375 0.875 -1.484375q0.578125 -0.625 1.390625 -0.984375q0.828125 -0.359375 1.859375 -0.359375zm0.03125 1.21875q-1.203125 0 -1.890625 0.703125q-0.6875 0.6875 -0.859375 1.921875l5.140625 0q0 -0.578125 -0.171875 -1.0625q-0.15625 -0.484375 -0.46875 -0.828125q-0.296875 -0.359375 -0.75 -0.546875q-0.4375 -0.1875 -1.0 -0.1875zm7.432129 -1.078125l0 6.03125q0 1.078125 0.484375 1.671875q0.5 0.578125 1.5 0.578125q0.734375 0 1.375 -0.34375q0.640625 -0.34375 1.1875 -0.96875l0 -6.96875l1.65625 0l0 9.453125l-0.984375 0q-0.359375 0 -0.453125 -0.34375l-0.125 -1.015625q-0.625 0.671875 -1.390625 1.09375q-0.765625 0.421875 -1.75 0.421875q-0.765625 0 -1.359375 -0.25q-0.59375 -0.265625 -1.0 -0.734375q-0.390625 -0.46875 -0.59375 -1.125q-0.203125 -0.671875 -0.203125 -1.46875l0 -6.03125l1.65625 0zm14.341614 1.5625q-0.109375 0.203125 -0.34375 0.203125q-0.140625 0 -0.3125 -0.09375q-0.171875 -0.109375 -0.4375 -0.234375q-0.25 -0.125 -0.609375 -0.234375q-0.359375 -0.109375 -0.84375 -0.109375q-0.40625 0 -0.75 0.109375q-0.328125 0.109375 -0.578125 0.296875q-0.234375 0.1875 -0.359375 0.4375q-0.125 0.234375 -0.125 0.53125q0 0.359375 0.203125 0.609375q0.21875 0.234375 0.5625 0.421875q0.34375 0.171875 0.78125 0.3125q0.4375 0.125 0.890625 0.28125q0.46875 0.15625 0.90625 0.34375q0.4375 0.1875 0.78125 0.46875q0.359375 0.28125 0.5625 0.6875q0.203125 0.40625 0.203125 0.96875q0 0.65625 -0.234375 1.21875q-0.21875 0.546875 -0.6875 0.953125q-0.453125 0.40625 -1.125 0.640625q-0.65625 0.234375 -1.515625 0.234375q-0.984375 0 -1.796875 -0.328125q-0.796875 -0.328125 -1.359375 -0.828125l0.390625 -0.625q0.078125 -0.125 0.171875 -0.1875q0.109375 -0.078125 0.28125 -0.078125q0.15625 0 0.34375 0.140625q0.1875 0.125 0.453125 0.28125q0.265625 0.15625 0.640625 0.296875q0.390625 0.125 0.953125 0.125q0.484375 0 0.84375 -0.125q0.375 -0.125 0.609375 -0.328125q0.25 -0.21875 0.359375 -0.5q0.125 -0.28125 0.125 -0.609375q0 -0.390625 -0.21875 -0.640625q-0.203125 -0.25 -0.546875 -0.4375q-0.34375 -0.1875 -0.796875 -0.3125q-0.4375 -0.140625 -0.90625 -0.28125q-0.453125 -0.15625 -0.90625 -0.34375q-0.4375 -0.203125 -0.78125 -0.484375q-0.34375 -0.296875 -0.5625 -0.71875q-0.203125 -0.421875 -0.203125 -1.03125q0 -0.53125 0.21875 -1.03125q0.234375 -0.5 0.65625 -0.875q0.4375 -0.390625 1.0625 -0.609375q0.625 -0.21875 1.421875 -0.21875q0.9375 0 1.671875 0.296875q0.75 0.28125 1.28125 0.796875l-0.375 0.609375z" fill-rule="nonzero"/><path fill="#000000" fill-opacity="0.0" d="m265.6929 219.00787l89.41733 0l0 44.6929l-89.41733 0z" fill-rule="evenodd"/><path fill="#000000" d="m279.80228 236.33412q0.84375 0 1.5625 0.28125q0.71875 0.28125 1.234375 0.828125q0.53125 0.53125 0.8125 1.328125q0.296875 0.78125 0.296875 1.78125q0 0.390625 -0.078125 0.53125q-0.078125 0.125 -0.3125 0.125l-6.296875 0q0.015625 0.890625 0.234375 1.5625q0.234375 0.65625 0.625 1.109375q0.390625 0.4375 0.9375 0.65625q0.546875 0.21875 1.203125 0.21875q0.625 0 1.078125 -0.140625q0.453125 -0.15625 0.78125 -0.3125q0.328125 -0.171875 0.546875 -0.3125q0.21875 -0.15625 0.375 -0.15625q0.21875 0 0.328125 0.15625l0.46875 0.609375q-0.3125 0.375 -0.75 0.65625q-0.421875 0.265625 -0.921875 0.453125q-0.484375 0.171875 -1.015625 0.25q-0.515625 0.09375 -1.015625 0.09375q-0.984375 0 -1.8125 -0.328125q-0.828125 -0.328125 -1.4375 -0.96875q-0.59375 -0.640625 -0.9375 -1.578125q-0.328125 -0.9375 -0.328125 -2.171875q0 -0.984375 0.296875 -1.84375q0.3125 -0.859375 0.875 -1.484375q0.578125 -0.625 1.390625 -0.984375q0.828125 -0.359375 1.859375 -0.359375zm0.03125 1.21875q-1.203125 0 -1.890625 0.703125q-0.6875 0.6875 -0.859375 1.921875l5.140625 0q0 -0.578125 -0.171875 -1.0625q-0.15625 -0.484375 -0.46875 -0.828125q-0.296875 -0.359375 -0.75 -0.546875q-0.4375 -0.1875 -1.0 -0.1875zm7.838379 -5.359375l0 13.734375l-1.65625 0l0 -13.734375l1.65625 0zm6.682251 4.140625q0.84375 0 1.5625 0.28125q0.71875 0.28125 1.234375 0.828125q0.53125 0.53125 0.8125 1.328125q0.296875 0.78125 0.296875 1.78125q0 0.390625 -0.078125 0.53125q-0.078125 0.125 -0.3125 0.125l-6.296875 0q0.015625 0.890625 0.234375 1.5625q0.234375 0.65625 0.625 1.109375q0.390625 0.4375 0.9375 0.65625q0.546875 0.21875 1.203125 0.21875q0.625 0 1.078125 -0.140625q0.453125 -0.15625 0.78125 -0.3125q0.328125 -0.171875 0.546875 -0.3125q0.21875 -0.15625 0.375 -0.15625q0.21875 0 0.328125 0.15625l0.46875 0.609375q-0.3125 0.375 -0.75 0.65625q-0.421875 0.265625 -0.921875 0.453125q-0.484375 0.171875 -1.015625 0.25q-0.515625 0.09375 -1.015625 0.09375q-0.984375 0 -1.8125 -0.328125q-0.828125 -0.328125 -1.4375 -0.96875q-0.59375 -0.640625 -0.9375 -1.578125q-0.328125 -0.9375 -0.328125 -2.171875q0 -0.984375 0.296875 -1.84375q0.3125 -0.859375 0.875 -1.484375q0.578125 -0.625 1.390625 -0.984375q0.828125 -0.359375 1.859375 -0.359375zm0.03125 1.21875q-1.203125 0 -1.890625 0.703125q-0.6875 0.6875 -0.859375 1.921875l5.140625 0q0 -0.578125 -0.171875 -1.0625q-0.15625 -0.484375 -0.46875 -0.828125q-0.296875 -0.359375 -0.75 -0.546875q-0.4375 -0.1875 -1.0 -0.1875zm12.447754 0.609375q-0.078125 0.09375 -0.15625 0.15625q-0.078125 0.046875 -0.21875 0.046875q-0.140625 0 -0.296875 -0.109375q-0.15625 -0.109375 -0.421875 -0.25q-0.25 -0.140625 -0.609375 -0.25q-0.359375 -0.125 -0.875 -0.125q-0.6875 0 -1.21875 0.25q-0.53125 0.234375 -0.890625 0.703125q-0.359375 0.46875 -0.546875 1.140625q-0.1875 0.65625 -0.1875 1.46875q0 0.859375 0.203125 1.53125q0.203125 0.671875 0.546875 1.125q0.359375 0.453125 0.859375 0.6875q0.515625 0.234375 1.15625 0.234375q0.59375 0 0.984375 -0.140625q0.390625 -0.15625 0.65625 -0.328125q0.265625 -0.171875 0.421875 -0.3125q0.171875 -0.15625 0.34375 -0.15625q0.21875 0 0.3125 0.15625l0.46875 0.609375q-0.609375 0.765625 -1.53125 1.109375q-0.921875 0.34375 -1.953125 0.34375q-0.890625 0 -1.65625 -0.3125q-0.75 -0.328125 -1.3125 -0.953125q-0.5625 -0.625 -0.890625 -1.53125q-0.3125 -0.90625 -0.3125 -2.0625q0 -1.046875 0.296875 -1.9375q0.296875 -0.90625 0.859375 -1.546875q0.5625 -0.65625 1.390625 -1.015625q0.828125 -0.359375 1.90625 -0.359375q0.984375 0 1.75 0.328125q0.765625 0.3125 1.359375 0.890625l-0.4375 0.609375zm5.1187134 7.921875q-1.109375 0 -1.71875 -0.625q-0.59375 -0.625 -0.59375 -1.8125l0 -5.78125l-1.140625 0q-0.15625 0 -0.265625 -0.078125q-0.09375 -0.09375 -0.09375 -0.28125l0 -0.65625l1.546875 -0.203125l0.390625 -2.921875q0.015625 -0.140625 0.109375 -0.21875q0.109375 -0.09375 0.265625 -0.09375l0.84375 0l0 3.25l2.703125 0l0 1.203125l-2.703125 0l0 5.671875q0 0.59375 0.28125 0.890625q0.296875 0.28125 0.75 0.28125q0.265625 0 0.453125 -0.0625q0.203125 -0.078125 0.328125 -0.15625q0.140625 -0.078125 0.234375 -0.140625q0.109375 -0.078125 0.1875 -0.078125q0.125 0 0.234375 0.15625l0.484375 0.796875q-0.4375 0.390625 -1.046875 0.625q-0.59375 0.234375 -1.25 0.234375zm4.0994263 -0.15625l0 -9.453125l0.953125 0q0.265625 0 0.375 0.109375q0.109375 0.09375 0.140625 0.34375l0.109375 1.484375q0.484375 -0.984375 1.1875 -1.546875q0.71875 -0.5625 1.6875 -0.5625q0.390625 0 0.703125 0.09375q0.328125 0.09375 0.59375 0.25l-0.21875 1.234375q-0.0625 0.234375 -0.28125 0.234375q-0.140625 0 -0.40625 -0.078125q-0.265625 -0.09375 -0.75 -0.09375q-0.875 0 -1.453125 0.5q-0.578125 0.5 -0.984375 1.46875l0 6.015625l-1.65625 0zm11.346588 -9.59375q1.03125 0 1.859375 0.34375q0.84375 0.34375 1.421875 0.984375q0.59375 0.625 0.90625 1.53125q0.3125 0.890625 0.3125 2.0q0 1.125 -0.3125 2.03125q-0.3125 0.890625 -0.90625 1.53125q-0.578125 0.625 -1.421875 0.96875q-0.828125 0.328125 -1.859375 0.328125q-1.03125 0 -1.875 -0.328125q-0.828125 -0.34375 -1.421875 -0.96875q-0.578125 -0.640625 -0.90625 -1.53125q-0.3125 -0.90625 -0.3125 -2.03125q0 -1.109375 0.3125 -2.0q0.328125 -0.90625 0.90625 -1.53125q0.59375 -0.640625 1.421875 -0.984375q0.84375 -0.34375 1.875 -0.34375zm0 8.421875q1.390625 0 2.078125 -0.9375q0.703125 -0.9375 0.703125 -2.609375q0 -1.6875 -0.703125 -2.625q-0.6875 -0.953125 -2.078125 -0.953125q-0.703125 0 -1.234375 0.25q-0.515625 0.234375 -0.875 0.703125q-0.34375 0.453125 -0.515625 1.125q-0.171875 0.65625 -0.171875 1.5q0 0.84375 0.171875 1.5q0.171875 0.65625 0.515625 1.109375q0.359375 0.453125 0.875 0.703125q0.53125 0.234375 1.234375 0.234375zm6.544739 1.171875l0 -9.453125l0.984375 0q0.359375 0 0.453125 0.34375l0.125 1.03125q0.625 -0.6875 1.375 -1.09375q0.765625 -0.421875 1.765625 -0.421875q0.78125 0 1.359375 0.265625q0.59375 0.25 0.984375 0.71875q0.40625 0.46875 0.609375 1.140625q0.203125 0.65625 0.203125 1.453125l0 6.015625l-1.65625 0l0 -6.015625q0 -1.078125 -0.5 -1.671875q-0.484375 -0.59375 -1.484375 -0.59375q-0.734375 0 -1.375 0.359375q-0.640625 0.359375 -1.1875 0.96875l0 6.953125l-1.65625 0z" fill-rule="nonzero"/><path fill="#000000" fill-opacity="0.0" d="m246.3727 22.345144l-87.96849 80.50394" fill-rule="evenodd"/><path stroke="#000000" stroke-width="1.0" stroke-linejoin="round" stroke-linecap="butt" d="m246.3727 22.345144l-83.54222 76.45325" fill-rule="evenodd"/><path fill="#000000" stroke="#000000" stroke-width="1.0" stroke-linecap="butt" d="m161.71536 97.57989l-2.2326965 4.282242l4.462921 -1.8452301z" fill-rule="evenodd"/><path fill="#000000" fill-opacity="0.0" d="m265.6929 241.35432l-77.03935 -40.34645" fill-rule="evenodd"/><path stroke="#674ea7" stroke-width="1.0" stroke-linejoin="round" stroke-linecap="butt" d="m265.6929 241.35432l-71.72415 -37.56282" fill-rule="evenodd"/><path fill="#674ea7" stroke="#674ea7" stroke-width="1.0" stroke-linecap="butt" d="m194.73505 202.3283l-4.7864532 -0.6421814l3.2538452 3.5686188z" fill-rule="evenodd"/><defs><radialGradient id="p.9" gradientUnits="userSpaceOnUse" gradientTransform="matrix(3.460379318145703 3.5173142611649957 -3.5173142611649957 3.460379318145703 0.0 0.0)" spreadMethod="pad" cx="35.21436436265086" cy="-0.7214244491918091" fx="35.21436436265086" fy="-0.7214244491918091" r="3.5173141956329346"><stop offset="0.0" stop-color="#b6d7a8"/><stop offset="1.0" stop-color="#38761d"/></radialGradient></defs><path fill="url(#p.9)" d="m115.77836 112.60768l0 0c4.827057 -4.7487793 12.596855 -4.678276 17.354332 0.15747833l0 0c2.2846222 2.3222122 3.55484 5.455208 3.5312042 8.709778c-0.023620605 3.25457 -1.3391571 6.364105 -3.6571808 8.644554l0 0c-4.827057 4.7487793 -12.596863 4.6782684 -17.35434 -0.15748596l0 0c-4.757477 -4.835747 -4.701065 -12.605545 0.12598419 -17.354324z" fill-rule="evenodd"/><defs><radialGradient id="p.10" gradientUnits="userSpaceOnUse" gradientTransform="matrix(3.460379318145703 3.5173142611649957 -3.5173142611649957 3.460379318145703 0.0 0.0)" spreadMethod="pad" cx="40.06636725101615" cy="1.158050052267792" fx="40.06636725101615" fy="1.158050052267792" r="3.5173141956329346"><stop offset="0.0" stop-color="#bfbfbf"/><stop offset="1.0" stop-color="#737373"/></radialGradient></defs><path fill="url(#p.10)" d="m125.95743 136.1774l0 0c4.827057 -4.7487793 12.596863 -4.6782837 17.35434 0.1574707l0 0c2.284607 2.3222198 3.5548248 5.4552155 3.5312042 8.709778c-0.023635864 3.2545776 -1.3391571 6.364105 -3.657196 8.644562l0 0c-4.827057 4.7487793 -12.596848 4.6782684 -17.354332 -0.15748596l0 0c-4.757477 -4.8357544 -4.7010727 -12.605545 0.12598419 -17.354324z" fill-rule="evenodd"/><defs><radialGradient id="p.11" gradientUnits="userSpaceOnUse" gradientTransform="matrix(3.460379318145703 3.5173142611649957 -3.5173142611649957 3.460379318145703 0.0 0.0)" spreadMethod="pad" cx="39.03846609459767" cy="-1.3652154303020043" fx="39.03846609459767" fy="-1.3652154303020043" r="3.5173141956329346"><stop offset="0.0" stop-color="#b6d7a8"/><stop offset="1.0" stop-color="#38761d"/></radialGradient></defs><path fill="url(#p.11)" d="m131.27562 123.83048l0 0c4.827057 -4.7487793 12.596848 -4.6782684 17.354324 0.15748596l0 0c2.2846222 2.3222046 3.55484 5.455208 3.5312195 8.70977c-0.023635864 3.2545776 -1.3391571 6.3641205 -3.657196 8.644562l0 0c-4.827057 4.7487793 -12.596863 4.6782684 -17.35434 -0.15748596l0 0c-4.757469 -4.8357544 -4.701065 -12.605545 0.12599182 -17.354332z" fill-rule="evenodd"/><path fill="#000000" d="m119.394066 120.835884l4.470688 0l0 -4.470688l1.0578918 0l0 4.470688l4.4706955 0l0 1.0578918l-4.4706955 0l0 4.470688l-1.0578918 0l0 -4.470688l-4.470688 0z" fill-rule="evenodd"/><path stroke="#000000" stroke-width="1.0" stroke-linejoin="round" stroke-linecap="butt" d="m119.394066 120.835884l4.470688 0l0 -4.470688l1.0578918 0l0 4.470688l4.4706955 0l0 1.0578918l-4.4706955 0l0 4.470688l-1.0578918 0l0 -4.470688l-4.470688 0z" fill-rule="evenodd"/><defs><radialGradient id="p.12" gradientUnits="userSpaceOnUse" gradientTransform="matrix(3.460379318145703 3.5173142611649957 -3.5173142611649957 3.460379318145703 0.0 0.0)" spreadMethod="pad" cx="34.57140936113421" cy="1.9075337682459952" fx="34.57140936113421" fy="1.9075337682459952" r="3.5173141956329346"><stop offset="0.0" stop-color="#bfbfbf"/><stop offset="1.0" stop-color="#737373"/></radialGradient></defs><path fill="url(#p.12)" d="m104.30662 119.4434l0 0c4.827057 -4.7487793 12.596855 -4.678276 17.354332 0.15747833l0 0c2.2846222 2.3222122 3.5548325 5.4552155 3.5312119 8.709778c-0.023628235 3.2545776 -1.3391571 6.364105 -3.657196 8.6445465l0 0c-4.827057 4.7487793 -12.596855 4.6782837 -17.354332 -0.1574707l0 0c-4.757477 -4.8357544 -4.701065 -12.605553 0.12598419 -17.354332z" fill-rule="evenodd"/><defs><radialGradient id="p.13" gradientUnits="userSpaceOnUse" gradientTransform="matrix(3.460379318145703 3.5173142611649957 -3.5173142611649957 3.460379318145703 0.0 0.0)" spreadMethod="pad" cx="37.02431130095992" cy="2.112159373436254" fx="37.02431130095992" fy="2.112159373436254" r="3.5173141956329346"><stop offset="0.0" stop-color="#b6d7a8"/><stop offset="1.0" stop-color="#38761d"/></radialGradient></defs><path fill="url(#p.13)" d="m112.07486 128.7791l0 0c4.827057 -4.7487717 12.596855 -4.6782684 17.354324 0.15748596l0 0c2.2846222 2.3222046 3.55484 5.4552155 3.5312195 8.709778c-0.023635864 3.2545776 -1.3391571 6.364105 -3.657196 8.6445465l0 0c-4.827057 4.7487793 -12.596855 4.6782837 -17.354332 -0.1574707l0 0c-4.757477 -4.8357544 -4.7010727 -12.60556 0.12598419 -17.35434z" fill-rule="evenodd"/><path fill="#000000" fill-opacity="0.0" d="m130.05315 96.284744l0 0c4.9227295 -5.688095 9.297455 -9.966461 9.77121 -9.555992l37.18199 32.214348c0.47375488 0.41046906 -3.132843 5.354332 -8.055557 11.042435z" fill-rule="evenodd"/><path fill="#000000" fill-opacity="0.0" d="m130.05315 96.284744l0 0c4.9227295 -5.688095 9.297455 -9.966461 9.77121 -9.555992l37.18199 32.214348c0.47375488 0.41046906 -3.132843 5.354332 -8.055557 11.042435" fill-rule="evenodd"/><path stroke="#000000" stroke-width="1.0" stroke-linejoin="round" stroke-linecap="butt" d="m130.05315 96.284744l0 0c4.9227295 -5.688095 9.297455 -9.966461 9.77121 -9.555992l37.18199 32.214348c0.47375488 0.41046906 -3.132843 5.354332 -8.055557 11.042435" fill-rule="evenodd"/><path fill="#000000" fill-opacity="0.0" d="m290.6273 121.85171l89.41733 0l0 44.69291l-89.41733 0z" fill-rule="evenodd"/><path fill="#000000" d="m300.98666 151.97482l0 -12.65625l0.984375 0q0.359375 0 0.453125 0.34375l0.140625 1.125q0.609375 -0.734375 1.390625 -1.1875q0.78125 -0.453125 1.796875 -0.453125q0.8125 0 1.46875 0.3125q0.65625 0.3125 1.125 0.9375q0.46875 0.609375 0.71875 1.515625q0.25 0.90625 0.25 2.078125q0 1.046875 -0.28125 1.953125q-0.28125 0.890625 -0.796875 1.546875q-0.515625 0.65625 -1.28125 1.03125q-0.765625 0.375 -1.71875 0.375q-0.875 0 -1.5 -0.28125q-0.609375 -0.296875 -1.09375 -0.828125l0 4.1875l-1.65625 0zm4.203125 -11.484375q-0.8125 0 -1.421875 0.375q-0.609375 0.375 -1.125 1.0625l0 4.5625q0.46875 0.625 1.015625 0.875q0.546875 0.25 1.21875 0.25q1.3125 0 2.015625 -0.9375q0.703125 -0.953125 0.703125 -2.6875q0 -0.921875 -0.15625 -1.578125q-0.15625 -0.671875 -0.46875 -1.09375q-0.3125 -0.421875 -0.765625 -0.625q-0.4375 -0.203125 -1.015625 -0.203125zm6.0951233 8.28125l0 -9.453125l0.953125 0q0.265625 0 0.375 0.109375q0.109375 0.09375 0.140625 0.34375l0.109375 1.484375q0.484375 -0.984375 1.1875 -1.546875q0.71875 -0.5625 1.6875 -0.5625q0.390625 0 0.703125 0.09375q0.328125 0.09375 0.59375 0.25l-0.21875 1.234375q-0.0625 0.234375 -0.28125 0.234375q-0.140625 0 -0.40625 -0.078125q-0.265625 -0.09375 -0.75 -0.09375q-0.875 0 -1.453125 0.5q-0.578125 0.5 -0.984375 1.46875l0 6.015625l-1.65625 0zm11.346588 -9.59375q1.03125 0 1.859375 0.34375q0.84375 0.34375 1.421875 0.984375q0.59375 0.625 0.90625 1.53125q0.3125 0.890625 0.3125 2.0q0 1.125 -0.3125 2.03125q-0.3125 0.890625 -0.90625 1.53125q-0.578125 0.625 -1.421875 0.96875q-0.828125 0.328125 -1.859375 0.328125q-1.03125 0 -1.875 -0.328125q-0.828125 -0.34375 -1.421875 -0.96875q-0.578125 -0.640625 -0.90625 -1.53125q-0.3125 -0.90625 -0.3125 -2.03125q0 -1.109375 0.3125 -2.0q0.328125 -0.90625 0.90625 -1.53125q0.59375 -0.640625 1.421875 -0.984375q0.84375 -0.34375 1.875 -0.34375zm0 8.421875q1.390625 0 2.078125 -0.9375q0.703125 -0.9375 0.703125 -2.609375q0 -1.6875 -0.703125 -2.625q-0.6875 -0.953125 -2.078125 -0.953125q-0.703125 0 -1.234375 0.25q-0.515625 0.234375 -0.875 0.703125q-0.34375 0.453125 -0.515625 1.125q-0.171875 0.65625 -0.171875 1.5q0 0.84375 0.171875 1.5q0.171875 0.65625 0.515625 1.109375q0.359375 0.453125 0.875 0.703125q0.53125 0.234375 1.234375 0.234375zm9.404144 1.328125q-1.109375 0 -1.71875 -0.625q-0.59375 -0.625 -0.59375 -1.8125l0 -5.78125l-1.140625 0q-0.15625 0 -0.265625 -0.078125q-0.09375 -0.09375 -0.09375 -0.28125l0 -0.65625l1.546875 -0.203125l0.390625 -2.921875q0.015625 -0.140625 0.109375 -0.21875q0.109375 -0.09375 0.265625 -0.09375l0.84375 0l0 3.25l2.703125 0l0 1.203125l-2.703125 0l0 5.671875q0 0.59375 0.28125 0.890625q0.296875 0.28125 0.75 0.28125q0.265625 0 0.453125 -0.0625q0.203125 -0.078125 0.328125 -0.15625q0.140625 -0.078125 0.234375 -0.140625q0.109375 -0.078125 0.1875 -0.078125q0.125 0 0.234375 0.15625l0.484375 0.796875q-0.4375 0.390625 -1.046875 0.625q-0.59375 0.234375 -1.25 0.234375zm7.9275208 -9.75q1.03125 0 1.859375 0.34375q0.84375 0.34375 1.421875 0.984375q0.59375 0.625 0.90625 1.53125q0.3125 0.890625 0.3125 2.0q0 1.125 -0.3125 2.03125q-0.3125 0.890625 -0.90625 1.53125q-0.578125 0.625 -1.421875 0.96875q-0.828125 0.328125 -1.859375 0.328125q-1.03125 0 -1.875 -0.328125q-0.828125 -0.34375 -1.421875 -0.96875q-0.578125 -0.640625 -0.90625 -1.53125q-0.3125 -0.90625 -0.3125 -2.03125q0 -1.109375 0.3125 -2.0q0.328125 -0.90625 0.90625 -1.53125q0.59375 -0.640625 1.421875 -0.984375q0.84375 -0.34375 1.875 -0.34375zm0 8.421875q1.390625 0 2.078125 -0.9375q0.703125 -0.9375 0.703125 -2.609375q0 -1.6875 -0.703125 -2.625q-0.6875 -0.953125 -2.078125 -0.953125q-0.703125 0 -1.234375 0.25q-0.515625 0.234375 -0.875 0.703125q-0.34375 0.453125 -0.515625 1.125q-0.171875 0.65625 -0.171875 1.5q0 0.84375 0.171875 1.5q0.171875 0.65625 0.515625 1.109375q0.359375 0.453125 0.875 0.703125q0.53125 0.234375 1.234375 0.234375zm6.5447693 1.171875l0 -9.453125l0.984375 0q0.359375 0 0.453125 0.34375l0.125 1.03125q0.625 -0.6875 1.375 -1.09375q0.765625 -0.421875 1.765625 -0.421875q0.78125 0 1.359375 0.265625q0.59375 0.25 0.984375 0.71875q0.40625 0.46875 0.609375 1.140625q0.203125 0.65625 0.203125 1.453125l0 6.015625l-1.65625 0l0 -6.015625q0 -1.078125 -0.5 -1.671875q-0.484375 -0.59375 -1.484375 -0.59375q-0.734375 0 -1.375 0.359375q-0.640625 0.359375 -1.1875 0.96875l0 6.953125l-1.65625 0z" fill-rule="nonzero"/><path fill="#000000" fill-opacity="0.0" d="m284.95013 171.34616l89.41733 0l0 44.692917l-89.41733 0z" fill-rule="evenodd"/><path fill="#000000" d="m295.3095 198.26616l0 -9.453125l0.984375 0q0.359375 0 0.453125 0.34375l0.125 1.03125q0.625 -0.6875 1.375 -1.09375q0.765625 -0.421875 1.765625 -0.421875q0.78125 0 1.359375 0.265625q0.59375 0.25 0.984375 0.71875q0.40625 0.46875 0.609375 1.140625q0.203125 0.65625 0.203125 1.453125l0 6.015625l-1.65625 0l0 -6.015625q0 -1.078125 -0.5 -1.671875q-0.484375 -0.59375 -1.484375 -0.59375q-0.734375 0 -1.375 0.359375q-0.640625 0.359375 -1.1875 0.96875l0 6.953125l-1.65625 0zm14.122864 -9.59375q0.84375 0 1.5625 0.28125q0.71875 0.28125 1.234375 0.828125q0.53125 0.53125 0.8125 1.328125q0.296875 0.78125 0.296875 1.78125q0 0.390625 -0.078125 0.53125q-0.078125 0.125 -0.3125 0.125l-6.296875 0q0.015625 0.890625 0.234375 1.5625q0.234375 0.65625 0.625 1.109375q0.390625 0.4375 0.9375 0.65625q0.546875 0.21875 1.203125 0.21875q0.625 0 1.078125 -0.140625q0.453125 -0.15625 0.78125 -0.3125q0.328125 -0.171875 0.546875 -0.3125q0.21875 -0.15625 0.375 -0.15625q0.21875 0 0.328125 0.15625l0.46875 0.609375q-0.3125 0.375 -0.75 0.65625q-0.421875 0.265625 -0.921875 0.453125q-0.484375 0.171875 -1.015625 0.25q-0.515625 0.09375 -1.015625 0.09375q-0.984375 0 -1.8125 -0.328125q-0.828125 -0.328125 -1.4375 -0.96875q-0.59375 -0.640625 -0.9375 -1.578125q-0.328125 -0.9375 -0.328125 -2.171875q0 -0.984375 0.296875 -1.84375q0.3125 -0.859375 0.875 -1.484375q0.578125 -0.625 1.390625 -0.984375q0.828125 -0.359375 1.859375 -0.359375zm0.03125 1.21875q-1.203125 0 -1.890625 0.703125q-0.6875 0.6875 -0.859375 1.921875l5.140625 0q0 -0.578125 -0.171875 -1.0625q-0.15625 -0.484375 -0.46875 -0.828125q-0.296875 -0.359375 -0.75 -0.546875q-0.4375 -0.1875 -1.0 -0.1875zm7.432129 -1.078125l0 6.03125q0 1.078125 0.484375 1.671875q0.5 0.578125 1.5 0.578125q0.734375 0 1.375 -0.34375q0.640625 -0.34375 1.1875 -0.96875l0 -6.96875l1.65625 0l0 9.453125l-0.984375 0q-0.359375 0 -0.453125 -0.34375l-0.125 -1.015625q-0.625 0.671875 -1.390625 1.09375q-0.765625 0.421875 -1.75 0.421875q-0.765625 0 -1.359375 -0.25q-0.59375 -0.265625 -1.0 -0.734375q-0.390625 -0.46875 -0.59375 -1.125q-0.203125 -0.671875 -0.203125 -1.46875l0 -6.03125l1.65625 0zm11.794769 9.609375q-1.109375 0 -1.71875 -0.625q-0.59375 -0.625 -0.59375 -1.8125l0 -5.78125l-1.140625 0q-0.15625 0 -0.265625 -0.078125q-0.09375 -0.09375 -0.09375 -0.28125l0 -0.65625l1.546875 -0.203125l0.390625 -2.921875q0.015625 -0.140625 0.109375 -0.21875q0.109375 -0.09375 0.265625 -0.09375l0.84375 0l0 3.25l2.703125 0l0 1.203125l-2.703125 0l0 5.671875q0 0.59375 0.28125 0.890625q0.296875 0.28125 0.75 0.28125q0.265625 0 0.453125 -0.0625q0.203125 -0.078125 0.328125 -0.15625q0.140625 -0.078125 0.234375 -0.140625q0.109375 -0.078125 0.1875 -0.078125q0.125 0 0.234375 0.15625l0.484375 0.796875q-0.4375 0.390625 -1.046875 0.625q-0.59375 0.234375 -1.25 0.234375zm4.0993958 -0.15625l0 -9.453125l0.953125 0q0.265625 0 0.375 0.109375q0.109375 0.09375 0.140625 0.34375l0.109375 1.484375q0.484375 -0.984375 1.1875 -1.546875q0.71875 -0.5625 1.6875 -0.5625q0.390625 0 0.703125 0.09375q0.328125 0.09375 0.59375 0.25l-0.21875 1.234375q-0.0625 0.234375 -0.28125 0.234375q-0.140625 0 -0.40625 -0.078125q-0.265625 -0.09375 -0.75 -0.09375q-0.875 0 -1.453125 0.5q-0.578125 0.5 -0.984375 1.46875l0 6.015625l-1.65625 0zm11.346588 -9.59375q1.03125 0 1.859375 0.34375q0.84375 0.34375 1.421875 0.984375q0.59375 0.625 0.90625 1.53125q0.3125 0.890625 0.3125 2.0q0 1.125 -0.3125 2.03125q-0.3125 0.890625 -0.90625 1.53125q-0.578125 0.625 -1.421875 0.96875q-0.828125 0.328125 -1.859375 0.328125q-1.03125 0 -1.875 -0.328125q-0.828125 -0.34375 -1.421875 -0.96875q-0.578125 -0.640625 -0.90625 -1.53125q-0.3125 -0.90625 -0.3125 -2.03125q0 -1.109375 0.3125 -2.0q0.328125 -0.90625 0.90625 -1.53125q0.59375 -0.640625 1.421875 -0.984375q0.84375 -0.34375 1.875 -0.34375zm0 8.421875q1.390625 0 2.078125 -0.9375q0.703125 -0.9375 0.703125 -2.609375q0 -1.6875 -0.703125 -2.625q-0.6875 -0.953125 -2.078125 -0.953125q-0.703125 0 -1.234375 0.25q-0.515625 0.234375 -0.875 0.703125q-0.34375 0.453125 -0.515625 1.125q-0.171875 0.65625 -0.171875 1.5q0 0.84375 0.171875 1.5q0.171875 0.65625 0.515625 1.109375q0.359375 0.453125 0.875 0.703125q0.53125 0.234375 1.234375 0.234375zm6.5447693 1.171875l0 -9.453125l0.984375 0q0.359375 0 0.453125 0.34375l0.125 1.03125q0.625 -0.6875 1.375 -1.09375q0.765625 -0.421875 1.765625 -0.421875q0.78125 0 1.359375 0.265625q0.59375 0.25 0.984375 0.71875q0.40625 0.46875 0.609375 1.140625q0.203125 0.65625 0.203125 1.453125l0 6.015625l-1.65625 0l0 -6.015625q0 -1.078125 -0.5 -1.671875q-0.484375 -0.59375 -1.484375 -0.59375q-0.734375 0 -1.375 0.359375q-0.640625 0.359375 -1.1875 0.96875l0 6.953125l-1.65625 0z" fill-rule="nonzero"/><path fill="#000000" fill-opacity="0.0" d="m290.6273 144.19817l-138.45668 -11.496063" fill-rule="evenodd"/><path stroke="#6aa84f" stroke-width="1.0" stroke-linejoin="round" stroke-linecap="butt" d="m290.6273 144.19817l-132.47726 -10.999588" fill-rule="evenodd"/><path fill="#6aa84f" stroke="#6aa84f" stroke-width="1.0" stroke-linecap="butt" d="m158.2867 131.5525l-4.65921 1.2705536l4.3858643 2.021576z" fill-rule="evenodd"/><path fill="#000000" fill-opacity="0.0" d="m284.95013 193.69263l-141.76378 -40.0" fill-rule="evenodd"/><path stroke="#666666" stroke-width="1.0" stroke-linejoin="round" stroke-linecap="butt" d="m284.95013 193.69263l-135.98924 -38.370667" fill-rule="evenodd"/><path fill="#666666" stroke="#666666" stroke-width="1.0" stroke-linecap="butt" d="m149.40942 153.7323l-4.816101 0.35731506l3.9190216 2.8220215z" fill-rule="evenodd"/><path fill="#000000" d="m115.69065 137.00648l4.4706955 0l0 -4.470688l1.0578842 0l0 4.470688l4.4706955 0l0 1.0578918l-4.4706955 0l0 4.470688l-1.0578842 0l0 -4.470688l-4.4706955 0z" fill-rule="evenodd"/><path stroke="#000000" stroke-width="1.0" stroke-linejoin="round" stroke-linecap="butt" d="m115.69065 137.00648l4.4706955 0l0 -4.470688l1.0578842 0l0 4.470688l4.4706955 0l0 1.0578918l-4.4706955 0l0 4.470688l-1.0578842 0l0 -4.470688l-4.4706955 0z" fill-rule="evenodd"/><path fill="#000000" d="m134.83238 132.05635l4.470688 0l0 -4.47068l1.0578918 0l0 4.47068l4.470688 0l0 1.0578918l-4.470688 0l0 4.470688l-1.0578918 0l0 -4.470688l-4.470688 0z" fill-rule="evenodd"/><path stroke="#000000" stroke-width="1.0" stroke-linejoin="round" stroke-linecap="butt" d="m134.83238 132.05635l4.470688 0l0 -4.47068l1.0578918 0l0 4.47068l4.470688 0l0 1.0578918l-4.470688 0l0 4.470688l-1.0578918 0l0 -4.470688l-4.470688 0z" fill-rule="evenodd"/></g></svg>