<svg version="1.1" width="500" viewBox="0.0 0.0 491.4173228346457 289.7007874015748" fill="none" stroke="none" stroke-linecap="square" stroke-miterlimit="10" xmlns:xlink="http://www.w3.org/1999/xlink" xmlns="http://www.w3.org/2000/svg"><clipPath id="p.0"><path d="m0 0l491.41733 0l0 289.70078l-491.41733 0l0 -289.70078z" clip-rule="nonzero"/></clipPath><g clip-path="url(#p.0)"><path fill="#000000" fill-opacity="0.0" d="m0 0l491.41733 0l0 289.70078l-491.41733 0z" fill-rule="evenodd"/><path fill="#000000" fill-opacity="0.0" d="m2.7559056 124.07711l494.39368 0l0 54.92913l-494.39368 0z" fill-rule="evenodd"/><path fill="#0c7f99" d="m25.95903 157.69023q0.203125 0 0.359375 0.15625l0.90625 0.984375q-1.0625 1.234375 -2.5625 1.921875q-1.5 0.671875 -3.625 0.671875q-1.859375 0 -3.375 -0.640625q-1.515625 -0.640625 -2.59375 -1.796875q-1.0625 -1.15625 -1.65625 -2.765625q-0.578125 -1.625 -0.578125 -3.578125q0 -1.9375 0.625 -3.5625q0.640625 -1.625 1.78125 -2.78125q1.140625 -1.171875 2.71875 -1.8125q1.59375 -0.640625 3.515625 -0.640625q1.890625 0 3.265625 0.59375q1.375 0.578125 2.453125 1.59375l-0.765625 1.0625q-0.078125 0.125 -0.1875 0.203125q-0.109375 0.078125 -0.3125 0.078125q-0.15625 0 -0.328125 -0.109375q-0.171875 -0.125 -0.421875 -0.28125q-0.234375 -0.171875 -0.5625 -0.359375q-0.3125 -0.203125 -0.765625 -0.359375q-0.4375 -0.171875 -1.03125 -0.28125q-0.59375 -0.125 -1.359375 -0.125q-1.375 0 -2.53125 0.484375q-1.140625 0.46875 -1.96875 1.34375q-0.828125 0.875 -1.296875 2.140625q-0.453125 1.25 -0.453125 2.8125q0 1.609375 0.453125 2.875q0.46875 1.25 1.265625 2.125q0.796875 0.875 1.890625 1.328125q1.09375 0.453125 2.359375 0.453125q0.765625 0 1.375 -0.078125q0.609375 -0.09375 1.125 -0.28125q0.53125 -0.203125 0.984375 -0.5q0.453125 -0.296875 0.90625 -0.703125q0.203125 -0.171875 0.390625 -0.171875zm5.8307343 -8.609375l0 7.75q0 1.375 0.640625 2.140625q0.640625 0.75 1.921875 0.75q0.9375 0 1.765625 -0.4375q0.828125 -0.453125 1.515625 -1.234375l0 -8.96875l2.140625 0l0 12.15625l-1.265625 0q-0.453125 0 -0.578125 -0.4375l-0.171875 -1.3125q-0.796875 0.875 -1.78125 1.40625q-0.984375 0.53125 -2.25 0.53125q-1.0 0 -1.765625 -0.328125q-0.75 -0.328125 -1.265625 -0.921875q-0.515625 -0.609375 -0.78125 -1.453125q-0.25 -0.859375 -0.25 -1.890625l0 -7.75l2.125 0z" fill-rule="nonzero"/><path fill="#000000" d="m44.821365 155.94023q0 0.890625 0.078125 1.84375q0.09375 0.953125 0.25 1.921875q0.171875 0.953125 0.421875 1.875q0.25 0.921875 0.578125 1.734375q0.078125 0.171875 0.078125 0.328125q0 0.203125 -0.109375 0.328125q-0.109375 0.125 -0.265625 0.203125l-0.96875 0.546875q-0.5 -1.03125 -0.859375 -2.125q-0.34375 -1.09375 -0.578125 -2.1875q-0.21875 -1.109375 -0.328125 -2.1875q-0.109375 -1.09375 -0.109375 -2.078125q0 -1.6875 0.1875 -3.265625q0.1875 -1.59375 0.703125 -3.21875q0.515625 -1.625 1.390625 -3.34375q0.890625 -1.71875 2.296875 -3.671875l0.859375 0.5625q0.09375 0.0625 0.15625 0.171875q0.078125 0.09375 0.078125 0.25q0 0.1875 -0.171875 0.4375q-0.890625 1.375 -1.578125 2.734375q-0.671875 1.359375 -1.140625 2.796875q-0.46875 1.4375 -0.71875 3.015625q-0.25 1.5625 -0.25 3.328125zm12.014679 -4.921875q-0.09375 0.15625 -0.1875 0.21875q-0.09375 0.0625 -0.234375 0.0625q-0.171875 0 -0.375 -0.125q-0.1875 -0.140625 -0.484375 -0.296875q-0.28125 -0.171875 -0.6875 -0.296875q-0.40625 -0.140625 -0.984375 -0.140625q-0.53125 0 -0.984375 0.15625q-0.4375 0.140625 -0.765625 0.40625q-0.328125 0.265625 -0.5 0.625q-0.171875 0.34375 -0.171875 0.734375q0 0.578125 0.375 0.921875q0.375 0.328125 0.9375 0.578125q0.5625 0.234375 1.21875 0.46875q0.65625 0.21875 1.21875 0.578125q0.5625 0.34375 0.9375 0.890625q0.375 0.53125 0.375 1.390625q0 0.84375 -0.34375 1.609375q-0.328125 0.765625 -0.953125 1.359375q-0.609375 0.578125 -1.484375 0.921875q-0.859375 0.34375 -1.9375 0.34375q-1.171875 0 -2.0625 -0.40625q-0.890625 -0.421875 -1.453125 -1.0625l0.515625 -0.8125q0.109375 -0.15625 0.234375 -0.234375q0.140625 -0.09375 0.34375 -0.09375q0.1875 0 0.375 0.171875q0.1875 0.15625 0.46875 0.375q0.296875 0.203125 0.734375 0.375q0.4375 0.171875 1.109375 0.171875q0.59375 0 1.0625 -0.171875q0.484375 -0.1875 0.8125 -0.484375q0.328125 -0.3125 0.5 -0.703125q0.171875 -0.40625 0.171875 -0.859375q0 -0.609375 -0.375 -0.96875q-0.359375 -0.375 -0.9375 -0.609375q-0.5625 -0.234375 -1.21875 -0.4375q-0.640625 -0.21875 -1.203125 -0.546875q-0.5625 -0.328125 -0.9375 -0.859375q-0.359375 -0.53125 -0.359375 -1.40625q0 -0.765625 0.296875 -1.484375q0.3125 -0.71875 0.890625 -1.265625q0.578125 -0.546875 1.390625 -0.875q0.828125 -0.34375 1.859375 -0.34375q1.09375 0 1.921875 0.375q0.828125 0.359375 1.4375 0.984375l-0.546875 0.765625zm4.4141846 0.421875q0 -0.890625 -0.078125 -1.84375q-0.078125 -0.953125 -0.265625 -1.90625q-0.171875 -0.96875 -0.421875 -1.890625q-0.234375 -0.9375 -0.5625 -1.734375q-0.0625 -0.1875 -0.0625 -0.3125q0 -0.203125 0.09375 -0.3125q0.109375 -0.125 0.265625 -0.234375l0.984375 -0.5625q0.484375 1.046875 0.828125 2.140625q0.359375 1.09375 0.59375 2.203125q0.234375 1.09375 0.328125 2.1875q0.109375 1.078125 0.109375 2.078125q0 1.6875 -0.1875 3.28125q-0.1875 1.578125 -0.703125 3.203125q-0.5 1.609375 -1.390625 3.328125q-0.890625 1.71875 -2.296875 3.65625l-0.84375 -0.546875q-0.09375 -0.0625 -0.15625 -0.171875q-0.078125 -0.09375 -0.078125 -0.21875q0 -0.203125 0.171875 -0.46875q0.875 -1.375 1.5625 -2.765625q0.6875 -1.390625 1.15625 -2.859375q0.46875 -1.46875 0.703125 -3.015625q0.25 -1.5625 0.25 -3.234375z" fill-rule="nonzero"/><path fill="#000000" d="m81.20085 147.25273l0 5.109375l4.890625 0l0 1.625l-4.890625 0l0 5.15625l-1.75 0l0 -5.15625l-4.859375 0l0 -1.625l4.859375 0l0 -5.109375l1.75 0z" fill-rule="nonzero"/><path fill="#0c7f99" d="m112.8069 161.2371l-1.796875 0q-0.3125 0 -0.515625 -0.15625q-0.1875 -0.15625 -0.28125 -0.390625l-1.609375 -4.15625l-7.71875 0l-1.59375 4.15625q-0.09375 0.203125 -0.296875 0.375q-0.203125 0.171875 -0.5 0.171875l-1.796875 0l6.875 -17.203125l2.359375 0l6.875 17.203125zm-11.265625 -6.390625l6.421875 0l-2.703125 -6.984375q-0.265625 -0.65625 -0.515625 -1.625q-0.125 0.484375 -0.265625 0.90625q-0.125 0.40625 -0.234375 0.71875l-2.703125 6.984375zm17.195114 -5.96875q0.796875 0 1.484375 0.171875q0.6875 0.171875 1.25 0.515625l3.296875 0l0 0.78125q0 0.40625 -0.5 0.515625l-1.375 0.1875q0.40625 0.78125 0.40625 1.734375q0 0.890625 -0.34375 1.625q-0.34375 0.71875 -0.953125 1.234375q-0.59375 0.515625 -1.4375 0.796875q-0.828125 0.265625 -1.828125 0.265625q-0.859375 0 -1.609375 -0.203125q-0.375 0.25 -0.578125 0.53125q-0.203125 0.265625 -0.203125 0.53125q0 0.4375 0.34375 0.65625q0.359375 0.21875 0.921875 0.3125q0.578125 0.09375 1.3125 0.125q0.734375 0.015625 1.5 0.078125q0.765625 0.046875 1.484375 0.1875q0.734375 0.125 1.3125 0.4375q0.578125 0.296875 0.921875 0.828125q0.359375 0.515625 0.359375 1.359375q0 0.78125 -0.390625 1.515625q-0.390625 0.734375 -1.125 1.296875q-0.734375 0.578125 -1.796875 0.90625q-1.046875 0.34375 -2.375 0.34375q-1.34375 0 -2.34375 -0.265625q-1.0 -0.25 -1.65625 -0.703125q-0.65625 -0.4375 -1.0 -1.03125q-0.328125 -0.578125 -0.328125 -1.21875q0 -0.890625 0.5625 -1.515625q0.578125 -0.640625 1.578125 -1.015625q-0.515625 -0.234375 -0.828125 -0.625q-0.296875 -0.40625 -0.296875 -1.078125q0 -0.265625 0.09375 -0.546875q0.09375 -0.28125 0.296875 -0.5625q0.203125 -0.28125 0.484375 -0.53125q0.28125 -0.25 0.671875 -0.4375q-0.90625 -0.5 -1.421875 -1.328125q-0.5 -0.84375 -0.5 -1.96875q0 -0.890625 0.34375 -1.609375q0.34375 -0.71875 0.953125 -1.234375q0.609375 -0.515625 1.453125 -0.78125q0.859375 -0.28125 1.859375 -0.28125zm3.796875 13.015625q0 -0.453125 -0.265625 -0.71875q-0.25 -0.28125 -0.6875 -0.421875q-0.421875 -0.15625 -0.984375 -0.234375q-0.5625 -0.078125 -1.1875 -0.109375q-0.625 -0.03125 -1.28125 -0.0625q-0.640625 -0.03125 -1.21875 -0.125q-0.6875 0.3125 -1.125 0.78125q-0.421875 0.46875 -0.421875 1.125q0 0.40625 0.203125 0.75q0.21875 0.359375 0.640625 0.609375q0.4375 0.265625 1.09375 0.40625q0.65625 0.15625 1.546875 0.15625q0.859375 0 1.546875 -0.15625q0.6875 -0.140625 1.15625 -0.4375q0.46875 -0.28125 0.71875 -0.6875q0.265625 -0.390625 0.265625 -0.875zm-3.796875 -6.59375q0.640625 0 1.140625 -0.171875q0.5 -0.1875 0.828125 -0.515625q0.34375 -0.328125 0.515625 -0.765625q0.171875 -0.453125 0.171875 -1.0q0 -1.109375 -0.6875 -1.765625q-0.671875 -0.671875 -1.96875 -0.671875q-1.28125 0 -1.96875 0.671875q-0.671875 0.65625 -0.671875 1.765625q0 0.546875 0.171875 1.0q0.171875 0.4375 0.5 0.765625q0.34375 0.328125 0.828125 0.515625q0.5 0.171875 1.140625 0.171875z" fill-rule="nonzero"/><path fill="#0c7f99" d="m129.96922 158.64336q0.71875 0 1.34375 0.21875q0.640625 0.21875 1.09375 0.640625q0.46875 0.40625 0.734375 1.0q0.265625 0.578125 0.265625 1.328125q0 0.640625 -0.203125 1.1875q-0.1875 0.546875 -0.515625 1.046875q-0.328125 0.5 -0.75 0.96875q-0.421875 0.46875 -0.90625 0.953125l-3.015625 3.09375q0.3125 -0.09375 0.640625 -0.140625q0.328125 -0.0625 0.640625 -0.0625l3.828125 0q0.234375 0 0.375 0.140625q0.140625 0.140625 0.140625 0.359375l0 0.859375l-7.65625 0l0 -0.484375q0 -0.15625 0.0625 -0.3125q0.0625 -0.15625 0.203125 -0.296875l3.671875 -3.6875q0.453125 -0.46875 0.828125 -0.890625q0.375 -0.4375 0.640625 -0.859375q0.265625 -0.4375 0.40625 -0.875q0.15625 -0.453125 0.15625 -0.953125q0 -0.5 -0.171875 -0.875q-0.15625 -0.390625 -0.4375 -0.640625q-0.28125 -0.25 -0.65625 -0.375q-0.375 -0.125 -0.796875 -0.125q-0.4375 0 -0.8125 0.140625q-0.359375 0.125 -0.65625 0.359375q-0.28125 0.21875 -0.484375 0.53125q-0.1875 0.3125 -0.265625 0.6875q-0.0625 0.234375 -0.1875 0.34375q-0.125 0.09375 -0.34375 0.09375q-0.03125 0 -0.078125 0q-0.046875 0 -0.09375 -0.015625l-0.75 -0.125q0.109375 -0.78125 0.421875 -1.390625q0.328125 -0.609375 0.8125 -1.015625q0.5 -0.40625 1.140625 -0.609375q0.640625 -0.21875 1.375 -0.21875z" fill-rule="nonzero"/><path fill="#0c7f99" d="m145.32722 146.72148q-0.109375 0.1875 -0.234375 0.28125q-0.109375 0.09375 -0.296875 0.09375q-0.203125 0 -0.484375 -0.203125q-0.265625 -0.21875 -0.6875 -0.453125q-0.40625 -0.25 -0.984375 -0.453125q-0.578125 -0.203125 -1.40625 -0.203125q-0.78125 0 -1.390625 0.21875q-0.59375 0.203125 -1.0 0.5625q-0.390625 0.359375 -0.609375 0.84375q-0.203125 0.484375 -0.203125 1.046875q0 0.71875 0.359375 1.203125q0.359375 0.46875 0.9375 0.8125q0.578125 0.328125 1.3125 0.578125q0.75 0.234375 1.515625 0.5q0.78125 0.265625 1.515625 0.59375q0.734375 0.328125 1.3125 0.84375q0.59375 0.5 0.9375 1.234375q0.359375 0.734375 0.359375 1.796875q0 1.125 -0.390625 2.125q-0.375 0.984375 -1.125 1.71875q-0.734375 0.734375 -1.8125 1.15625q-1.0625 0.40625 -2.4375 0.40625q-1.65625 0 -3.03125 -0.59375q-1.375 -0.609375 -2.34375 -1.640625l0.671875 -1.109375q0.09375 -0.125 0.21875 -0.21875q0.140625 -0.09375 0.3125 -0.09375q0.25 0 0.578125 0.28125q0.328125 0.265625 0.8125 0.59375q0.484375 0.3125 1.171875 0.59375q0.6875 0.265625 1.6875 0.265625q0.828125 0 1.46875 -0.234375q0.65625 -0.234375 1.109375 -0.640625q0.453125 -0.421875 0.6875 -0.984375q0.234375 -0.578125 0.234375 -1.296875q0 -0.765625 -0.359375 -1.265625q-0.34375 -0.5 -0.921875 -0.828125q-0.578125 -0.34375 -1.3125 -0.578125q-0.734375 -0.234375 -1.515625 -0.484375q-0.765625 -0.25 -1.515625 -0.5625q-0.734375 -0.328125 -1.3125 -0.84375q-0.578125 -0.515625 -0.9375 -1.28125q-0.34375 -0.78125 -0.34375 -1.921875q0 -0.921875 0.34375 -1.765625q0.359375 -0.859375 1.03125 -1.515625q0.671875 -0.65625 1.65625 -1.046875q1.0 -0.40625 2.28125 -0.40625q1.453125 0 2.640625 0.46875q1.1875 0.453125 2.0625 1.3125l-0.5625 1.09375zm19.891968 5.921875q0 1.9375 -0.609375 3.546875q-0.609375 1.609375 -1.734375 2.78125q-1.109375 1.15625 -2.6875 1.8125q-1.5625 0.640625 -3.453125 0.640625q-1.890625 0 -3.453125 -0.640625q-1.5625 -0.65625 -2.6875 -1.8125q-1.109375 -1.171875 -1.71875 -2.78125q-0.609375 -1.609375 -0.609375 -3.546875q0 -1.9375 0.609375 -3.546875q0.609375 -1.609375 1.71875 -2.78125q1.125 -1.171875 2.6875 -1.8125q1.5625 -0.65625 3.453125 -0.65625q1.890625 0 3.453125 0.65625q1.578125 0.640625 2.6875 1.8125q1.125 1.171875 1.734375 2.78125q0.609375 1.609375 0.609375 3.546875zm-2.390625 0q0 -1.578125 -0.4375 -2.84375q-0.421875 -1.265625 -1.21875 -2.125q-0.796875 -0.875 -1.921875 -1.34375q-1.125 -0.46875 -2.515625 -0.46875q-1.375 0 -2.515625 0.46875q-1.125 0.46875 -1.921875 1.34375q-0.796875 0.859375 -1.234375 2.125q-0.421875 1.265625 -0.421875 2.84375q0 1.578125 0.421875 2.84375q0.4375 1.25 1.234375 2.125q0.796875 0.859375 1.921875 1.328125q1.140625 0.453125 2.515625 0.453125q1.390625 0 2.515625 -0.453125q1.125 -0.46875 1.921875 -1.328125q0.796875 -0.875 1.21875 -2.125q0.4375 -1.265625 0.4375 -2.84375z" fill-rule="nonzero"/><path fill="#0c7f99" d="m173.52757 166.09648l1.734375 0l0 0.828125q0 0.125 -0.078125 0.21875q-0.0625 0.078125 -0.234375 0.078125l-1.421875 0l0 3.015625l-1.25 0l0 -3.015625l-5.078125 0q-0.15625 0 -0.28125 -0.09375q-0.109375 -0.09375 -0.140625 -0.234375l-0.15625 -0.71875l5.578125 -7.40625l1.328125 0l0 7.328125zm-1.25 -4.71875q0 -0.21875 0 -0.453125q0.015625 -0.234375 0.0625 -0.5l-4.171875 5.671875l4.109375 0l0 -4.71875z" fill-rule="nonzero"/><path fill="#000000" d="m178.86995 155.94023q0 0.890625 0.078125 1.84375q0.09375 0.953125 0.25 1.921875q0.171875 0.953125 0.421875 1.875q0.25 0.921875 0.578125 1.734375q0.078125 0.171875 0.078125 0.328125q0 0.203125 -0.109375 0.328125q-0.109375 0.125 -0.265625 0.203125l-0.96875 0.546875q-0.5 -1.03125 -0.859375 -2.125q-0.34375 -1.09375 -0.578125 -2.1875q-0.21875 -1.109375 -0.328125 -2.1875q-0.109375 -1.09375 -0.109375 -2.078125q0 -1.6875 0.1875 -3.265625q0.1875 -1.59375 0.703125 -3.21875q0.515625 -1.625 1.390625 -3.34375q0.890625 -1.71875 2.296875 -3.671875l0.859375 0.5625q0.09375 0.0625 0.15625 0.171875q0.078125 0.09375 0.078125 0.25q0 0.1875 -0.171875 0.4375q-0.890625 1.375 -1.578125 2.734375q-0.671875 1.359375 -1.140625 2.796875q-0.46875 1.4375 -0.71875 3.015625q-0.25 1.5625 -0.25 3.328125zm12.767685 5.296875l-1.109375 0q-0.421875 0 -0.578125 -0.21875q-0.140625 -0.21875 -0.140625 -0.53125l0.21875 -2.453125q-0.4375 0.765625 -0.9375 1.390625q-0.5 0.625 -1.0625 1.0625q-0.546875 0.4375 -1.15625 0.6875q-0.609375 0.234375 -1.28125 0.234375q-0.71875 0 -1.3125 -0.28125q-0.578125 -0.28125 -1.0 -0.828125q-0.40625 -0.546875 -0.640625 -1.34375q-0.21875 -0.796875 -0.21875 -1.828125q0 -1.09375 0.265625 -2.109375q0.265625 -1.03125 0.765625 -1.9375q0.5 -0.921875 1.1875 -1.671875q0.703125 -0.765625 1.5625 -1.328125q0.859375 -0.5625 1.84375 -0.859375q0.984375 -0.3125 2.0625 -0.3125q0.78125 0 1.515625 0.125q0.75 0.125 1.46875 0.4375l-1.453125 11.765625zm-5.234375 -1.609375q0.578125 0 1.140625 -0.359375q0.578125 -0.375 1.078125 -1.015625q0.5 -0.65625 0.9375 -1.546875q0.4375 -0.890625 0.78125 -1.953125l0.515625 -4.1875q-0.265625 -0.0625 -0.53125 -0.078125q-0.25 -0.015625 -0.5 -0.015625q-0.71875 0 -1.390625 0.234375q-0.671875 0.234375 -1.265625 0.65625q-0.59375 0.421875 -1.078125 1.0q-0.46875 0.578125 -0.8125 1.28125q-0.34375 0.6875 -0.53125 1.484375q-0.1875 0.78125 -0.1875 1.609375q0 2.890625 1.84375 2.890625zm16.838837 5.71875l-1.34375 0q-0.390625 0 -0.546875 -0.21875q-0.15625 -0.21875 -0.15625 -0.515625q0 -0.03125 0.015625 -0.140625q0.015625 -0.09375 0.015625 -0.203125q0.015625 -0.09375 0.03125 -0.1875q0.015625 -0.078125 0.015625 -0.09375l0.703125 -5.65625q-0.421875 0.703125 -0.90625 1.28125q-0.46875 0.5625 -1.015625 0.96875q-0.53125 0.390625 -1.125 0.609375q-0.59375 0.21875 -1.21875 0.21875q-0.71875 0 -1.3125 -0.28125q-0.578125 -0.28125 -1.0 -0.828125q-0.40625 -0.546875 -0.640625 -1.34375q-0.21875 -0.796875 -0.21875 -1.828125q0 -1.09375 0.265625 -2.109375q0.265625 -1.03125 0.765625 -1.9375q0.5 -0.921875 1.1875 -1.671875q0.703125 -0.765625 1.5625 -1.328125q0.859375 -0.5625 1.84375 -0.859375q0.984375 -0.3125 2.0625 -0.3125q0.78125 0 1.515625 0.125q0.75 0.125 1.46875 0.4375l-1.96875 15.875zm-4.71875 -5.71875q0.578125 0 1.125 -0.359375q0.5625 -0.359375 1.0625 -0.984375q0.515625 -0.640625 0.9375 -1.515625q0.4375 -0.890625 0.765625 -1.9375l0.546875 -4.265625q-0.25 -0.0625 -0.515625 -0.078125q-0.25 -0.015625 -0.5 -0.015625q-0.71875 0 -1.390625 0.234375q-0.671875 0.234375 -1.265625 0.65625q-0.59375 0.421875 -1.078125 1.0q-0.46875 0.578125 -0.8125 1.28125q-0.34375 0.6875 -0.53125 1.484375q-0.1875 0.78125 -0.1875 1.609375q0 2.890625 1.84375 2.890625zm11.307587 -8.1875q0 -0.890625 -0.078125 -1.84375q-0.078125 -0.953125 -0.265625 -1.90625q-0.171875 -0.96875 -0.421875 -1.890625q-0.234375 -0.9375 -0.5625 -1.734375q-0.0625 -0.1875 -0.0625 -0.3125q0 -0.203125 0.09375 -0.3125q0.109375 -0.125 0.265625 -0.234375l0.984375 -0.5625q0.484375 1.046875 0.828125 2.140625q0.359375 1.09375 0.59375 2.203125q0.234375 1.09375 0.328125 2.1875q0.109375 1.078125 0.109375 2.078125q0 1.6875 -0.1875 3.28125q-0.1875 1.578125 -0.703125 3.203125q-0.5 1.609375 -1.390625 3.328125q-0.890625 1.71875 -2.296875 3.65625l-0.84375 -0.546875q-0.09375 -0.0625 -0.15625 -0.171875q-0.078125 -0.09375 -0.078125 -0.21875q0 -0.203125 0.171875 -0.46875q0.875 -1.375 1.5625 -2.765625q0.6875 -1.390625 1.15625 -2.859375q0.46875 -1.46875 0.703125 -3.015625q0.25 -1.5625 0.25 -3.234375z" fill-rule="nonzero"/><path fill="#000000" d="m248.86671 148.69023q1.90625 2.078125 3.296875 3.15625q1.390625 1.078125 2.625 1.609375l0 0.65625q-1.421875 0.6875 -2.765625 1.75q-1.328125 1.0625 -3.171875 3.125l-1.09375 0q1.34375 -2.875 2.8125 -4.421875l-22.84375 0l0 -1.453125l22.84375 0q-1.078125 -1.375 -1.515625 -2.046875q-0.421875 -0.6875 -1.265625 -2.375l1.078125 0z" fill-rule="nonzero"/><path fill="#bc2612" d="m277.04407 143.84648q1.078125 0 2.03125 0.328125q0.953125 0.328125 1.640625 0.953125q0.6875 0.609375 1.078125 1.5q0.40625 0.875 0.40625 2.015625q0 0.953125 -0.296875 1.765625q-0.28125 0.8125 -0.78125 1.5625q-0.484375 0.75 -1.125 1.453125q-0.640625 0.703125 -1.359375 1.4375l-4.53125 4.640625q0.484375 -0.140625 0.96875 -0.21875q0.5 -0.078125 0.953125 -0.078125l5.765625 0q0.34375 0 0.546875 0.203125q0.203125 0.203125 0.203125 0.53125l0 1.296875l-11.46875 0l0 -0.734375q0 -0.21875 0.078125 -0.453125q0.09375 -0.25 0.296875 -0.453125l5.515625 -5.53125q0.6875 -0.703125 1.25 -1.34375q0.5625 -0.640625 0.953125 -1.28125q0.40625 -0.65625 0.625 -1.3125q0.21875 -0.671875 0.21875 -1.4375q0 -0.75 -0.25 -1.3125q-0.234375 -0.578125 -0.65625 -0.953125q-0.40625 -0.375 -0.984375 -0.546875q-0.5625 -0.1875 -1.203125 -0.1875q-0.65625 0 -1.203125 0.1875q-0.546875 0.1875 -0.984375 0.53125q-0.421875 0.34375 -0.71875 0.8125q-0.28125 0.46875 -0.40625 1.03125q-0.09375 0.34375 -0.296875 0.5q-0.1875 0.15625 -0.5 0.15625q-0.0625 0 -0.125 0q-0.0625 -0.015625 -0.140625 -0.015625l-1.125 -0.203125q0.171875 -1.171875 0.640625 -2.078125q0.484375 -0.90625 1.21875 -1.515625q0.75 -0.609375 1.703125 -0.921875q0.953125 -0.328125 2.0625 -0.328125zm22.93573 17.390625l-1.796875 0q-0.3125 0 -0.515625 -0.15625q-0.1875 -0.15625 -0.28125 -0.390625l-1.609375 -4.15625l-7.71875 0l-1.59375 4.15625q-0.09375 0.203125 -0.296875 0.375q-0.203125 0.171875 -0.5 0.171875l-1.796875 0l6.875 -17.203125l2.359375 0l6.875 17.203125zm-11.265625 -6.390625l6.421875 0l-2.703125 -6.984375q-0.265625 -0.65625 -0.515625 -1.625q-0.125 0.484375 -0.265625 0.90625q-0.125 0.40625 -0.234375 0.71875l-2.703125 6.984375zm17.19513 -5.96875q0.796875 0 1.484375 0.171875q0.6875 0.171875 1.25 0.515625l3.296875 0l0 0.78125q0 0.40625 -0.5 0.515625l-1.375 0.1875q0.40625 0.78125 0.40625 1.734375q0 0.890625 -0.34375 1.625q-0.34375 0.71875 -0.953125 1.234375q-0.59375 0.515625 -1.4375 0.796875q-0.828125 0.265625 -1.828125 0.265625q-0.859375 0 -1.609375 -0.203125q-0.375 0.25 -0.578125 0.53125q-0.203125 0.265625 -0.203125 0.53125q0 0.4375 0.34375 0.65625q0.359375 0.21875 0.921875 0.3125q0.578125 0.09375 1.3125 0.125q0.734375 0.015625 1.5 0.078125q0.765625 0.046875 1.484375 0.1875q0.734375 0.125 1.3125 0.4375q0.578125 0.296875 0.921875 0.828125q0.359375 0.515625 0.359375 1.359375q0 0.78125 -0.390625 1.515625q-0.390625 0.734375 -1.125 1.296875q-0.734375 0.578125 -1.796875 0.90625q-1.046875 0.34375 -2.375 0.34375q-1.34375 0 -2.34375 -0.265625q-1.0 -0.25 -1.65625 -0.703125q-0.65625 -0.4375 -1.0 -1.03125q-0.328125 -0.578125 -0.328125 -1.21875q0 -0.890625 0.5625 -1.515625q0.578125 -0.640625 1.578125 -1.015625q-0.515625 -0.234375 -0.828125 -0.625q-0.296875 -0.40625 -0.296875 -1.078125q0 -0.265625 0.09375 -0.546875q0.09375 -0.28125 0.296875 -0.5625q0.203125 -0.28125 0.484375 -0.53125q0.28125 -0.25 0.671875 -0.4375q-0.90625 -0.5 -1.421875 -1.328125q-0.5 -0.84375 -0.5 -1.96875q0 -0.890625 0.34375 -1.609375q0.34375 -0.71875 0.953125 -1.234375q0.609375 -0.515625 1.453125 -0.78125q0.859375 -0.28125 1.859375 -0.28125zm3.796875 13.015625q0 -0.453125 -0.265625 -0.71875q-0.25 -0.28125 -0.6875 -0.421875q-0.421875 -0.15625 -0.984375 -0.234375q-0.5625 -0.078125 -1.1875 -0.109375q-0.625 -0.03125 -1.28125 -0.0625q-0.640625 -0.03125 -1.21875 -0.125q-0.6875 0.3125 -1.125 0.78125q-0.421875 0.46875 -0.421875 1.125q0 0.40625 0.203125 0.75q0.21875 0.359375 0.640625 0.609375q0.4375 0.265625 1.09375 0.40625q0.65625 0.15625 1.546875 0.15625q0.859375 0 1.546875 -0.15625q0.6875 -0.140625 1.15625 -0.4375q0.46875 -0.28125 0.71875 -0.6875q0.265625 -0.390625 0.265625 -0.875zm-3.796875 -6.59375q0.640625 0 1.140625 -0.171875q0.5 -0.1875 0.828125 -0.515625q0.34375 -0.328125 0.515625 -0.765625q0.171875 -0.453125 0.171875 -1.0q0 -1.109375 -0.6875 -1.765625q-0.671875 -0.671875 -1.96875 -0.671875q-1.28125 0 -1.96875 0.671875q-0.671875 0.65625 -0.671875 1.765625q0 0.546875 0.171875 1.0q0.171875 0.4375 0.5 0.765625q0.34375 0.328125 0.828125 0.515625q0.5 0.171875 1.140625 0.171875z" fill-rule="nonzero"/><path fill="#000000" d="m315.61087 155.94023q0 0.890625 0.078125 1.84375q0.09375 0.953125 0.25 1.921875q0.171875 0.953125 0.421875 1.875q0.25 0.921875 0.578125 1.734375q0.078125 0.171875 0.078125 0.328125q0 0.203125 -0.109375 0.328125q-0.109375 0.125 -0.265625 0.203125l-0.96875 0.546875q-0.5 -1.03125 -0.859375 -2.125q-0.34375 -1.09375 -0.578125 -2.1875q-0.21875 -1.109375 -0.328125 -2.1875q-0.109375 -1.09375 -0.109375 -2.078125q0 -1.6875 0.1875 -3.265625q0.1875 -1.59375 0.703125 -3.21875q0.515625 -1.625 1.390625 -3.34375q0.890625 -1.71875 2.296875 -3.671875l0.859375 0.5625q0.09375 0.0625 0.15625 0.171875q0.078125 0.09375 0.078125 0.25q0 0.1875 -0.171875 0.4375q-0.890625 1.375 -1.578125 2.734375q-0.671875 1.359375 -1.140625 2.796875q-0.46875 1.4375 -0.71875 3.015625q-0.25 1.5625 -0.25 3.328125zm12.014679 -4.921875q-0.09375 0.15625 -0.1875 0.21875q-0.09375 0.0625 -0.234375 0.0625q-0.171875 0 -0.375 -0.125q-0.1875 -0.140625 -0.484375 -0.296875q-0.28125 -0.171875 -0.6875 -0.296875q-0.40625 -0.140625 -0.984375 -0.140625q-0.53125 0 -0.984375 0.15625q-0.4375 0.140625 -0.765625 0.40625q-0.328125 0.265625 -0.5 0.625q-0.171875 0.34375 -0.171875 0.734375q0 0.578125 0.375 0.921875q0.375 0.328125 0.9375 0.578125q0.5625 0.234375 1.21875 0.46875q0.65625 0.21875 1.21875 0.578125q0.5625 0.34375 0.9375 0.890625q0.375 0.53125 0.375 1.390625q0 0.84375 -0.34375 1.609375q-0.328125 0.765625 -0.953125 1.359375q-0.609375 0.578125 -1.484375 0.921875q-0.859375 0.34375 -1.9375 0.34375q-1.171875 0 -2.0625 -0.40625q-0.890625 -0.421875 -1.453125 -1.0625l0.515625 -0.8125q0.109375 -0.15625 0.234375 -0.234375q0.140625 -0.09375 0.34375 -0.09375q0.1875 0 0.375 0.171875q0.1875 0.15625 0.46875 0.375q0.296875 0.203125 0.734375 0.375q0.4375 0.171875 1.109375 0.171875q0.59375 0 1.0625 -0.171875q0.484375 -0.1875 0.8125 -0.484375q0.328125 -0.3125 0.5 -0.703125q0.171875 -0.40625 0.171875 -0.859375q0 -0.609375 -0.375 -0.96875q-0.359375 -0.375 -0.9375 -0.609375q-0.5625 -0.234375 -1.21875 -0.4375q-0.640625 -0.21875 -1.203125 -0.546875q-0.5625 -0.328125 -0.9375 -0.859375q-0.359375 -0.53125 -0.359375 -1.40625q0 -0.765625 0.296875 -1.484375q0.3125 -0.71875 0.890625 -1.265625q0.578125 -0.546875 1.390625 -0.875q0.828125 -0.34375 1.859375 -0.34375q1.09375 0 1.921875 0.375q0.828125 0.359375 1.4375 0.984375l-0.546875 0.765625zm4.4141846 0.421875q0 -0.890625 -0.078125 -1.84375q-0.078125 -0.953125 -0.265625 -1.90625q-0.171875 -0.96875 -0.421875 -1.890625q-0.234375 -0.9375 -0.5625 -1.734375q-0.0625 -0.1875 -0.0625 -0.3125q0 -0.203125 0.09375 -0.3125q0.109375 -0.125 0.265625 -0.234375l0.984375 -0.5625q0.484375 1.046875 0.828125 2.140625q0.359375 1.09375 0.59375 2.203125q0.234375 1.09375 0.328125 2.1875q0.109375 1.078125 0.109375 2.078125q0 1.6875 -0.1875 3.28125q-0.1875 1.578125 -0.703125 3.203125q-0.5 1.609375 -1.390625 3.328125q-0.890625 1.71875 -2.296875 3.65625l-0.84375 -0.546875q-0.09375 -0.0625 -0.15625 -0.171875q-0.078125 -0.09375 -0.078125 -0.21875q0 -0.203125 0.171875 -0.46875q0.875 -1.375 1.5625 -2.765625q0.6875 -1.390625 1.15625 -2.859375q0.46875 -1.46875 0.703125 -3.015625q0.25 -1.5625 0.25 -3.234375z" fill-rule="nonzero"/><path fill="#000000" d="m351.99036 147.25273l0 5.109375l4.890625 0l0 1.625l-4.890625 0l0 5.15625l-1.75 0l0 -5.15625l-4.859375 0l0 -1.625l4.859375 0l0 -5.109375l1.75 0z" fill-rule="nonzero"/><path fill="#bc2612" d="m381.5652 157.69023q0.203125 0 0.359375 0.15625l0.90625 0.984375q-1.0625 1.234375 -2.5625 1.921875q-1.5 0.671875 -3.625 0.671875q-1.859375 0 -3.375 -0.640625q-1.515625 -0.640625 -2.59375 -1.796875q-1.0625 -1.15625 -1.65625 -2.765625q-0.578125 -1.625 -0.578125 -3.578125q0 -1.9375 0.625 -3.5625q0.640625 -1.625 1.78125 -2.78125q1.140625 -1.171875 2.71875 -1.8125q1.59375 -0.640625 3.515625 -0.640625q1.890625 0 3.265625 0.59375q1.375 0.578125 2.453125 1.59375l-0.765625 1.0625q-0.078125 0.125 -0.1875 0.203125q-0.109375 0.078125 -0.3125 0.078125q-0.15625 0 -0.328125 -0.109375q-0.171875 -0.125 -0.421875 -0.28125q-0.234375 -0.171875 -0.5625 -0.359375q-0.3125 -0.203125 -0.765625 -0.359375q-0.4375 -0.171875 -1.03125 -0.28125q-0.59375 -0.125 -1.359375 -0.125q-1.375 0 -2.53125 0.484375q-1.140625 0.46875 -1.96875 1.34375q-0.828125 0.875 -1.296875 2.140625q-0.453125 1.25 -0.453125 2.8125q0 1.609375 0.453125 2.875q0.46875 1.25 1.265625 2.125q0.796875 0.875 1.890625 1.328125q1.09375 0.453125 2.359375 0.453125q0.765625 0 1.375 -0.078125q0.609375 -0.09375 1.125 -0.28125q0.53125 -0.203125 0.984375 -0.5q0.453125 -0.296875 0.90625 -0.703125q0.203125 -0.171875 0.390625 -0.171875zm5.8307495 -8.609375l0 7.75q0 1.375 0.640625 2.140625q0.640625 0.75 1.921875 0.75q0.9375 0 1.765625 -0.4375q0.828125 -0.453125 1.515625 -1.234375l0 -8.96875l2.140625 0l0 12.15625l-1.265625 0q-0.453125 0 -0.578125 -0.4375l-0.171875 -1.3125q-0.796875 0.875 -1.78125 1.40625q-0.984375 0.53125 -2.25 0.53125q-1.0 0 -1.765625 -0.328125q-0.75 -0.328125 -1.265625 -0.921875q-0.515625 -0.609375 -0.78125 -1.453125q-0.25 -0.859375 -0.25 -1.890625l0 -7.75l2.125 0zm20.64096 -2.359375q-0.109375 0.1875 -0.234375 0.28125q-0.109375 0.09375 -0.296875 0.09375q-0.203125 0 -0.484375 -0.203125q-0.265625 -0.21875 -0.6875 -0.453125q-0.40625 -0.25 -0.984375 -0.453125q-0.578125 -0.203125 -1.40625 -0.203125q-0.78125 0 -1.390625 0.21875q-0.59375 0.203125 -1.0 0.5625q-0.390625 0.359375 -0.609375 0.84375q-0.203125 0.484375 -0.203125 1.046875q0 0.71875 0.359375 1.203125q0.359375 0.46875 0.9375 0.8125q0.578125 0.328125 1.3125 0.578125q0.75 0.234375 1.515625 0.5q0.78125 0.265625 1.515625 0.59375q0.734375 0.328125 1.3125 0.84375q0.59375 0.5 0.9375 1.234375q0.359375 0.734375 0.359375 1.796875q0 1.125 -0.390625 2.125q-0.375 0.984375 -1.125 1.71875q-0.734375 0.734375 -1.8125 1.15625q-1.0625 0.40625 -2.4375 0.40625q-1.65625 0 -3.03125 -0.59375q-1.375 -0.609375 -2.34375 -1.640625l0.671875 -1.109375q0.09375 -0.125 0.21875 -0.21875q0.140625 -0.09375 0.3125 -0.09375q0.25 0 0.578125 0.28125q0.328125 0.265625 0.8125 0.59375q0.484375 0.3125 1.171875 0.59375q0.6875 0.265625 1.6875 0.265625q0.828125 0 1.46875 -0.234375q0.65625 -0.234375 1.109375 -0.640625q0.453125 -0.421875 0.6875 -0.984375q0.234375 -0.578125 0.234375 -1.296875q0 -0.765625 -0.359375 -1.265625q-0.34375 -0.5 -0.921875 -0.828125q-0.578125 -0.34375 -1.3125 -0.578125q-0.734375 -0.234375 -1.515625 -0.484375q-0.765625 -0.25 -1.515625 -0.5625q-0.734375 -0.328125 -1.3125 -0.84375q-0.578125 -0.515625 -0.9375 -1.28125q-0.34375 -0.78125 -0.34375 -1.921875q0 -0.921875 0.34375 -1.765625q0.359375 -0.859375 1.03125 -1.515625q0.671875 -0.65625 1.65625 -1.046875q1.0 -0.40625 2.28125 -0.40625q1.453125 0 2.640625 0.46875q1.1875 0.453125 2.0625 1.3125l-0.5625 1.09375zm19.891968 5.921875q0 1.9375 -0.609375 3.546875q-0.609375 1.609375 -1.734375 2.78125q-1.109375 1.15625 -2.6875 1.8125q-1.5625 0.640625 -3.453125 0.640625q-1.890625 0 -3.453125 -0.640625q-1.5625 -0.65625 -2.6875 -1.8125q-1.109375 -1.171875 -1.71875 -2.78125q-0.609375 -1.609375 -0.609375 -3.546875q0 -1.9375 0.609375 -3.546875q0.609375 -1.609375 1.71875 -2.78125q1.125 -1.171875 2.6875 -1.8125q1.5625 -0.65625 3.453125 -0.65625q1.890625 0 3.453125 0.65625q1.578125 0.640625 2.6875 1.8125q1.125 1.171875 1.734375 2.78125q0.609375 1.609375 0.609375 3.546875zm-2.390625 0q0 -1.578125 -0.4375 -2.84375q-0.421875 -1.265625 -1.21875 -2.125q-0.796875 -0.875 -1.921875 -1.34375q-1.125 -0.46875 -2.515625 -0.46875q-1.375 0 -2.515625 0.46875q-1.125 0.46875 -1.921875 1.34375q-0.796875 0.859375 -1.234375 2.125q-0.421875 1.265625 -0.421875 2.84375q0 1.578125 0.421875 2.84375q0.4375 1.25 1.234375 2.125q0.796875 0.859375 1.921875 1.328125q1.140625 0.453125 2.515625 0.453125q1.390625 0 2.515625 -0.453125q1.125 -0.46875 1.921875 -1.328125q0.796875 -0.875 1.21875 -2.125q0.4375 -1.265625 0.4375 -2.84375z" fill-rule="nonzero"/><path fill="#bc2612" d="m436.23724 166.09648l1.734375 0l0 0.828125q0 0.125 -0.078125 0.21875q-0.0625 0.078125 -0.234375 0.078125l-1.421875 0l0 3.015625l-1.25 0l0 -3.015625l-5.078125 0q-0.15625 0 -0.28125 -0.09375q-0.109375 -0.09375 -0.140625 -0.234375l-0.15625 -0.71875l5.578125 -7.40625l1.328125 0l0 7.328125zm-1.25 -4.71875q0 -0.21875 0 -0.453125q0.015625 -0.234375 0.0625 -0.5l-4.171875 5.671875l4.109375 0l0 -4.71875z" fill-rule="nonzero"/><path fill="#000000" d="m441.57962 155.94023q0 0.890625 0.078125 1.84375q0.09375 0.953125 0.25 1.921875q0.171875 0.953125 0.421875 1.875q0.25 0.921875 0.578125 1.734375q0.078125 0.171875 0.078125 0.328125q0 0.203125 -0.109375 0.328125q-0.109375 0.125 -0.265625 0.203125l-0.96875 0.546875q-0.5 -1.03125 -0.859375 -2.125q-0.34375 -1.09375 -0.578125 -2.1875q-0.21875 -1.109375 -0.328125 -2.1875q-0.109375 -1.09375 -0.109375 -2.078125q0 -1.6875 0.1875 -3.265625q0.1875 -1.59375 0.703125 -3.21875q0.515625 -1.625 1.390625 -3.34375q0.890625 -1.71875 2.296875 -3.671875l0.859375 0.5625q0.09375 0.0625 0.15625 0.171875q0.078125 0.09375 0.078125 0.25q0 0.1875 -0.171875 0.4375q-0.890625 1.375 -1.578125 2.734375q-0.671875 1.359375 -1.140625 2.796875q-0.46875 1.4375 -0.71875 3.015625q-0.25 1.5625 -0.25 3.328125zm12.76767 5.296875l-1.109375 0q-0.421875 0 -0.578125 -0.21875q-0.140625 -0.21875 -0.140625 -0.53125l0.21875 -2.453125q-0.4375 0.765625 -0.9375 1.390625q-0.5 0.625 -1.0625 1.0625q-0.546875 0.4375 -1.15625 0.6875q-0.609375 0.234375 -1.28125 0.234375q-0.71875 0 -1.3125 -0.28125q-0.578125 -0.28125 -1.0 -0.828125q-0.40625 -0.546875 -0.640625 -1.34375q-0.21875 -0.796875 -0.21875 -1.828125q0 -1.09375 0.265625 -2.109375q0.265625 -1.03125 0.765625 -1.9375q0.5 -0.921875 1.1875 -1.671875q0.703125 -0.765625 1.5625 -1.328125q0.859375 -0.5625 1.84375 -0.859375q0.984375 -0.3125 2.0625 -0.3125q0.78125 0 1.515625 0.125q0.75 0.125 1.46875 0.4375l-1.453125 11.765625zm-5.234375 -1.609375q0.578125 0 1.140625 -0.359375q0.578125 -0.375 1.078125 -1.015625q0.5 -0.65625 0.9375 -1.546875q0.4375 -0.890625 0.78125 -1.953125l0.515625 -4.1875q-0.265625 -0.0625 -0.53125 -0.078125q-0.25 -0.015625 -0.5 -0.015625q-0.71875 0 -1.390625 0.234375q-0.671875 0.234375 -1.265625 0.65625q-0.59375 0.421875 -1.078125 1.0q-0.46875 0.578125 -0.8125 1.28125q-0.34375 0.6875 -0.53125 1.484375q-0.1875 0.78125 -0.1875 1.609375q0 2.890625 1.84375 2.890625zm16.838867 5.71875l-1.34375 0q-0.390625 0 -0.546875 -0.21875q-0.15625 -0.21875 -0.15625 -0.515625q0 -0.03125 0.015625 -0.140625q0.015625 -0.09375 0.015625 -0.203125q0.015625 -0.09375 0.03125 -0.1875q0.015625 -0.078125 0.015625 -0.09375l0.703125 -5.65625q-0.421875 0.703125 -0.90625 1.28125q-0.46875 0.5625 -1.015625 0.96875q-0.53125 0.390625 -1.125 0.609375q-0.59375 0.21875 -1.21875 0.21875q-0.71875 0 -1.3125 -0.28125q-0.578125 -0.28125 -1.0 -0.828125q-0.40625 -0.546875 -0.640625 -1.34375q-0.21875 -0.796875 -0.21875 -1.828125q0 -1.09375 0.265625 -2.109375q0.265625 -1.03125 0.765625 -1.9375q0.5 -0.921875 1.1875 -1.671875q0.703125 -0.765625 1.5625 -1.328125q0.859375 -0.5625 1.84375 -0.859375q0.984375 -0.3125 2.0625 -0.3125q0.78125 0 1.515625 0.125q0.75 0.125 1.46875 0.4375l-1.96875 15.875zm-4.71875 -5.71875q0.578125 0 1.125 -0.359375q0.5625 -0.359375 1.0625 -0.984375q0.515625 -0.640625 0.9375 -1.515625q0.4375 -0.890625 0.765625 -1.9375l0.546875 -4.265625q-0.25 -0.0625 -0.515625 -0.078125q-0.25 -0.015625 -0.5 -0.015625q-0.71875 0 -1.390625 0.234375q-0.671875 0.234375 -1.265625 0.65625q-0.59375 0.421875 -1.078125 1.0q-0.46875 0.578125 -0.8125 1.28125q-0.34375 0.6875 -0.53125 1.484375q-0.1875 0.78125 -0.1875 1.609375q0 2.890625 1.84375 2.890625zm11.307556 -8.1875q0 -0.890625 -0.078125 -1.84375q-0.078125 -0.953125 -0.265625 -1.90625q-0.171875 -0.96875 -0.421875 -1.890625q-0.234375 -0.9375 -0.5625 -1.734375q-0.0625 -0.1875 -0.0625 -0.3125q0 -0.203125 0.09375 -0.3125q0.109375 -0.125 0.265625 -0.234375l0.984375 -0.5625q0.484375 1.046875 0.828125 2.140625q0.359375 1.09375 0.59375 2.203125q0.234375 1.09375 0.328125 2.1875q0.109375 1.078125 0.109375 2.078125q0 1.6875 -0.1875 3.28125q-0.1875 1.578125 -0.703125 3.203125q-0.5 1.609375 -1.390625 3.328125q-0.890625 1.71875 -2.296875 3.65625l-0.84375 -0.546875q-0.09375 -0.0625 -0.15625 -0.171875q-0.078125 -0.09375 -0.078125 -0.21875q0 -0.203125 0.171875 -0.46875q0.875 -1.375 1.5625 -2.765625q0.6875 -1.390625 1.15625 -2.859375q0.46875 -1.46875 0.703125 -3.015625q0.25 -1.5625 0.25 -3.234375z" fill-rule="nonzero"/><path fill="#000000" fill-opacity="0.0" d="m7.9238844 125.1296c0 -18.247139 1.2326365 -33.039368 2.753171 -33.039368l204.60388 0c0.7301941 0 1.4304657 3.4809265 1.9467926 9.67701c0.51631165 6.196083 0.8063812 14.599777 0.8063812 23.362358z" fill-rule="evenodd"/><path fill="#000000" fill-opacity="0.0" d="m7.9238844 125.1296c0 -18.247139 1.2326365 -33.039368 2.753171 -33.039368l204.60388 0c0.7301941 0 1.4304657 3.4809265 1.9467926 9.67701c0.51631165 6.196083 0.8063812 14.599777 0.8063812 23.362358" fill-rule="evenodd"/><path stroke="#0c7f99" stroke-width="2.0" stroke-linejoin="round" stroke-linecap="butt" d="m7.9238844 125.1296c0 -18.247139 1.2326365 -33.039368 2.753171 -33.039368l204.60388 0c0.7301941 0 1.4304657 3.4809265 1.9467926 9.67701c0.51631165 6.196083 0.8063812 14.599777 0.8063812 23.362358" fill-rule="evenodd"/><path fill="#000000" fill-opacity="0.0" d="m7.9238844 60.12173l210.11023 0l0 42.015743l-210.11023 0z" fill-rule="evenodd"/><path fill="#0c7f99" d="m75.68261 87.041725l0 -9.453125l0.953125 0q0.265625 0 0.375 0.109375q0.109375 0.09375 0.140625 0.34375l0.109375 1.484375q0.484375 -0.984375 1.1875 -1.546875q0.71875 -0.5625 1.6875 -0.5625q0.390625 0 0.703125 0.09375q0.328125 0.09375 0.59375 0.25l-0.21875 1.234375q-0.0625 0.234375 -0.28125 0.234375q-0.140625 0 -0.40625 -0.078125q-0.265625 -0.09375 -0.75 -0.09375q-0.875 0 -1.453125 0.5q-0.578125 0.5 -0.984375 1.46875l0 6.015625l-1.65625 0zm11.268463 -9.59375q0.84375 0 1.5625 0.28125q0.71875 0.28125 1.234375 0.828125q0.53125 0.53125 0.8125 1.328125q0.296875 0.78125 0.296875 1.78125q0 0.390625 -0.078125 0.53125q-0.078125 0.125 -0.3125 0.125l-6.296875 0q0.015625 0.890625 0.234375 1.5625q0.234375 0.65625 0.625 1.109375q0.390625 0.4375 0.9375 0.65625q0.546875 0.21875 1.203125 0.21875q0.625 0 1.078125 -0.140625q0.453125 -0.15625 0.78125 -0.3125q0.328125 -0.171875 0.546875 -0.3125q0.21875 -0.15625 0.375 -0.15625q0.21875 0 0.328125 0.15625l0.46875 0.609375q-0.3125 0.375 -0.75 0.65625q-0.421875 0.265625 -0.921875 0.453125q-0.484375 0.171875 -1.015625 0.25q-0.515625 0.09375 -1.015625 0.09375q-0.984375 0 -1.8125 -0.328125q-0.828125 -0.328125 -1.4375 -0.96875q-0.59375 -0.640625 -0.9375 -1.578125q-0.328125 -0.9375 -0.328125 -2.171875q0 -0.984375 0.296875 -1.84375q0.3125 -0.859375 0.875 -1.484375q0.578125 -0.625 1.390625 -0.984375q0.828125 -0.359375 1.859375 -0.359375zm0.03125 1.21875q-1.203125 0 -1.890625 0.703125q-0.6875 0.6875 -0.859375 1.921875l5.140625 0q0 -0.578125 -0.171875 -1.0625q-0.15625 -0.484375 -0.46875 -0.828125q-0.296875 -0.359375 -0.75 -0.546875q-0.4375 -0.1875 -1.0 -0.1875zm12.932129 8.375l-0.734375 0q-0.234375 0 -0.390625 -0.078125q-0.140625 -0.078125 -0.1875 -0.3125l-0.1875 -0.875q-0.375 0.328125 -0.734375 0.59375q-0.359375 0.265625 -0.75 0.453125q-0.390625 0.1875 -0.828125 0.28125q-0.4375 0.09375 -0.984375 0.09375q-0.546875 0 -1.03125 -0.15625q-0.484375 -0.15625 -0.84375 -0.46875q-0.34375 -0.3125 -0.5625 -0.78125q-0.203125 -0.46875 -0.203125 -1.109375q0 -0.5625 0.296875 -1.078125q0.3125 -0.515625 1.0 -0.90625q0.6875 -0.40625 1.796875 -0.65625q1.109375 -0.265625 2.71875 -0.3125l0 -0.734375q0 -1.09375 -0.46875 -1.65625q-0.46875 -0.578125 -1.40625 -0.578125q-0.59375 0 -1.015625 0.15625q-0.40625 0.15625 -0.71875 0.359375q-0.296875 0.1875 -0.515625 0.34375q-0.21875 0.140625 -0.4375 0.140625q-0.171875 0 -0.296875 -0.078125q-0.125 -0.09375 -0.203125 -0.21875l-0.296875 -0.53125q0.78125 -0.765625 1.6875 -1.140625q0.90625 -0.375 2.015625 -0.375q0.78125 0 1.390625 0.265625q0.625 0.265625 1.046875 0.734375q0.421875 0.46875 0.625 1.125q0.21875 0.65625 0.21875 1.453125l0 6.046875zm-4.296875 -1.015625q0.4375 0 0.796875 -0.078125q0.359375 -0.09375 0.671875 -0.25q0.328125 -0.171875 0.625 -0.40625q0.296875 -0.234375 0.578125 -0.53125l0 -1.96875q-1.15625 0.03125 -1.953125 0.1875q-0.796875 0.140625 -1.3125 0.375q-0.5 0.234375 -0.734375 0.546875q-0.21875 0.3125 -0.21875 0.703125q0 0.375 0.125 0.65625q0.125 0.265625 0.328125 0.4375q0.203125 0.171875 0.484375 0.25q0.28125 0.078125 0.609375 0.078125zm13.271225 -6.75q-0.078125 0.09375 -0.15625 0.15625q-0.078125 0.046875 -0.21875 0.046875q-0.140625 0 -0.296875 -0.109375q-0.15625 -0.109375 -0.421875 -0.25q-0.25 -0.140625 -0.609375 -0.25q-0.359375 -0.125 -0.875 -0.125q-0.6875 0 -1.21875 0.25q-0.53125 0.234375 -0.890625 0.703125q-0.359375 0.46875 -0.546875 1.140625q-0.1875 0.65625 -0.1875 1.46875q0 0.859375 0.203125 1.53125q0.203125 0.671875 0.546875 1.125q0.359375 0.453125 0.859375 0.6875q0.515625 0.234375 1.15625 0.234375q0.59375 0 0.984375 -0.140625q0.390625 -0.15625 0.65625 -0.328125q0.265625 -0.171875 0.421875 -0.3125q0.171875 -0.15625 0.34375 -0.15625q0.21875 0 0.3125 0.15625l0.46875 0.609375q-0.609375 0.765625 -1.53125 1.109375q-0.921875 0.34375 -1.953125 0.34375q-0.890625 0 -1.65625 -0.3125q-0.75 -0.328125 -1.3125 -0.953125q-0.5625 -0.625 -0.890625 -1.53125q-0.3125 -0.90625 -0.3125 -2.0625q0 -1.046875 0.296875 -1.9375q0.296875 -0.90625 0.859375 -1.546875q0.5625 -0.65625 1.390625 -1.015625q0.828125 -0.359375 1.90625 -0.359375q0.984375 0 1.75 0.328125q0.765625 0.3125 1.359375 0.890625l-0.4375 0.609375zm5.1187134 7.921875q-1.109375 0 -1.71875 -0.625q-0.59375 -0.625 -0.59375 -1.8125l0 -5.78125l-1.140625 0q-0.15625 0 -0.265625 -0.078125q-0.09375 -0.09375 -0.09375 -0.28125l0 -0.65625l1.546875 -0.203125l0.390625 -2.921875q0.015625 -0.140625 0.109375 -0.21875q0.109375 -0.09375 0.265625 -0.09375l0.84375 0l0 3.25l2.703125 0l0 1.203125l-2.703125 0l0 5.671875q0 0.59375 0.28125 0.890625q0.296875 0.28125 0.75 0.28125q0.265625 0 0.453125 -0.0625q0.203125 -0.078125 0.328125 -0.15625q0.140625 -0.078125 0.234375 -0.140625q0.109375 -0.078125 0.1875 -0.078125q0.125 0 0.234375 0.15625l0.484375 0.796875q-0.4375 0.390625 -1.046875 0.625q-0.59375 0.234375 -1.25 0.234375zm11.036911 -0.15625l-0.734375 0q-0.234375 0 -0.390625 -0.078125q-0.140625 -0.078125 -0.1875 -0.3125l-0.1875 -0.875q-0.375 0.328125 -0.734375 0.59375q-0.359375 0.265625 -0.75 0.453125q-0.390625 0.1875 -0.828125 0.28125q-0.4375 0.09375 -0.984375 0.09375q-0.546875 0 -1.03125 -0.15625q-0.484375 -0.15625 -0.84375 -0.46875q-0.34375 -0.3125 -0.5625 -0.78125q-0.203125 -0.46875 -0.203125 -1.109375q0 -0.5625 0.296875 -1.078125q0.3125 -0.515625 1.0 -0.90625q0.6875 -0.40625 1.796875 -0.65625q1.109375 -0.265625 2.71875 -0.3125l0 -0.734375q0 -1.09375 -0.46875 -1.65625q-0.46875 -0.578125 -1.40625 -0.578125q-0.59375 0 -1.015625 0.15625q-0.40625 0.15625 -0.71875 0.359375q-0.296875 0.1875 -0.515625 0.34375q-0.21875 0.140625 -0.4375 0.140625q-0.171875 0 -0.296875 -0.078125q-0.125 -0.09375 -0.203125 -0.21875l-0.296875 -0.53125q0.78125 -0.765625 1.6875 -1.140625q0.90625 -0.375 2.015625 -0.375q0.78125 0 1.390625 0.265625q0.625 0.265625 1.046875 0.734375q0.421875 0.46875 0.625 1.125q0.21875 0.65625 0.21875 1.453125l0 6.046875zm-4.296875 -1.015625q0.4375 0 0.796875 -0.078125q0.359375 -0.09375 0.671875 -0.25q0.328125 -0.171875 0.625 -0.40625q0.296875 -0.234375 0.578125 -0.53125l0 -1.96875q-1.15625 0.03125 -1.953125 0.1875q-0.796875 0.140625 -1.3125 0.375q-0.5 0.234375 -0.734375 0.546875q-0.21875 0.3125 -0.21875 0.703125q0 0.375 0.125 0.65625q0.125 0.265625 0.328125 0.4375q0.203125 0.171875 0.484375 0.25q0.28125 0.078125 0.609375 0.078125zm6.8181 1.015625l0 -9.453125l0.9843826 0q0.359375 0 0.453125 0.34375l0.125 1.03125q0.625 -0.6875 1.375 -1.09375q0.765625 -0.421875 1.765625 -0.421875q0.78125 0 1.359375 0.265625q0.59375 0.25 0.984375 0.71875q0.40625 0.46875 0.609375 1.140625q0.203125 0.65625 0.203125 1.453125l0 6.015625l-1.65625 0l0 -6.015625q0 -1.078125 -0.5 -1.671875q-0.484375 -0.59375 -1.484375 -0.59375q-0.734375 0 -1.375 0.359375q-0.640625 0.359375 -1.1875 0.96875l0 6.953125l-1.6562576 0zm13.232262 0.15625q-1.109375 0 -1.71875 -0.625q-0.59375 -0.625 -0.59375 -1.8125l0 -5.78125l-1.140625 0q-0.15625 0 -0.265625 -0.078125q-0.09375 -0.09375 -0.09375 -0.28125l0 -0.65625l1.546875 -0.203125l0.390625 -2.921875q0.015625 -0.140625 0.109375 -0.21875q0.109375 -0.09375 0.265625 -0.09375l0.84375 0l0 3.25l2.703125 0l0 1.203125l-2.703125 0l0 5.671875q0 0.59375 0.28125 0.890625q0.296875 0.28125 0.75 0.28125q0.265625 0 0.453125 -0.0625q0.203125 -0.078125 0.328125 -0.15625q0.140625 -0.078125 0.234375 -0.140625q0.109375 -0.078125 0.1875 -0.078125q0.125 0 0.234375 0.15625l0.484375 0.796875q-0.4375 0.390625 -1.046875 0.625q-0.59375 0.234375 -1.25 0.234375zm9.505661 -8.046875q-0.109375 0.203125 -0.34375 0.203125q-0.140625 0 -0.3125 -0.09375q-0.171875 -0.109375 -0.4375 -0.234375q-0.25 -0.125 -0.609375 -0.234375q-0.359375 -0.109375 -0.84375 -0.109375q-0.40625 0 -0.75 0.109375q-0.328125 0.109375 -0.578125 0.296875q-0.234375 0.1875 -0.359375 0.4375q-0.125 0.234375 -0.125 0.53125q0 0.359375 0.203125 0.609375q0.21875 0.234375 0.5625 0.421875q0.34375 0.171875 0.78125 0.3125q0.4375 0.125 0.890625 0.28125q0.46875 0.15625 0.90625 0.34375q0.4375 0.1875 0.78125 0.46875q0.359375 0.28125 0.5625 0.6875q0.203125 0.40625 0.203125 0.96875q0 0.65625 -0.234375 1.21875q-0.21875 0.546875 -0.6875 0.953125q-0.453125 0.40625 -1.125 0.640625q-0.65625 0.234375 -1.515625 0.234375q-0.984375 0 -1.796875 -0.328125q-0.796875 -0.328125 -1.359375 -0.828125l0.390625 -0.625q0.078125 -0.125 0.171875 -0.1875q0.109375 -0.078125 0.28125 -0.078125q0.15625 0 0.34375 0.140625q0.1875 0.125 0.453125 0.28125q0.265625 0.15625 0.640625 0.296875q0.390625 0.125 0.953125 0.125q0.484375 0 0.84375 -0.125q0.375 -0.125 0.609375 -0.328125q0.25 -0.21875 0.359375 -0.5q0.125 -0.28125 0.125 -0.609375q0 -0.390625 -0.21875 -0.640625q-0.203125 -0.25 -0.546875 -0.4375q-0.34375 -0.1875 -0.796875 -0.3125q-0.4375 -0.140625 -0.90625 -0.28125q-0.453125 -0.15625 -0.90625 -0.34375q-0.4375 -0.203125 -0.78125 -0.484375q-0.34375 -0.296875 -0.5625 -0.71875q-0.203125 -0.421875 -0.203125 -1.03125q0 -0.53125 0.21875 -1.03125q0.234375 -0.5 0.65625 -0.875q0.4375 -0.390625 1.0625 -0.609375q0.625 -0.21875 1.421875 -0.21875q0.9375 0 1.671875 0.296875q0.75 0.28125 1.28125 0.796875l-0.375 0.609375z" fill-rule="nonzero"/><path fill="#000000" fill-opacity="0.0" d="m474.3304 173.60992c0 18.247131 -1.2326355 33.039368 -2.7531738 33.039368l-204.60391 0c-0.7301636 0 -1.4304504 -3.4809265 -1.9467773 -9.677017c-0.5163269 -6.1960754 -0.8063965 -14.599777 -0.8063965 -23.36235z" fill-rule="evenodd"/><path fill="#000000" fill-opacity="0.0" d="m474.3304 173.60992c0 18.247131 -1.2326355 33.039368 -2.7531738 33.039368l-204.60391 0c-0.7301636 0 -1.4304504 -3.4809265 -1.9467773 -9.677017c-0.5163269 -6.1960754 -0.8063965 -14.599777 -0.8063965 -23.36235" fill-rule="evenodd"/><path stroke="#bc2612" stroke-width="2.0" stroke-linejoin="round" stroke-linecap="butt" d="m474.3304 173.60992c0 18.247131 -1.2326355 33.039368 -2.7531738 33.039368l-204.60391 0c-0.7301636 0 -1.4304504 -3.4809265 -1.9467773 -9.677017c-0.5163269 -6.1960754 -0.8063965 -14.599777 -0.8063965 -23.36235" fill-rule="evenodd"/><path fill="#000000" fill-opacity="0.0" d="m264.22046 201.65717l210.11026 0l0 42.015747l-210.11026 0z" fill-rule="evenodd"/><path fill="#bc2612" d="m334.25528 231.78029l0 -12.65625l0.984375 0q0.359375 0 0.453125 0.34375l0.140625 1.125q0.609375 -0.734375 1.390625 -1.1875q0.78125 -0.453125 1.796875 -0.453125q0.8125 0 1.46875 0.3125q0.65625 0.3125 1.125 0.9375q0.46875 0.609375 0.71875 1.515625q0.25 0.90625 0.25 2.078125q0 1.046875 -0.28125 1.953125q-0.28125 0.890625 -0.796875 1.546875q-0.515625 0.65625 -1.28125 1.03125q-0.765625 0.375 -1.71875 0.375q-0.875 0 -1.5 -0.28125q-0.609375 -0.296875 -1.09375 -0.828125l0 4.1875l-1.65625 0zm4.203125 -11.484375q-0.8125 0 -1.421875 0.375q-0.609375 0.375 -1.125 1.0625l0 4.5625q0.46875 0.625 1.015625 0.875q0.546875 0.25 1.21875 0.25q1.3125 0 2.015625 -0.9375q0.703125 -0.953125 0.703125 -2.6875q0 -0.921875 -0.15625 -1.578125q-0.15625 -0.671875 -0.46875 -1.09375q-0.3125 -0.421875 -0.765625 -0.625q-0.4375 -0.203125 -1.015625 -0.203125zm6.0951233 8.28125l0 -9.453125l0.953125 0q0.265625 0 0.375 0.109375q0.109375 0.09375 0.140625 0.34375l0.109375 1.484375q0.484375 -0.984375 1.1875 -1.546875q0.71875 -0.5625 1.6875 -0.5625q0.390625 0 0.703125 0.09375q0.328125 0.09375 0.59375 0.25l-0.21875 1.234375q-0.0625 0.234375 -0.28125 0.234375q-0.140625 0 -0.40625 -0.078125q-0.265625 -0.09375 -0.75 -0.09375q-0.875 0 -1.453125 0.5q-0.578125 0.5 -0.984375 1.46875l0 6.015625l-1.65625 0zm11.346588 -9.59375q1.03125 0 1.859375 0.34375q0.84375 0.34375 1.421875 0.984375q0.59375 0.625 0.90625 1.53125q0.3125 0.890625 0.3125 2.0q0 1.125 -0.3125 2.03125q-0.3125 0.890625 -0.90625 1.53125q-0.578125 0.625 -1.421875 0.96875q-0.828125 0.328125 -1.859375 0.328125q-1.03125 0 -1.875 -0.328125q-0.828125 -0.34375 -1.421875 -0.96875q-0.578125 -0.640625 -0.90625 -1.53125q-0.3125 -0.90625 -0.3125 -2.03125q0 -1.109375 0.3125 -2.0q0.328125 -0.90625 0.90625 -1.53125q0.59375 -0.640625 1.421875 -0.984375q0.84375 -0.34375 1.875 -0.34375zm0 8.421875q1.390625 0 2.078125 -0.9375q0.703125 -0.9375 0.703125 -2.609375q0 -1.6875 -0.703125 -2.625q-0.6875 -0.953125 -2.078125 -0.953125q-0.703125 0 -1.234375 0.25q-0.515625 0.234375 -0.875 0.703125q-0.34375 0.453125 -0.515625 1.125q-0.171875 0.65625 -0.171875 1.5q0 0.84375 0.171875 1.5q0.171875 0.65625 0.515625 1.109375q0.359375 0.453125 0.875 0.703125q0.53125 0.234375 1.234375 0.234375zm13.200989 1.171875q-0.359375 0 -0.453125 -0.34375l-0.140625 -1.15625q-0.609375 0.75 -1.390625 1.1875q-0.78125 0.4375 -1.78125 0.4375q-0.8125 0 -1.484375 -0.3125q-0.65625 -0.3125 -1.125 -0.90625q-0.46875 -0.609375 -0.71875 -1.515625q-0.25 -0.90625 -0.25 -2.078125q0 -1.046875 0.28125 -1.9375q0.28125 -0.90625 0.796875 -1.5625q0.53125 -0.671875 1.28125 -1.046875q0.765625 -0.390625 1.71875 -0.390625q0.875 0 1.484375 0.296875q0.625 0.296875 1.109375 0.828125l0 -5.234375l1.65625 0l0 13.734375l-0.984375 0zm-3.21875 -1.21875q0.8125 0 1.421875 -0.359375q0.609375 -0.375 1.125 -1.0625l0 -4.5625q-0.453125 -0.625 -1.0 -0.875q-0.546875 -0.25 -1.21875 -0.25q-1.3125 0 -2.03125 0.953125q-0.703125 0.9375 -0.703125 2.6875q0 0.921875 0.15625 1.578125q0.15625 0.65625 0.46875 1.078125q0.3125 0.421875 0.75 0.625q0.453125 0.1875 1.03125 0.1875zm8.428864 -8.234375l0 6.03125q0 1.078125 0.484375 1.671875q0.5 0.578125 1.5 0.578125q0.734375 0 1.375 -0.34375q0.640625 -0.34375 1.1875 -0.96875l0 -6.96875l1.65625 0l0 9.453125l-0.984375 0q-0.359375 0 -0.453125 -0.34375l-0.125 -1.015625q-0.625 0.671875 -1.390625 1.09375q-0.765625 0.421875 -1.75 0.421875q-0.765625 0 -1.359375 -0.25q-0.59375 -0.265625 -1.0 -0.734375q-0.390625 -0.46875 -0.59375 -1.125q-0.203125 -0.671875 -0.203125 -1.46875l0 -6.03125l1.65625 0zm15.388489 1.6875q-0.078125 0.09375 -0.15625 0.15625q-0.078125 0.046875 -0.21875 0.046875q-0.140625 0 -0.296875 -0.109375q-0.15625 -0.109375 -0.421875 -0.25q-0.25 -0.140625 -0.609375 -0.25q-0.359375 -0.125 -0.875 -0.125q-0.6875 0 -1.21875 0.25q-0.53125 0.234375 -0.890625 0.703125q-0.359375 0.46875 -0.546875 1.140625q-0.1875 0.65625 -0.1875 1.46875q0 0.859375 0.203125 1.53125q0.203125 0.671875 0.546875 1.125q0.359375 0.453125 0.859375 0.6875q0.515625 0.234375 1.15625 0.234375q0.59375 0 0.984375 -0.140625q0.390625 -0.15625 0.65625 -0.328125q0.265625 -0.171875 0.421875 -0.3125q0.171875 -0.15625 0.34375 -0.15625q0.21875 0 0.3125 0.15625l0.46875 0.609375q-0.609375 0.765625 -1.53125 1.109375q-0.921875 0.34375 -1.953125 0.34375q-0.890625 0 -1.65625 -0.3125q-0.75 -0.328125 -1.3125 -0.953125q-0.5625 -0.625 -0.890625 -1.53125q-0.3125 -0.90625 -0.3125 -2.0625q0 -1.046875 0.296875 -1.9375q0.296875 -0.90625 0.859375 -1.546875q0.5625 -0.65625 1.390625 -1.015625q0.828125 -0.359375 1.90625 -0.359375q0.984375 0 1.75 0.328125q0.765625 0.3125 1.359375 0.890625l-0.4375 0.609375zm5.1187134 7.921875q-1.109375 0 -1.71875 -0.625q-0.59375 -0.625 -0.59375 -1.8125l0 -5.78125l-1.140625 0q-0.15625 0 -0.265625 -0.078125q-0.09375 -0.09375 -0.09375 -0.28125l0 -0.65625l1.546875 -0.203125l0.390625 -2.921875q0.015625 -0.140625 0.109375 -0.21875q0.109375 -0.09375 0.265625 -0.09375l0.84375 0l0 3.25l2.703125 0l0 1.203125l-2.703125 0l0 5.671875q0 0.59375 0.28125 0.890625q0.296875 0.28125 0.75 0.28125q0.265625 0 0.453125 -0.0625q0.203125 -0.078125 0.328125 -0.15625q0.140625 -0.078125 0.234375 -0.140625q0.109375 -0.078125 0.1875 -0.078125q0.125 0 0.234375 0.15625l0.484375 0.796875q-0.4375 0.390625 -1.046875 0.625q-0.59375 0.234375 -1.25 0.234375zm9.505646 -8.046875q-0.109375 0.203125 -0.34375 0.203125q-0.140625 0 -0.3125 -0.09375q-0.171875 -0.109375 -0.4375 -0.234375q-0.25 -0.125 -0.609375 -0.234375q-0.359375 -0.109375 -0.84375 -0.109375q-0.40625 0 -0.75 0.109375q-0.328125 0.109375 -0.578125 0.296875q-0.234375 0.1875 -0.359375 0.4375q-0.125 0.234375 -0.125 0.53125q0 0.359375 0.203125 0.609375q0.21875 0.234375 0.5625 0.421875q0.34375 0.171875 0.78125 0.3125q0.4375 0.125 0.890625 0.28125q0.46875 0.15625 0.90625 0.34375q0.4375 0.1875 0.78125 0.46875q0.359375 0.28125 0.5625 0.6875q0.203125 0.40625 0.203125 0.96875q0 0.65625 -0.234375 1.21875q-0.21875 0.546875 -0.6875 0.953125q-0.453125 0.40625 -1.125 0.640625q-0.65625 0.234375 -1.515625 0.234375q-0.984375 0 -1.796875 -0.328125q-0.796875 -0.328125 -1.359375 -0.828125l0.390625 -0.625q0.078125 -0.125 0.171875 -0.1875q0.109375 -0.078125 0.28125 -0.078125q0.15625 0 0.34375 0.140625q0.1875 0.125 0.453125 0.28125q0.265625 0.15625 0.640625 0.296875q0.390625 0.125 0.953125 0.125q0.484375 0 0.84375 -0.125q0.375 -0.125 0.609375 -0.328125q0.25 -0.21875 0.359375 -0.5q0.125 -0.28125 0.125 -0.609375q0 -0.390625 -0.21875 -0.640625q-0.203125 -0.25 -0.546875 -0.4375q-0.34375 -0.1875 -0.796875 -0.3125q-0.4375 -0.140625 -0.90625 -0.28125q-0.453125 -0.15625 -0.90625 -0.34375q-0.4375 -0.203125 -0.78125 -0.484375q-0.34375 -0.296875 -0.5625 -0.71875q-0.203125 -0.421875 -0.203125 -1.03125q0 -0.53125 0.21875 -1.03125q0.234375 -0.5 0.65625 -0.875q0.4375 -0.390625 1.0625 -0.609375q0.625 -0.21875 1.421875 -0.21875q0.9375 0 1.671875 0.296875q0.75 0.28125 1.28125 0.796875l-0.375 0.609375z" fill-rule="nonzero"/><path fill="#000000" fill-opacity="0.0" d="m219.64032 10.077726l111.90552 0l0 42.015747l-111.90552 0z" fill-rule="evenodd"/><path fill="#000000" d="m236.45282 29.2321q-0.078125 0.09375 -0.15625 0.15625q-0.078125 0.046875 -0.21875 0.046875q-0.140625 0 -0.296875 -0.109375q-0.15625 -0.109375 -0.421875 -0.25q-0.25 -0.140625 -0.609375 -0.25q-0.359375 -0.125 -0.875 -0.125q-0.6875 0 -1.21875 0.25q-0.53125 0.234375 -0.890625 0.703125q-0.359375 0.46875 -0.546875 1.140625q-0.1875 0.65625 -0.1875 1.4687481q0 0.859375 0.203125 1.53125q0.203125 0.671875 0.546875 1.125q0.359375 0.453125 0.859375 0.6875q0.515625 0.234375 1.15625 0.234375q0.59375 0 0.984375 -0.140625q0.390625 -0.15625 0.65625 -0.328125q0.265625 -0.171875 0.421875 -0.3125q0.171875 -0.15625 0.34375 -0.15625q0.21875 0 0.3125 0.15625l0.46875 0.609375q-0.609375 0.765625 -1.53125 1.109375q-0.921875 0.34375 -1.953125 0.34375q-0.890625 0 -1.65625 -0.3125q-0.75 -0.328125 -1.3125 -0.953125q-0.5625 -0.625 -0.890625 -1.53125q-0.3125 -0.90625 -0.3125 -2.0625q0 -1.0468731 0.296875 -1.9374981q0.296875 -0.90625 0.859375 -1.546875q0.5625 -0.65625 1.390625 -1.015625q0.828125 -0.359375 1.90625 -0.359375q0.984375 0 1.75 0.328125q0.765625 0.3125 1.359375 0.890625l-0.4375 0.609375zm6.0874634 -1.828125q1.03125 0 1.859375 0.34375q0.84375 0.34375 1.421875 0.984375q0.59375 0.625 0.90625 1.53125q0.3125 0.890625 0.3125 1.9999981q0 1.125 -0.3125 2.03125q-0.3125 0.890625 -0.90625 1.53125q-0.578125 0.625 -1.421875 0.96875q-0.828125 0.328125 -1.859375 0.328125q-1.03125 0 -1.875 -0.328125q-0.828125 -0.34375 -1.421875 -0.96875q-0.578125 -0.640625 -0.90625 -1.53125q-0.3125 -0.90625 -0.3125 -2.03125q0 -1.1093731 0.3125 -1.9999981q0.328125 -0.90625 0.90625 -1.53125q0.59375 -0.640625 1.421875 -0.984375q0.84375 -0.34375 1.875 -0.34375zm0 8.421873q1.390625 0 2.078125 -0.9375q0.703125 -0.9375 0.703125 -2.609375q0 -1.6874981 -0.703125 -2.624998q-0.6875 -0.953125 -2.078125 -0.953125q-0.703125 0 -1.234375 0.25q-0.515625 0.234375 -0.875 0.703125q-0.34375 0.453125 -0.515625 1.125q-0.171875 0.65625 -0.171875 1.4999981q0 0.84375 0.171875 1.5q0.171875 0.65625 0.515625 1.109375q0.359375 0.453125 0.875 0.703125q0.53125 0.234375 1.234375 0.234375zm10.294754 -8.421873q0.84375 0 1.5625 0.28125q0.71875 0.28125 1.234375 0.828125q0.53123474 0.53125 0.81248474 1.328125q0.296875 0.78125 0.296875 1.78125q0 0.3906231 -0.078125 0.5312481q-0.078125 0.125 -0.3125 0.125l-6.2968597 0q0.015625 0.890625 0.234375 1.5625q0.234375 0.65625 0.625 1.109375q0.390625 0.4375 0.9375 0.65625q0.546875 0.21875 1.203125 0.21875q0.625 0 1.078125 -0.140625q0.453125 -0.15625 0.78125 -0.3125q0.328125 -0.171875 0.546875 -0.3125q0.21875 -0.15625 0.375 -0.15625q0.21873474 0 0.32810974 0.15625l0.46875 0.609375q-0.3125 0.375 -0.74998474 0.65625q-0.421875 0.265625 -0.921875 0.453125q-0.484375 0.171875 -1.015625 0.25q-0.515625 0.09375 -1.015625 0.09375q-0.984375 0 -1.8125 -0.328125q-0.828125 -0.328125 -1.4375 -0.96875q-0.59375 -0.640625 -0.9375 -1.578125q-0.328125 -0.9375 -0.328125 -2.171875q0 -0.9843731 0.296875 -1.8437481q0.3125 -0.859375 0.875 -1.484375q0.578125 -0.625 1.390625 -0.984375q0.828125 -0.359375 1.859375 -0.359375zm0.03125 1.21875q-1.203125 0 -1.890625 0.703125q-0.6875 0.6875 -0.859375 1.921875l5.140625 0q0 -0.578125 -0.171875 -1.0625q-0.15625 -0.484375 -0.46875 -0.828125q-0.296875 -0.359375 -0.75 -0.546875q-0.4375 -0.1875 -1.0 -0.1875zm6.3696136 8.374998l0 -8.031248l-1.046875 -0.125q-0.1875 -0.046875 -0.3125 -0.140625q-0.125 -0.09375 -0.125 -0.28125l0 -0.6875l1.484375 0l0 -0.90625q0 -0.8125 0.21875 -1.4375q0.234375 -0.640625 0.65625 -1.0625q0.4375 -0.4375 1.03125 -0.65625q0.59375 -0.234375 1.34375 -0.234375q0.625 0 1.171875 0.1875l-0.03125 0.828125q-0.015625 0.1875 -0.171875 0.234375q-0.140625 0.03125 -0.40625 0.03125l-0.296875 0q-0.421875 0 -0.78125 0.109375q-0.34375 0.109375 -0.59375 0.359375q-0.25 0.25 -0.390625 0.671875q-0.140625 0.40625 -0.140625 1.015625l0 0.859375l2.734375 0l0 1.203125l-2.671875 0l0 8.062498l-1.671875 0zm6.2871704 0l0 -8.031248l-1.046875 -0.125q-0.1875 -0.046875 -0.3125 -0.140625q-0.125 -0.09375 -0.125 -0.28125l0 -0.6875l1.484375 0l0 -0.515625q0 -0.875 0.265625 -1.59375q0.28125 -0.71875 0.8125 -1.234375q0.546875 -0.53125 1.34375 -0.8125q0.8125 -0.296875 1.890625 -0.296875q0.359375 0 0.71875 0.046875q0.375 0.046875 0.640625 0.140625l-0.0625 0.859375q-0.015625 0.125 -0.109375 0.15625q-0.09375 0.03125 -0.265625 0.03125q-0.109375 0 -0.21875 0q-0.109375 0 -0.25 0q-1.65625 0 -2.40625 0.6875q-0.75 0.671875 -0.75 2.0625l0 0.46875l5.71875 0l0 9.265623l-1.671875 0l0 -8.062498l-3.984375 0l0 8.062498l-1.671875 0zm16.712189 -7.765623q-0.078125 0.09375 -0.15625 0.15625q-0.078125 0.046875 -0.21875 0.046875q-0.140625 0 -0.296875 -0.109375q-0.15625 -0.109375 -0.421875 -0.25q-0.25 -0.140625 -0.609375 -0.25q-0.359375 -0.125 -0.875 -0.125q-0.6875 0 -1.21875 0.25q-0.53125 0.234375 -0.890625 0.703125q-0.359375 0.46875 -0.546875 1.140625q-0.1875 0.65625 -0.1875 1.4687481q0 0.859375 0.203125 1.53125q0.203125 0.671875 0.546875 1.125q0.359375 0.453125 0.859375 0.6875q0.515625 0.234375 1.15625 0.234375q0.59375 0 0.984375 -0.140625q0.390625 -0.15625 0.65625 -0.328125q0.265625 -0.171875 0.421875 -0.3125q0.171875 -0.15625 0.34375 -0.15625q0.21875 0 0.3125 0.15625l0.46875 0.609375q-0.609375 0.765625 -1.53125 1.109375q-0.921875 0.34375 -1.953125 0.34375q-0.890625 0 -1.65625 -0.3125q-0.75 -0.328125 -1.3125 -0.953125q-0.5625 -0.625 -0.890625 -1.53125q-0.3125 -0.90625 -0.3125 -2.0625q0 -1.0468731 0.296875 -1.9374981q0.296875 -0.90625 0.859375 -1.546875q0.5625 -0.65625 1.390625 -1.015625q0.828125 -0.359375 1.90625 -0.359375q0.984375 0 1.75 0.328125q0.765625 0.3125 1.359375 0.890625l-0.4375 0.609375zm4.1030884 -1.6875l0 9.453123l-1.65625 0l0 -9.453123l1.65625 0zm0.375 -2.96875q0 0.25 -0.09375 0.46875q-0.09375 0.203125 -0.265625 0.375q-0.15625 0.15625 -0.375 0.25q-0.21875 0.09375 -0.453125 0.09375q-0.25 0 -0.46875 -0.09375q-0.203125 -0.09375 -0.359375 -0.25q-0.15625 -0.171875 -0.25 -0.375q-0.09375 -0.21875 -0.09375 -0.46875q0 -0.234375 0.09375 -0.453125q0.09375 -0.21875 0.25 -0.375q0.15625 -0.171875 0.359375 -0.265625q0.21875 -0.09375 0.46875 -0.09375q0.234375 0 0.453125 0.09375q0.21875 0.09375 0.375 0.265625q0.171875 0.15625 0.265625 0.375q0.09375 0.21875 0.09375 0.453125zm6.307251 2.828125q0.84375 0 1.5625 0.28125q0.71875 0.28125 1.234375 0.828125q0.53125 0.53125 0.8125 1.328125q0.296875 0.78125 0.296875 1.78125q0 0.3906231 -0.078125 0.5312481q-0.078125 0.125 -0.3125 0.125l-6.296875 0q0.015625 0.890625 0.234375 1.5625q0.234375 0.65625 0.625 1.109375q0.390625 0.4375 0.9375 0.65625q0.546875 0.21875 1.203125 0.21875q0.625 0 1.078125 -0.140625q0.453125 -0.15625 0.78125 -0.3125q0.328125 -0.171875 0.546875 -0.3125q0.21875 -0.15625 0.375 -0.15625q0.21875 0 0.328125 0.15625l0.46875 0.609375q-0.3125 0.375 -0.75 0.65625q-0.421875 0.265625 -0.921875 0.453125q-0.484375 0.171875 -1.015625 0.25q-0.515625 0.09375 -1.015625 0.09375q-0.984375 0 -1.8125 -0.328125q-0.828125 -0.328125 -1.4375 -0.96875q-0.59375 -0.640625 -0.9375 -1.578125q-0.328125 -0.9375 -0.328125 -2.171875q0 -0.9843731 0.296875 -1.8437481q0.3125 -0.859375 0.875 -1.484375q0.578125 -0.625 1.390625 -0.984375q0.828125 -0.359375 1.859375 -0.359375zm0.03125 1.21875q-1.203125 0 -1.890625 0.703125q-0.6875 0.6875 -0.859375 1.921875l5.140625 0q0 -0.578125 -0.171875 -1.0625q-0.15625 -0.484375 -0.46875 -0.828125q-0.296875 -0.359375 -0.75 -0.546875q-0.4375 -0.1875 -1.0 -0.1875zm5.994629 8.374998l0 -9.453123l0.984375 0q0.359375 0 0.453125 0.34375l0.125 1.03125q0.625 -0.6875 1.375 -1.09375q0.765625 -0.421875 1.765625 -0.421875q0.78125 0 1.359375 0.265625q0.59375 0.25 0.984375 0.71875q0.40625 0.46875 0.609375 1.140625q0.203125 0.65625 0.203125 1.453125l0 6.015623l-1.65625 0l0 -6.015623q0 -1.078125 -0.5 -1.671875q-0.484375 -0.59375 -1.484375 -0.59375q-0.734375 0 -1.375 0.359375q-0.640625 0.359375 -1.1875 0.96875l0 6.953123l-1.65625 0zm13.232239 0.15625q-1.109375 0 -1.71875 -0.625q-0.59375 -0.625 -0.59375 -1.8125l0 -5.781248l-1.140625 0q-0.15625 0 -0.265625 -0.078125q-0.09375 -0.09375 -0.09375 -0.28125l0 -0.65625l1.546875 -0.203125l0.390625 -2.921875q0.015625 -0.140625 0.109375 -0.21875q0.109375 -0.09375 0.265625 -0.09375l0.84375 0l0 3.25l2.703125 0l0 1.203125l-2.703125 0l0 5.671873q0 0.59375 0.28125 0.890625q0.296875 0.28125 0.75 0.28125q0.265625 0 0.453125 -0.0625q0.203125 -0.078125 0.328125 -0.15625q0.140625 -0.078125 0.234375 -0.140625q0.109375 -0.078125 0.1875 -0.078125q0.125 0 0.234375 0.15625l0.484375 0.796875q-0.4375 0.390625 -1.046875 0.625q-0.59375 0.234375 -1.25 0.234375z" fill-rule="nonzero"/><path fill="#000000" fill-opacity="0.0" d="m275.59308 52.093475l0.5354309 84.69292" fill-rule="evenodd"/><path stroke="#000000" stroke-width="1.0" stroke-linejoin="round" stroke-linecap="butt" d="m275.59308 52.09347l0.49749756 78.69304" fill-rule="evenodd"/><path fill="#000000" stroke="#000000" stroke-width="1.0" stroke-linecap="butt" d="m274.43887 130.79695l1.6803894 4.5275574l1.6230164 -4.5484467z" fill-rule="evenodd"/><path fill="#000000" fill-opacity="0.0" d="m82.16273 256.70966l94.83465 0l0 42.015747l-94.83465 0z" fill-rule="evenodd"/><path fill="#000000" d="m97.92835 275.73904q-0.109375 0.203125 -0.34375 0.203125q-0.140625 0 -0.3125 -0.09375q-0.171875 -0.109375 -0.4375 -0.234375q-0.25 -0.125 -0.609375 -0.234375q-0.359375 -0.109375 -0.84375 -0.109375q-0.40625 0 -0.75 0.109375q-0.328125 0.109375 -0.578125 0.296875q-0.234375 0.1875 -0.359375 0.4375q-0.125 0.234375 -0.125 0.53125q0 0.359375 0.203125 0.609375q0.21875 0.234375 0.5625 0.421875q0.34375 0.171875 0.78125 0.3125q0.4375 0.125 0.890625 0.28125q0.46875 0.15625 0.90625 0.34375q0.4375 0.1875 0.78125 0.46875q0.359375 0.28125 0.5625 0.6875q0.203125 0.40625 0.203125 0.96875q0 0.65625 -0.234375 1.21875q-0.21875 0.546875 -0.6875 0.953125q-0.453125 0.40625 -1.125 0.640625q-0.65625 0.234375 -1.515625 0.234375q-0.984375 0 -1.796875 -0.328125q-0.796875 -0.328125 -1.359375 -0.828125l0.390625 -0.625q0.078125 -0.125 0.171875 -0.1875q0.109375 -0.078125 0.28125 -0.078125q0.15625 0 0.34375 0.140625q0.1875 0.125 0.453125 0.28125q0.265625 0.15625 0.640625 0.296875q0.390625 0.125 0.953125 0.125q0.484375 0 0.84375 -0.125q0.375 -0.125 0.609375 -0.328125q0.25 -0.21875 0.359375 -0.5q0.125 -0.28125 0.125 -0.609375q0 -0.390625 -0.21875 -0.640625q-0.203125 -0.25 -0.546875 -0.4375q-0.34375 -0.1875 -0.796875 -0.3125q-0.4375 -0.140625 -0.90625 -0.28125q-0.453125 -0.15625 -0.90625 -0.34375q-0.4375 -0.203125 -0.78125 -0.484375q-0.34375 -0.296875 -0.5625 -0.71875q-0.203125 -0.421875 -0.203125 -1.03125q0 -0.53125 0.21875 -1.03125q0.234375 -0.5 0.65625 -0.875q0.4375 -0.390625 1.0625 -0.609375q0.625 -0.21875 1.421875 -0.21875q0.9375 0 1.671875 0.296875q0.75 0.28125 1.28125 0.796875l-0.375 0.609375zm4.128067 -1.5625l0 6.03125q0 1.078125 0.484375 1.671875q0.5 0.578125 1.5 0.578125q0.734375 0 1.375 -0.34375q0.640625 -0.34375 1.1875 -0.96875l0 -6.96875l1.65625 0l0 9.453125l-0.984375 0q-0.359375 0 -0.453125 -0.34375l-0.125 -1.015625q-0.625 0.671875 -1.390625 1.09375q-0.765625 0.421875 -1.75 0.421875q-0.765625 0 -1.359375 -0.25q-0.59375 -0.265625 -1.0 -0.734375q-0.390625 -0.46875 -0.59375 -1.125q-0.203125 -0.671875 -0.203125 -1.46875l0 -6.03125l1.65625 0zm8.997879 9.453125l0 -13.734375l1.671875 0l0 5.640625q0.578125 -0.671875 1.34375 -1.078125q0.765625 -0.421875 1.734375 -0.421875q0.828125 0 1.484375 0.3125q0.671875 0.296875 1.125 0.90625q0.46875 0.609375 0.71875 1.515625q0.25 0.90625 0.25 2.078125q0 1.046875 -0.28125 1.953125q-0.265625 0.890625 -0.796875 1.546875q-0.53125 0.65625 -1.296875 1.03125q-0.75 0.375 -1.703125 0.375q-0.921875 0 -1.5625 -0.34375q-0.625 -0.359375 -1.109375 -1.0l-0.078125 0.859375q-0.078125 0.359375 -0.4375 0.359375l-1.0625 0zm4.21875 -8.28125q-0.8125 0 -1.4375 0.375q-0.609375 0.375 -1.109375 1.0625l0 4.5625q0.4375 0.625 0.984375 0.875q0.546875 0.25 1.21875 0.25q1.328125 0 2.03125 -0.9375q0.71875 -0.953125 0.71875 -2.6875q0 -0.921875 -0.171875 -1.578125q-0.15625 -0.671875 -0.46875 -1.09375q-0.3125 -0.421875 -0.765625 -0.625q-0.4375 -0.203125 -1.0 -0.203125zm11.553848 0.390625q-0.109375 0.203125 -0.34375 0.203125q-0.140625 0 -0.3125 -0.09375q-0.171875 -0.109375 -0.4375 -0.234375q-0.25 -0.125 -0.609375 -0.234375q-0.359375 -0.109375 -0.84375 -0.109375q-0.40625 0 -0.75 0.109375q-0.328125 0.109375 -0.578125 0.296875q-0.234375 0.1875 -0.359375 0.4375q-0.125 0.234375 -0.125 0.53125q0 0.359375 0.203125 0.609375q0.21875 0.234375 0.5625 0.421875q0.34375 0.171875 0.78125 0.3125q0.4375 0.125 0.890625 0.28125q0.46875 0.15625 0.90625 0.34375q0.4375 0.1875 0.78125 0.46875q0.359375 0.28125 0.5625 0.6875q0.203125 0.40625 0.203125 0.96875q0 0.65625 -0.234375 1.21875q-0.21875 0.546875 -0.6875 0.953125q-0.453125 0.40625 -1.125 0.640625q-0.65625 0.234375 -1.515625 0.234375q-0.984375 0 -1.796875 -0.328125q-0.796875 -0.328125 -1.359375 -0.828125l0.390625 -0.625q0.078125 -0.125 0.171875 -0.1875q0.109375 -0.078125 0.28125 -0.078125q0.15625 0 0.34375 0.140625q0.1875 0.125 0.453125 0.28125q0.265625 0.15625 0.640625 0.296875q0.390625 0.125 0.953125 0.125q0.484375 0 0.84375 -0.125q0.375 -0.125 0.609375 -0.328125q0.25 -0.21875 0.359375 -0.5q0.125 -0.28125 0.125 -0.609375q0 -0.390625 -0.21875 -0.640625q-0.203125 -0.25 -0.546875 -0.4375q-0.34375 -0.1875 -0.796875 -0.3125q-0.4375 -0.140625 -0.90625 -0.28125q-0.453125 -0.15625 -0.90625 -0.34375q-0.4375 -0.203125 -0.78125 -0.484375q-0.34375 -0.296875 -0.5625 -0.71875q-0.203125 -0.421875 -0.203125 -1.03125q0 -0.53125 0.21875 -1.03125q0.234375 -0.5 0.65625 -0.875q0.4375 -0.390625 1.0625 -0.609375q0.625 -0.21875 1.421875 -0.21875q0.9375 0 1.671875 0.296875q0.75 0.28125 1.28125 0.796875l-0.375 0.609375zm9.1437 0.125q-0.078125 0.09375 -0.15625 0.15625q-0.078125 0.046875 -0.21875 0.046875q-0.140625 0 -0.296875 -0.109375q-0.15625 -0.109375 -0.421875 -0.25q-0.25 -0.140625 -0.609375 -0.25q-0.359375 -0.125 -0.875 -0.125q-0.6875 0 -1.21875 0.25q-0.53125 0.234375 -0.890625 0.703125q-0.359375 0.46875 -0.546875 1.140625q-0.1875 0.65625 -0.1875 1.46875q0 0.859375 0.203125 1.53125q0.203125 0.671875 0.546875 1.125q0.359375 0.453125 0.859375 0.6875q0.515625 0.234375 1.15625 0.234375q0.59375 0 0.984375 -0.140625q0.390625 -0.15625 0.65625 -0.328125q0.265625 -0.171875 0.421875 -0.3125q0.171875 -0.15625 0.34375 -0.15625q0.21875 0 0.3125 0.15625l0.46875 0.609375q-0.609375 0.765625 -1.53125 1.109375q-0.921875 0.34375 -1.953125 0.34375q-0.890625 0 -1.65625 -0.3125q-0.75 -0.328125 -1.3125 -0.953125q-0.5625 -0.625 -0.890625 -1.53125q-0.3125 -0.90625 -0.3125 -2.0625q0 -1.046875 0.296875 -1.9375q0.296875 -0.90625 0.859375 -1.546875q0.5625 -0.65625 1.390625 -1.015625q0.828125 -0.359375 1.90625 -0.359375q0.984375 0 1.75 0.328125q0.765625 0.3125 1.359375 0.890625l-0.4375 0.609375zm2.2593384 7.765625l0 -9.453125l0.953125 0q0.265625 0 0.375 0.109375q0.109375 0.09375 0.140625 0.34375l0.109375 1.484375q0.484375 -0.984375 1.1875 -1.546875q0.71875 -0.5625 1.6875 -0.5625q0.390625 0 0.703125 0.09375q0.328125 0.09375 0.59375 0.25l-0.21875 1.234375q-0.0625 0.234375 -0.28125 0.234375q-0.140625 0 -0.40625 -0.078125q-0.265625 -0.09375 -0.75 -0.09375q-0.875 0 -1.453125 0.5q-0.578125 0.5 -0.984375 1.46875l0 6.015625l-1.65625 0zm9.362213 -9.453125l0 9.453125l-1.65625 0l0 -9.453125l1.65625 0zm0.375 -2.96875q0 0.25 -0.09375 0.46875q-0.09375 0.203125 -0.265625 0.375q-0.15625 0.15625 -0.375 0.25q-0.21875 0.09375 -0.453125 0.09375q-0.25 0 -0.46875 -0.09375q-0.203125 -0.09375 -0.359375 -0.25q-0.15625 -0.171875 -0.25 -0.375q-0.09375 -0.21875 -0.09375 -0.46875q0 -0.234375 0.09375 -0.453125q0.09375 -0.21875 0.25 -0.375q0.15625 -0.171875 0.359375 -0.265625q0.21875 -0.09375 0.46875 -0.09375q0.234375 0 0.453125 0.09375q0.21875 0.09375 0.375 0.265625q0.171875 0.15625 0.265625 0.375q0.09375 0.21875 0.09375 0.453125zm2.557251 15.625l0 -12.65625l0.984375 0q0.359375 0 0.453125 0.34375l0.140625 1.125q0.609375 -0.734375 1.390625 -1.1875q0.78125 -0.453125 1.796875 -0.453125q0.8125 0 1.46875 0.3125q0.65625 0.3125 1.125 0.9375q0.46875 0.609375 0.71875 1.515625q0.25 0.90625 0.25 2.078125q0 1.046875 -0.28125 1.953125q-0.28125 0.890625 -0.796875 1.546875q-0.515625 0.65625 -1.28125 1.03125q-0.765625 0.375 -1.71875 0.375q-0.875 0 -1.5 -0.28125q-0.609375 -0.296875 -1.09375 -0.828125l0 4.1875l-1.65625 0zm4.203125 -11.484375q-0.8125 0 -1.421875 0.375q-0.609375 0.375 -1.125 1.0625l0 4.5625q0.46875 0.625 1.015625 0.875q0.546875 0.25 1.21875 0.25q1.3125 0 2.015625 -0.9375q0.703125 -0.953125 0.703125 -2.6875q0 -0.921875 -0.15625 -1.578125q-0.15625 -0.671875 -0.46875 -1.09375q-0.3125 -0.421875 -0.765625 -0.625q-0.4375 -0.203125 -1.015625 -0.203125zm8.954498 8.4375q-1.109375 0 -1.71875 -0.625q-0.59375 -0.625 -0.59375 -1.8125l0 -5.78125l-1.140625 0q-0.15625 0 -0.265625 -0.078125q-0.09375 -0.09375 -0.09375 -0.28125l0 -0.65625l1.546875 -0.203125l0.390625 -2.921875q0.015625 -0.140625 0.109375 -0.21875q0.109375 -0.09375 0.265625 -0.09375l0.84375 0l0 3.25l2.703125 0l0 1.203125l-2.703125 0l0 5.671875q0 0.59375 0.28125 0.890625q0.296875 0.28125 0.75 0.28125q0.265625 0 0.453125 -0.0625q0.203125 -0.078125 0.328125 -0.15625q0.140625 -0.078125 0.234375 -0.140625q0.109375 -0.078125 0.1875 -0.078125q0.125 0 0.234375 0.15625l0.484375 0.796875q-0.4375 0.390625 -1.046875 0.625q-0.59375 0.234375 -1.25 0.234375z" fill-rule="nonzero"/><path fill="#000000" fill-opacity="0.0" d="m129.58005 261.42648l0 -84.157486" fill-rule="evenodd"/><path stroke="#000000" stroke-width="1.0" stroke-linejoin="round" stroke-linecap="butt" d="m129.58005 261.42648l0 -78.15747" fill-rule="evenodd"/><path fill="#000000" stroke="#000000" stroke-width="1.0" stroke-linecap="butt" d="m131.23178 183.26901l-1.6517334 -4.538101l-1.6517258 4.538101z" fill-rule="evenodd"/><path fill="#000000" fill-opacity="0.0" d="m409.2466 -12.536448l94.834656 0l0 64.62992l-94.834656 0z" fill-rule="evenodd"/><path fill="#000000" d="m432.6747 6.492926q-0.109375 0.203125 -0.34375 0.203125q-0.140625 0 -0.3125 -0.09375q-0.171875 -0.109375 -0.4375 -0.234375q-0.25 -0.125 -0.609375 -0.234375q-0.359375 -0.109375 -0.84375 -0.109375q-0.40625 0 -0.75 0.109375q-0.328125 0.109375 -0.578125 0.296875q-0.234375 0.1875 -0.359375 0.4375q-0.125 0.234375 -0.125 0.53125q0 0.359375 0.203125 0.6093745q0.21875 0.234375 0.5625 0.421875q0.34375 0.171875 0.78125 0.3125q0.4375 0.125 0.890625 0.28125q0.46875 0.15625 0.90625 0.34375q0.4375 0.1875 0.78125 0.46875q0.359375 0.28125 0.5625 0.6875q0.203125 0.40625 0.203125 0.96875q0 0.65625 -0.234375 1.21875q-0.21875 0.546875 -0.6875 0.953125q-0.453125 0.40625 -1.125 0.640625q-0.65625 0.234375 -1.515625 0.234375q-0.984375 0 -1.796875 -0.328125q-0.796875 -0.328125 -1.359375 -0.828125l0.390625 -0.625q0.078125 -0.125 0.171875 -0.1875q0.109375 -0.078125 0.28125 -0.078125q0.15625 0 0.34375 0.140625q0.1875 0.125 0.453125 0.28125q0.265625 0.15625 0.640625 0.296875q0.390625 0.125 0.953125 0.125q0.484375 0 0.84375 -0.125q0.375 -0.125 0.609375 -0.328125q0.25 -0.21875 0.359375 -0.5q0.125 -0.28125 0.125 -0.609375q0 -0.390625 -0.21875 -0.640625q-0.203125 -0.25 -0.546875 -0.4375q-0.34375 -0.1875 -0.796875 -0.3125q-0.4375 -0.140625 -0.90625 -0.28125q-0.453125 -0.15625 -0.90625 -0.34375q-0.4375 -0.203125 -0.78125 -0.484375q-0.34375 -0.296875 -0.5625 -0.71875q-0.203125 -0.421875 -0.203125 -1.0312495q0 -0.53125 0.21875 -1.03125q0.234375 -0.5 0.65625 -0.875q0.4375 -0.390625 1.0625 -0.609375q0.625 -0.21875 1.421875 -0.21875q0.9375 0 1.671875 0.296875q0.75 0.28125 1.28125 0.796875l-0.375 0.609375zm5.5499573 8.046875q-1.109375 0 -1.71875 -0.625q-0.59375 -0.625 -0.59375 -1.8125l0 -5.7812495l-1.140625 0q-0.15625 0 -0.265625 -0.078125q-0.09375 -0.09375 -0.09375 -0.28125l0 -0.65625l1.546875 -0.203125l0.390625 -2.9218752q0.015625 -0.140625 0.109375 -0.21875q0.109375 -0.09375 0.265625 -0.09375l0.84375 0l0 3.2500002l2.703125 0l0 1.203125l-2.703125 0l0 5.6718745q0 0.59375 0.28125 0.890625q0.296875 0.28125 0.75 0.28125q0.265625 0 0.453125 -0.0625q0.203125 -0.078125 0.328125 -0.15625q0.140625 -0.078125 0.234375 -0.140625q0.109375 -0.078125 0.1875 -0.078125q0.125 0 0.234375 0.15625l0.484375 0.796875q-0.4375 0.390625 -1.046875 0.625q-0.59375 0.234375 -1.25 0.234375zm11.036896 -0.15625l-0.734375 0q-0.234375 0 -0.390625 -0.078125q-0.140625 -0.078125 -0.1875 -0.3125l-0.1875 -0.875q-0.375 0.328125 -0.734375 0.59375q-0.359375 0.265625 -0.75 0.453125q-0.390625 0.1875 -0.828125 0.28125q-0.4375 0.09375 -0.984375 0.09375q-0.546875 0 -1.03125 -0.15625q-0.484375 -0.15625 -0.84375 -0.46875q-0.34375 -0.3125 -0.5625 -0.78125q-0.203125 -0.46875 -0.203125 -1.109375q0 -0.5625 0.296875 -1.078125q0.3125 -0.515625 1.0 -0.90625q0.6875 -0.40625 1.796875 -0.65625q1.109375 -0.265625 2.71875 -0.3125l0 -0.734375q0 -1.0937495 -0.46875 -1.6562495q-0.46875 -0.578125 -1.40625 -0.578125q-0.59375 0 -1.015625 0.15625q-0.40625 0.15625 -0.71875 0.359375q-0.296875 0.1875 -0.515625 0.34375q-0.21875 0.140625 -0.4375 0.140625q-0.171875 0 -0.296875 -0.078125q-0.125 -0.09375 -0.203125 -0.21875l-0.296875 -0.53125q0.78125 -0.765625 1.6875 -1.140625q0.90625 -0.375 2.015625 -0.375q0.78125 0 1.390625 0.265625q0.625 0.265625 1.046875 0.734375q0.421875 0.46875 0.625 1.125q0.21875 0.65625 0.21875 1.4531245l0 6.046875zm-4.296875 -1.015625q0.4375 0 0.796875 -0.078125q0.359375 -0.09375 0.671875 -0.25q0.328125 -0.171875 0.625 -0.40625q0.296875 -0.234375 0.578125 -0.53125l0 -1.96875q-1.15625 0.03125 -1.953125 0.1875q-0.796875 0.140625 -1.3125 0.375q-0.5 0.234375 -0.734375 0.546875q-0.21875 0.3125 -0.21875 0.703125q0 0.375 0.125 0.65625q0.125 0.265625 0.328125 0.4375q0.203125 0.171875 0.484375 0.25q0.28125 0.078125 0.609375 0.078125zm9.67749 1.171875q-1.109375 0 -1.71875 -0.625q-0.59375 -0.625 -0.59375 -1.8125l0 -5.7812495l-1.140625 0q-0.15625 0 -0.265625 -0.078125q-0.09375 -0.09375 -0.09375 -0.28125l0 -0.65625l1.546875 -0.203125l0.390625 -2.9218752q0.015625 -0.140625 0.109375 -0.21875q0.109375 -0.09375 0.265625 -0.09375l0.84375 0l0 3.2500002l2.703125 0l0 1.203125l-2.703125 0l0 5.6718745q0 0.59375 0.28125 0.890625q0.296875 0.28125 0.75 0.28125q0.265625 0 0.453125 -0.0625q0.203125 -0.078125 0.328125 -0.15625q0.140625 -0.078125 0.234375 -0.140625q0.109375 -0.078125 0.1875 -0.078125q0.125 0 0.234375 0.15625l0.484375 0.796875q-0.4375 0.390625 -1.046875 0.625q-0.59375 0.234375 -1.25 0.234375zm7.8493958 -9.75q0.84375 0 1.5625 0.28125q0.71875 0.28125 1.234375 0.828125q0.53125 0.53125 0.8125 1.328125q0.296875 0.7812495 0.296875 1.7812495q0 0.390625 -0.078125 0.53125q-0.078125 0.125 -0.3125 0.125l-6.296875 0q0.015625 0.890625 0.234375 1.5625q0.234375 0.65625 0.625 1.109375q0.390625 0.4375 0.9375 0.65625q0.546875 0.21875 1.203125 0.21875q0.625 0 1.078125 -0.140625q0.453125 -0.15625 0.78125 -0.3125q0.328125 -0.171875 0.546875 -0.3125q0.21875 -0.15625 0.375 -0.15625q0.21875 0 0.328125 0.15625l0.46875 0.609375q-0.3125 0.375 -0.75 0.65625q-0.421875 0.265625 -0.921875 0.453125q-0.484375 0.171875 -1.015625 0.25q-0.515625 0.09375 -1.015625 0.09375q-0.984375 0 -1.8125 -0.328125q-0.828125 -0.328125 -1.4375 -0.96875q-0.59375 -0.640625 -0.9375 -1.578125q-0.328125 -0.9375 -0.328125 -2.171875q0 -0.984375 0.296875 -1.8437495q0.3125 -0.859375 0.875 -1.484375q0.578125 -0.625 1.390625 -0.984375q0.828125 -0.359375 1.859375 -0.359375zm0.03125 1.21875q-1.203125 0 -1.890625 0.703125q-0.6875 0.6875 -0.859375 1.9218745l5.140625 0q0 -0.578125 -0.171875 -1.0624995q-0.15625 -0.484375 -0.46875 -0.828125q-0.296875 -0.359375 -0.75 -0.546875q-0.4375 -0.1875 -1.0 -0.1875zm13.423431 -1.21875q1.03125 0 1.859375 0.34375q0.84375 0.34375 1.421875 0.984375q0.59375 0.625 0.90625 1.53125q0.3125 0.8906245 0.3125 1.9999995q0 1.125 -0.3125 2.03125q-0.3125 0.890625 -0.90625 1.53125q-0.578125 0.625 -1.421875 0.96875q-0.828125 0.328125 -1.859375 0.328125q-1.03125 0 -1.875 -0.328125q-0.828125 -0.34375 -1.421875 -0.96875q-0.578125 -0.640625 -0.90625 -1.53125q-0.3125 -0.90625 -0.3125 -2.03125q0 -1.109375 0.3125 -1.9999995q0.328125 -0.90625 0.90625 -1.53125q0.59375 -0.640625 1.421875 -0.984375q0.84375 -0.34375 1.875 -0.34375zm0 8.421875q1.390625 0 2.078125 -0.9375q0.703125 -0.9375 0.703125 -2.609375q0 -1.6874995 -0.703125 -2.6249995q-0.6875 -0.953125 -2.078125 -0.953125q-0.703125 0 -1.234375 0.25q-0.515625 0.234375 -0.875 0.703125q-0.34375 0.453125 -0.515625 1.1249995q-0.171875 0.65625 -0.171875 1.5q0 0.84375 0.171875 1.5q0.171875 0.65625 0.515625 1.109375q0.359375 0.453125 0.875 0.703125q0.53125 0.234375 1.234375 0.234375zm6.919739 1.171875l0 -8.03125l-1.046875 -0.125q-0.1875 -0.046875 -0.3125 -0.140625q-0.125 -0.09375 -0.125 -0.28125l0 -0.6875l1.484375 0l0 -0.90625q0 -0.81250024 0.21875 -1.4375002q0.234375 -0.640625 0.65625 -1.0625q0.4375 -0.4375 1.03125 -0.65625q0.59375 -0.23437494 1.34375 -0.23437494q0.625 0 1.171875 0.18749994l-0.03125 0.828125q-0.015625 0.1875 -0.171875 0.234375q-0.140625 0.03125 -0.40625 0.03125l-0.296875 0q-0.421875 0 -0.78125 0.109375q-0.34375 0.109375 -0.59375 0.359375q-0.25 0.25 -0.390625 0.671875q-0.140625 0.40625 -0.140625 1.0156252l0 0.859375l2.734375 0l0 1.203125l-2.671875 0l0 8.0625l-1.671875 0z" fill-rule="nonzero"/><path fill="#000000" d="m430.0296 36.78355l0 -9.453127l0.984375 0q0.359375 0 0.453125 0.34375l0.125 0.96875q0.515625 -0.640625 1.15625 -1.046875q0.65625 -0.40625 1.515625 -0.40625q0.96875 0 1.5625 0.53125q0.59375 0.53125 0.84375 1.4375q0.203125 -0.515625 0.515625 -0.890625q0.328125 -0.375 0.71875 -0.609375q0.40625 -0.25 0.859375 -0.359375q0.453125 -0.109375 0.921875 -0.109375q0.75 0 1.328125 0.234375q0.578125 0.234375 0.984375 0.703125q0.40625 0.453125 0.625 1.125q0.21875 0.65625 0.21875 1.515625l0 6.015627l-1.65625 0l0 -6.015627q0 -1.109375 -0.5 -1.6875q-0.484375 -0.578125 -1.40625 -0.578125q-0.40625 0 -0.78125 0.15625q-0.359375 0.140625 -0.640625 0.421875q-0.28125 0.28125 -0.453125 0.703125q-0.15625 0.421875 -0.15625 0.984375l0 6.015627l-1.65625 0l0 -6.015627q0 -1.140625 -0.46875 -1.703125q-0.453125 -0.5625 -1.328125 -0.5625q-0.609375 0 -1.140625 0.34375q-0.53125 0.328125 -0.96875 0.890625l0 7.046877l-1.65625 0zm22.254303 0l-0.734375 0q-0.234375 0 -0.390625 -0.078125q-0.140625 -0.078125 -0.1875 -0.3125l-0.1875 -0.875q-0.375 0.328125 -0.734375 0.59375q-0.359375 0.265625 -0.75 0.453125q-0.390625 0.1875 -0.828125 0.28125q-0.4375 0.09375 -0.984375 0.09375q-0.546875 0 -1.03125 -0.15625q-0.484375 -0.15625 -0.84375 -0.46875q-0.34375 -0.3125 -0.5625 -0.78125q-0.203125 -0.46875 -0.203125 -1.109375q0 -0.5625 0.296875 -1.078125q0.3125 -0.515625 1.0 -0.90625q0.6875 -0.40625 1.796875 -0.6562519q1.109375 -0.265625 2.71875 -0.3125l0 -0.734375q0 -1.09375 -0.46875 -1.65625q-0.46875 -0.578125 -1.40625 -0.578125q-0.59375 0 -1.015625 0.15625q-0.40625 0.15625 -0.71875 0.359375q-0.296875 0.1875 -0.515625 0.34375q-0.21875 0.140625 -0.4375 0.140625q-0.171875 0 -0.296875 -0.078125q-0.125 -0.09375 -0.203125 -0.21875l-0.296875 -0.53125q0.78125 -0.765625 1.6875 -1.140625q0.90625 -0.375 2.015625 -0.375q0.78125 0 1.390625 0.265625q0.625 0.265625 1.046875 0.734375q0.421875 0.46875 0.625 1.125q0.21875 0.65625 0.21875 1.453125l0 6.046877zm-4.296875 -1.015625q0.4375 0 0.796875 -0.078125q0.359375 -0.09375 0.671875 -0.25q0.328125 -0.171875 0.625 -0.40625q0.296875 -0.234375 0.578125 -0.53125l0 -1.96875q-1.15625 0.03125 -1.953125 0.1875q-0.796875 0.140625 -1.3125 0.375q-0.5 0.234375 -0.734375 0.546875q-0.21875 0.3125 -0.21875 0.703125q0 0.375 0.125 0.65625q0.125 0.265625 0.328125 0.4375q0.203125 0.171875 0.484375 0.25q0.28125 0.078125 0.609375 0.078125zm9.67746 1.171875q-1.109375 0 -1.71875 -0.625q-0.59375 -0.625 -0.59375 -1.8125l0 -5.781252l-1.140625 0q-0.15625 0 -0.265625 -0.078125q-0.09375 -0.09375 -0.09375 -0.28125l0 -0.65625l1.546875 -0.203125l0.390625 -2.921875q0.015625 -0.140625 0.109375 -0.21875q0.109375 -0.09375 0.265625 -0.09375l0.84375 0l0 3.25l2.703125 0l0 1.203125l-2.703125 0l0 5.671877q0 0.59375 0.28125 0.890625q0.296875 0.28125 0.75 0.28125q0.265625 0 0.453125 -0.0625q0.203125 -0.078125 0.328125 -0.15625q0.140625 -0.078125 0.234375 -0.140625q0.109375 -0.078125 0.1875 -0.078125q0.125 0 0.234375 0.15625l0.484375 0.796875q-0.4375 0.390625 -1.046875 0.625q-0.59375 0.234375 -1.25 0.234375zm6.9588013 0q-1.109375 0 -1.71875 -0.625q-0.59375 -0.625 -0.59375 -1.8125l0 -5.781252l-1.140625 0q-0.15625 0 -0.265625 -0.078125q-0.09375 -0.09375 -0.09375 -0.28125l0 -0.65625l1.546875 -0.203125l0.390625 -2.921875q0.015625 -0.140625 0.109375 -0.21875q0.109375 -0.09375 0.265625 -0.09375l0.84375 0l0 3.25l2.703125 0l0 1.203125l-2.703125 0l0 5.671877q0 0.59375 0.28125 0.890625q0.296875 0.28125 0.75 0.28125q0.265625 0 0.453125 -0.0625q0.203125 -0.078125 0.328125 -0.15625q0.140625 -0.078125 0.234375 -0.140625q0.109375 -0.078125 0.1875 -0.078125q0.125 0 0.234375 0.15625l0.484375 0.796875q-0.4375 0.390625 -1.046875 0.625q-0.59375 0.234375 -1.25 0.234375zm7.8493958 -9.750002q0.84375 0 1.5625 0.28125q0.71875 0.28125 1.234375 0.828125q0.53125 0.53125 0.8125 1.328125q0.296875 0.78125 0.296875 1.78125q0 0.390625 -0.078125 0.53125q-0.078125 0.1250019 -0.3125 0.1250019l-6.296875 0q0.015625 0.890625 0.234375 1.5625q0.234375 0.65625 0.625 1.109375q0.390625 0.4375 0.9375 0.65625q0.546875 0.21875 1.203125 0.21875q0.625 0 1.078125 -0.140625q0.453125 -0.15625 0.78125 -0.3125q0.328125 -0.171875 0.546875 -0.3125q0.21875 -0.15625 0.375 -0.15625q0.21875 0 0.328125 0.15625l0.46875 0.609375q-0.3125 0.375 -0.75 0.65625q-0.421875 0.265625 -0.921875 0.453125q-0.484375 0.171875 -1.015625 0.25q-0.515625 0.09375 -1.015625 0.09375q-0.984375 0 -1.8125 -0.328125q-0.828125 -0.328125 -1.4375 -0.96875q-0.59375 -0.640625 -0.9375 -1.578125q-0.328125 -0.9375 -0.328125 -2.171877q0 -0.984375 0.296875 -1.84375q0.3125 -0.859375 0.875 -1.484375q0.578125 -0.625 1.390625 -0.984375q0.828125 -0.359375 1.859375 -0.359375zm0.03125 1.21875q-1.203125 0 -1.890625 0.703125q-0.6875 0.6875 -0.859375 1.921875l5.140625 0q0 -0.578125 -0.171875 -1.0625q-0.15625 -0.484375 -0.46875 -0.828125q-0.296875 -0.359375 -0.75 -0.546875q-0.4375 -0.1875 -1.0 -0.1875zm5.994629 8.375002l0 -9.453127l0.953125 0q0.265625 0 0.375 0.109375q0.109375 0.09375 0.140625 0.34375l0.109375 1.484375q0.484375 -0.984375 1.1875 -1.546875q0.71875 -0.5625 1.6875 -0.5625q0.390625 0 0.703125 0.09375q0.328125 0.09375 0.59375 0.25l-0.21875 1.234375q-0.0625 0.234375 -0.28125 0.234375q-0.140625 0 -0.40625 -0.078125q-0.265625 -0.09375 -0.75 -0.09375q-0.875 0 -1.453125 0.5q-0.578125 0.5 -0.984375 1.46875l0 6.015627l-1.65625 0z" fill-rule="nonzero"/><path fill="#000000" fill-opacity="0.0" d="m456.66394 52.093475l0.25195312 84.69292" fill-rule="evenodd"/><path stroke="#000000" stroke-width="1.0" stroke-linejoin="round" stroke-linecap="butt" d="m456.6639 52.09347l0.23413086 78.69295" fill-rule="evenodd"/><path fill="#000000" stroke="#000000" stroke-width="1.0" stroke-linecap="butt" d="m455.2463 130.79132l1.6652222 4.5331726l1.6382446 -4.5429993z" fill-rule="evenodd"/><path fill="#000000" fill-opacity="0.0" d="m239.3256 258.75616l0 -84.15747" fill-rule="evenodd"/><path stroke="#000000" stroke-width="1.0" stroke-linejoin="round" stroke-linecap="butt" d="m239.3256 258.75616l0 -78.15747" fill-rule="evenodd"/><path fill="#000000" stroke="#000000" stroke-width="1.0" stroke-linecap="butt" d="m240.97734 180.5987l-1.6517334 -4.538101l-1.6517334 4.538101z" fill-rule="evenodd"/><path fill="#000000" fill-opacity="0.0" d="m205.63036 256.70966l72.31496 0l0 42.015747l-72.31496 0z" fill-rule="evenodd"/><path fill="#000000" d="m222.92723 283.62967l-0.734375 0q-0.234375 0 -0.390625 -0.078125q-0.140625 -0.078125 -0.1875 -0.3125l-0.1875 -0.875q-0.375 0.328125 -0.734375 0.59375q-0.359375 0.265625 -0.75 0.453125q-0.390625 0.1875 -0.828125 0.28125q-0.4375 0.09375 -0.984375 0.09375q-0.546875 0 -1.03125 -0.15625q-0.484375 -0.15625 -0.84375 -0.46875q-0.34375 -0.3125 -0.5625 -0.78125q-0.203125 -0.46875 -0.203125 -1.109375q0 -0.5625 0.296875 -1.078125q0.3125 -0.515625 1.0 -0.90625q0.6875 -0.40625 1.796875 -0.65625q1.109375 -0.265625 2.71875 -0.3125l0 -0.734375q0 -1.09375 -0.46875 -1.65625q-0.46875 -0.578125 -1.40625 -0.578125q-0.59375 0 -1.015625 0.15625q-0.40625 0.15625 -0.71875 0.359375q-0.296875 0.1875 -0.515625 0.34375q-0.21875 0.140625 -0.4375 0.140625q-0.171875 0 -0.296875 -0.078125q-0.125 -0.09375 -0.203125 -0.21875l-0.296875 -0.53125q0.78125 -0.765625 1.6875 -1.140625q0.90625 -0.375 2.015625 -0.375q0.78125 0 1.390625 0.265625q0.625 0.265625 1.046875 0.734375q0.421875 0.46875 0.625 1.125q0.21875 0.65625 0.21875 1.453125l0 6.046875zm-4.296875 -1.015625q0.4375 0 0.796875 -0.078125q0.359375 -0.09375 0.671875 -0.25q0.328125 -0.171875 0.625 -0.40625q0.296875 -0.234375 0.578125 -0.53125l0 -1.96875q-1.15625 0.03125 -1.953125 0.1875q-0.796875 0.140625 -1.3125 0.375q-0.5 0.234375 -0.734375 0.546875q-0.21875 0.3125 -0.21875 0.703125q0 0.375 0.125 0.65625q0.125 0.265625 0.328125 0.4375q0.203125 0.171875 0.484375 0.25q0.28125 0.078125 0.609375 0.078125zm6.8181 1.015625l0 -9.453125l0.953125 0q0.265625 0 0.375 0.109375q0.109375 0.09375 0.140625 0.34375l0.109375 1.484375q0.484375 -0.984375 1.1875 -1.546875q0.71875 -0.5625 1.6875 -0.5625q0.390625 0 0.703125 0.09375q0.328125 0.09375 0.59375 0.25l-0.21875 1.234375q-0.0625 0.234375 -0.28125 0.234375q-0.140625 0 -0.40625 -0.078125q-0.265625 -0.09375 -0.75 -0.09375q-0.875 0 -1.453125 0.5q-0.578125 0.5 -0.984375 1.46875l0 6.015625l-1.65625 0zm7.518463 0l0 -9.453125l0.953125 0q0.265625 0 0.375 0.109375q0.109375 0.09375 0.140625 0.34375l0.109375 1.484375q0.484375 -0.984375 1.1875 -1.546875q0.71875 -0.5625 1.6875 -0.5625q0.390625 0 0.703125 0.09375q0.328125 0.09375 0.59375 0.25l-0.21875 1.234375q-0.0625 0.234375 -0.28125 0.234375q-0.140625 0 -0.40625 -0.078125q-0.265625 -0.09375 -0.75 -0.09375q-0.875 0 -1.453125 0.5q-0.578125 0.5 -0.984375 1.46875l0 6.015625l-1.65625 0zm11.346588 -9.59375q1.03125 0 1.859375 0.34375q0.84375 0.34375 1.421875 0.984375q0.59375 0.625 0.90625 1.53125q0.3125 0.890625 0.3125 2.0q0 1.125 -0.3125 2.03125q-0.3125 0.890625 -0.90625 1.53125q-0.578125 0.625 -1.421875 0.96875q-0.828125 0.328125 -1.859375 0.328125q-1.03125 0 -1.875 -0.328125q-0.828125 -0.34375 -1.421875 -0.96875q-0.578125 -0.640625 -0.90625 -1.53125q-0.3125 -0.90625 -0.3125 -2.03125q0 -1.109375 0.3125 -2.0q0.328125 -0.90625 0.90625 -1.53125q0.59375 -0.640625 1.421875 -0.984375q0.84375 -0.34375 1.875 -0.34375zm0 8.421875q1.390625 0 2.078125 -0.9375q0.703125 -0.9375 0.703125 -2.609375q0 -1.6875 -0.703125 -2.625q-0.6875 -0.953125 -2.078125 -0.953125q-0.703125 0 -1.234375 0.25q-0.515625 0.234375 -0.875 0.703125q-0.34375 0.453125 -0.515625 1.125q-0.171875 0.65625 -0.171875 1.5q0 0.84375 0.171875 1.5q0.171875 0.65625 0.515625 1.109375q0.359375 0.453125 0.875 0.703125q0.53125 0.234375 1.234375 0.234375zm5.310379 -8.28125l1.3125 0q0.203125 0 0.328125 0.109375q0.140625 0.09375 0.1875 0.234375l1.8125 6.09375q0.0625 0.328125 0.125 0.640625q0.078125 0.3125 0.125 0.625q0.0625 -0.3125 0.15625 -0.625q0.09375 -0.3125 0.203125 -0.640625l2.0 -6.125q0.046875 -0.140625 0.15626526 -0.234375q0.125 -0.09375 0.296875 -0.09375l0.71875 0q0.1875 0 0.296875 0.09375q0.125 0.09375 0.171875 0.234375l1.953125 6.125q0.109375 0.3125 0.1875 0.640625q0.078125 0.3125 0.15625 0.625q0.046875 -0.3125 0.109375 -0.640625q0.078125 -0.34375 0.171875 -0.625l1.84375 -6.09375q0.046875 -0.140625 0.171875 -0.234375q0.140625 -0.109375 0.3125 -0.109375l1.25 0l-3.0625 9.453125l-1.3125 0q-0.25 0 -0.34375 -0.3125l-2.078125 -6.40625q-0.078125 -0.21875 -0.125 -0.4375q-0.046875 -0.21875 -0.09375 -0.4375q-0.046875 0.21875 -0.09375 0.4375q-0.046875 0.21875 -0.125 0.4375l-2.1093903 6.40625q-0.109375 0.3125 -0.390625 0.3125l-1.25 0l-3.0625 -9.453125z" fill-rule="nonzero"/></g></svg>